<svg width="235" height="45" viewBox="0 0 235 45" fill="none" xmlns="http://www.w3.org/2000/svg">
<path d="M39.5309 22.3516C39.5327 18.8956 38.5377 15.5139 36.6677 12.6196L43.6173 5.60083L38.398 0.328857L31.4527 7.34759C28.5859 5.45963 25.2372 4.45442 21.8146 4.45442C18.3921 4.45442 15.0434 5.45963 12.1765 7.34759L5.22057 0.328857L0 5.60083L6.9503 12.6189C5.08075 15.514 4.08534 18.8957 4.08534 22.3519C4.08534 25.8082 5.08075 29.1898 6.9503 32.0849L0 39.1043L5.22057 44.3763L12.1709 37.3575C15.0377 39.2455 18.3864 40.2507 21.809 40.2507C25.2315 40.2507 28.5802 39.2455 31.4471 37.3575L38.3974 44.3763L43.6173 39.1043L36.6677 32.0913C38.5391 29.1947 39.5341 25.8102 39.5309 22.3516ZM11.4704 22.3516C11.4677 20.794 11.8101 19.2555 12.4726 17.8489C13.135 16.4423 14.1008 15.2032 15.299 14.2224C16.4972 13.2416 17.8975 12.5439 19.3974 12.1806C20.8972 11.8172 22.4586 11.7973 23.967 12.1224C25.4755 12.4475 26.8928 13.1093 28.1151 14.0593C29.3374 15.0093 30.3337 16.2234 31.0311 17.6127C31.7284 19.002 32.1091 20.5313 32.1453 22.0885C32.1814 23.6456 31.8721 25.1912 31.24 26.612L24.4202 19.7156L19.1977 24.9889L26.02 31.8764C24.447 32.5907 22.7218 32.8953 21.0021 32.7626C19.2824 32.6298 17.6231 32.0639 16.1759 31.1165C14.7287 30.1691 13.5397 28.8704 12.7177 27.3393C11.8957 25.8081 11.4669 24.0933 11.4704 22.3516Z" fill="#4CBBFD"/>
<path fill-rule="evenodd" clip-rule="evenodd" d="M77.0736 22.5633C77.0736 26.8687 74.9121 30.7558 71.0629 32.5495L73.1058 35.2406L68.9013 37.3943L66.0883 33.6269H65.9998C59.0414 33.6269 54.926 28.514 54.926 22.5639C54.926 16.6131 59.0414 11.5002 65.9998 11.5002C72.9577 11.5002 77.0736 16.6131 77.0736 22.5639V22.5633ZM65.9998 29.2905C69.9375 29.2905 72.0689 26.2108 72.0689 22.5633C72.0689 18.9151 69.9375 15.8355 65.9998 15.8355C62.032 15.8355 59.8999 18.9151 59.9301 22.5633C59.8999 26.2108 62.0326 29.2905 65.9992 29.2905H65.9998ZM84.831 33.4165C81.3961 33.4165 79.5609 31.2641 79.5609 27.5266V18.6159H84.1501V26.51C84.1501 28.483 84.8015 29.5598 86.5187 29.5598C88.443 29.5598 89.2721 28.3036 89.2721 26.3604V18.6159H93.7728V33.0286H89.2727V30.965C88.4731 32.4899 86.9926 33.4171 84.831 33.4171V33.4165ZM103.218 33.4165C98.9544 33.4165 96.4967 30.1575 96.4967 25.8223C96.4967 21.5162 99.1327 18.2274 103.278 18.2274C105.35 18.2274 106.979 19.2143 107.748 20.679V18.6159H112.249V33.0286H107.749V30.9947C106.979 32.4303 105.202 33.4171 103.218 33.4171V33.4165ZM104.521 29.62C106.771 29.62 107.926 27.9151 107.926 25.8223C107.926 23.7593 106.771 22.055 104.521 22.055C102.418 22.055 101.116 23.6395 101.116 25.8223C101.116 28.0051 102.419 29.6194 104.521 29.6194V29.62ZM116.009 18.6159H120.54V20.7094C121.368 19.0945 122.997 18.2274 125.159 18.2274C128.623 18.2274 130.37 20.2011 130.37 24.118V33.0274H125.81V25.6119C125.81 23.1907 125.129 22.0841 123.293 22.0841C121.487 22.0841 120.54 23.2801 120.54 25.4927V33.0274H116.009V18.6159ZM141.473 29.4698C142.036 29.4698 142.628 29.44 143.042 29.3805V33.028C142.391 33.1478 141.325 33.2676 140.022 33.2676C137.89 33.2676 134.959 32.789 134.959 27.9753V22.2337H132.709V18.6153H134.959V14.3397H139.49V18.6153H142.717V22.2337H139.49V27.0176C139.49 29.1409 140.348 29.4692 141.473 29.4692V29.4698ZM151.362 33.4767C147.187 33.4767 144.612 31.4137 144.612 28.6928H149.112C149.112 29.6796 150.059 30.3971 151.451 30.3971C152.429 30.3971 153.11 29.8888 153.11 29.0515C153.11 28.483 152.843 28.0051 152.073 27.8257L148.579 26.9283C146.211 26.3306 144.996 24.8355 144.996 22.7724C144.996 20.0813 147.335 18.1976 151.096 18.1976C155.271 18.1976 157.462 19.9615 157.462 22.6824H152.991C152.991 21.6658 152.25 21.0979 151.037 21.0979C150.059 21.0979 149.408 21.5764 149.408 22.2939C149.408 22.9518 149.852 23.3701 150.622 23.5799L153.998 24.5065C156.189 25.1048 157.61 26.4497 157.61 28.5134C157.61 31.4733 155.271 33.4761 151.362 33.4761V33.4767ZM167.914 29.4698C168.476 29.4698 169.069 29.44 169.483 29.3805V33.028C168.832 33.1478 167.766 33.2676 166.463 33.2676C164.331 33.2676 161.4 32.789 161.4 27.9753V22.2337H159.15V18.6153H161.4V14.3397H165.93V18.6153H169.157V22.2337H165.93V27.0176C165.93 29.1409 166.789 29.4692 167.913 29.4692L167.914 29.4698ZM177.774 33.4171C173.51 33.4171 171.052 30.1575 171.052 25.8223C171.052 21.5162 173.688 18.2274 177.833 18.2274C179.905 18.2274 181.534 19.2143 182.304 20.679V18.6159H186.804V33.0286H182.304V30.9947C181.534 32.4303 179.757 33.4171 177.774 33.4171ZM179.076 29.6194C181.327 29.6194 182.482 27.9151 182.482 25.8223C182.482 23.7593 181.327 22.055 179.076 22.055C176.974 22.055 175.671 23.6395 175.671 25.8223C175.671 28.0051 176.974 29.6194 179.076 29.6194ZM190.565 18.6166H195.095V20.7094C195.716 19.2738 197.198 18.2274 199.181 18.2274C201.727 18.2274 203.03 19.3638 203.652 20.8888C204.422 19.334 206.109 18.2274 208.212 18.2274C212.298 18.2274 213.275 21.0681 213.275 24.0882V33.0274H208.715V24.9248C208.715 22.922 207.975 22.0848 206.583 22.0848C205.162 22.0848 204.185 22.8916 204.185 25.6131V33.0286H199.625V24.8944C199.625 22.8916 198.915 22.0841 197.523 22.0841C196.072 22.0841 195.095 22.8909 195.095 25.6125V33.028H190.565V18.6153V18.6166ZM216.857 18.6166H221.387V20.679C222.128 19.3036 223.904 18.2274 226.036 18.2274C229.945 18.2274 232.609 21.2773 232.609 25.8223C232.609 30.3369 229.856 33.4171 225.918 33.4171C223.815 33.4171 222.099 32.3403 221.387 30.9947V39.0086H216.857V18.6159V18.6166ZM224.615 29.6194C226.599 29.6194 227.991 28.0647 227.991 25.8223C227.991 23.6097 226.599 22.055 224.615 22.055C222.572 22.055 221.18 23.5799 221.18 25.8223C221.18 28.0945 222.602 29.6194 224.615 29.6194H224.615ZM231.125 18.884C230.871 18.884 230.649 18.827 230.46 18.7129C230.274 18.6025 230.122 18.4412 230.022 18.2477C229.919 18.0452 229.867 17.8201 229.87 17.5924C229.87 17.3547 229.921 17.1379 230.022 16.9414C230.125 16.7456 230.27 16.5909 230.459 16.4769C230.649 16.3628 230.871 16.3057 231.125 16.3057C231.376 16.3057 231.598 16.3628 231.788 16.4769C231.979 16.5909 232.126 16.7456 232.228 16.9414C232.329 17.1379 232.38 17.3547 232.38 17.5924C232.38 17.8332 232.329 18.0519 232.228 18.2477C232.126 18.4442 231.979 18.5988 231.788 18.7129C231.598 18.827 231.377 18.884 231.125 18.884ZM231.125 18.6724C231.329 18.6724 231.507 18.6236 231.66 18.5272C231.812 18.4309 231.93 18.3009 232.011 18.1368C232.092 17.9733 232.132 17.7914 232.132 17.5924C232.132 17.3959 232.092 17.2165 232.011 17.0524C231.932 16.8915 231.81 16.7562 231.659 16.6619C231.499 16.5635 231.314 16.5134 231.126 16.5174C230.922 16.5174 230.743 16.5656 230.59 16.6619C230.438 16.7589 230.32 16.8888 230.238 17.0524C230.154 17.2197 230.111 17.4049 230.113 17.5924C230.113 17.7914 230.155 17.9726 230.238 18.1374C230.32 18.3009 230.438 18.4309 230.59 18.5272C230.743 18.6236 230.922 18.6724 231.125 18.6724ZM230.672 16.8933H231.197C231.33 16.8933 231.44 16.9395 231.526 17.0308C231.568 17.0746 231.601 17.1263 231.623 17.183C231.645 17.2396 231.656 17.3001 231.655 17.361C231.656 17.4562 231.629 17.5495 231.576 17.6285C231.523 17.7077 231.445 17.7662 231.354 17.7945L231.645 18.2572H231.411L231.145 17.8193H230.882V18.2578H230.672V16.8933ZM231.182 17.6361C231.218 17.6377 231.254 17.6313 231.287 17.6176C231.32 17.6038 231.349 17.5828 231.374 17.5562C231.421 17.5029 231.447 17.433 231.445 17.361C231.448 17.2874 231.422 17.2157 231.374 17.1607C231.349 17.1343 231.32 17.1134 231.287 17.0998C231.254 17.0861 231.218 17.0798 231.182 17.0815H230.887V17.6361H231.182Z" fill="white"/>
</svg>
