<svg width="153" height="107" viewBox="0 0 153 107" fill="none" xmlns="http://www.w3.org/2000/svg">
<g clip-path="url(#clip0)">
<path d="M109.884 79.0406H153L80.2424 -0.000854492V65.867H72.7571V-0.000854492L-0.000488281 79.0406H43.4146V65.5678H31.4382L58.9843 38.0214V79.0387H94.3168V38.0214L121.559 65.5678H109.884V79.0406Z" fill="#15BEA0"/>
<path d="M7.62118 103.051L5.9998 98.8496C5.95181 98.7242 5.90131 98.5788 5.8483 98.4135C5.79529 98.2482 5.74478 98.0716 5.69679 97.8837C5.61466 98.2144 5.51109 98.5394 5.38673 98.8567L3.76535 103.051H7.62118ZM10.5322 106.884H9.45006C9.34131 106.889 9.23424 106.856 9.14752 106.79C9.07022 106.727 9.01056 106.645 8.97438 106.552L8.00889 104.059H3.37764L2.41215 106.552C2.38006 106.643 2.32259 106.723 2.24653 106.783C2.1609 106.851 2.05362 106.887 1.94399 106.884H0.861816L4.99103 96.5579H6.40256L10.5322 106.884ZM18.6175 98.1726C18.582 98.2358 18.534 98.291 18.4764 98.3349C18.4224 98.3721 18.3579 98.391 18.2924 98.389C18.1859 98.3792 18.085 98.3365 18.004 98.2667C17.8935 98.1851 17.7554 98.0951 17.5894 97.9966C17.3995 97.8872 17.1992 97.7967 16.9914 97.7266C16.7179 97.6388 16.4317 97.5975 16.1445 97.6042C15.8642 97.5992 15.5852 97.6418 15.3192 97.7303C15.0994 97.804 14.8962 97.9202 14.7212 98.0724C14.5634 98.2123 14.439 98.386 14.3575 98.5805C14.2749 98.7803 14.2333 98.9947 14.2352 99.211C14.2254 99.4668 14.3001 99.7188 14.4478 99.928C14.6 100.127 14.7914 100.292 15.0101 100.414C15.2619 100.557 15.5276 100.674 15.8029 100.764C16.0984 100.863 16.4011 100.965 16.711 101.07C17.0209 101.176 17.3236 101.295 17.6191 101.427C17.9065 101.554 18.1737 101.723 18.4119 101.928C18.6483 102.134 18.8397 102.386 18.9742 102.669C19.1257 103.01 19.1984 103.379 19.1868 103.752C19.1898 104.186 19.1116 104.617 18.9563 105.022C18.8077 105.411 18.578 105.764 18.2825 106.057C17.9713 106.36 17.6008 106.595 17.1942 106.749C16.7254 106.924 16.228 107.009 15.7276 107.001C15.0987 107.01 14.4751 106.886 13.8973 106.637C13.3675 106.407 12.8895 106.072 12.4919 105.653L12.8956 104.99C12.9341 104.938 12.9819 104.893 13.0368 104.857C13.0914 104.821 13.1554 104.803 13.2207 104.803C13.2973 104.808 13.371 104.834 13.4334 104.879C13.5128 104.929 13.6028 104.993 13.7035 105.07C13.8042 105.147 13.9195 105.231 14.0493 105.322C14.1892 105.419 14.3376 105.504 14.4925 105.574C14.6739 105.657 14.8631 105.721 15.0571 105.765C15.2912 105.818 15.5305 105.844 15.7704 105.841C16.0715 105.846 16.3713 105.8 16.6569 105.704C16.9005 105.622 17.1247 105.491 17.3156 105.319C17.4956 105.153 17.6372 104.95 17.7301 104.724C17.8289 104.479 17.8778 104.217 17.8741 103.953C17.8856 103.681 17.8112 103.413 17.6614 103.186C17.5133 102.981 17.3229 102.81 17.1029 102.685C16.8522 102.542 16.5863 102.427 16.3101 102.343C16.0121 102.249 15.7094 102.153 15.402 102.055C15.0938 101.956 14.7907 101.842 14.4939 101.713C14.2043 101.588 13.9366 101.418 13.7011 101.208C13.4632 100.992 13.273 100.728 13.1426 100.434C12.9905 100.07 12.9179 99.6783 12.93 99.2843C12.9297 98.9207 13.002 98.5607 13.1426 98.2253C13.2849 97.8834 13.4958 97.5743 13.7623 97.3173C14.0511 97.0419 14.3916 96.8264 14.764 96.683C15.1996 96.5176 15.6627 96.437 16.1285 96.4454C16.6657 96.4385 17.1995 96.5314 17.7028 96.7193C18.1685 96.897 18.5936 97.1666 18.953 97.512L18.6175 98.1726ZM29.8444 104.751C29.8828 104.752 29.9208 104.76 29.9556 104.776C29.9904 104.793 30.0214 104.816 30.0462 104.845L30.601 105.443C30.1782 105.933 29.653 106.325 29.0624 106.589C28.371 106.88 27.6254 107.02 26.8755 107C26.1838 107.009 25.4974 106.878 24.8579 106.615C24.2697 106.369 23.7413 106 23.3085 105.532C22.8686 105.048 22.5304 104.481 22.3138 103.864C22.072 103.177 21.9526 102.452 21.961 101.724C21.9525 100.994 22.077 100.269 22.3284 99.5836C22.5569 98.9621 22.9091 98.3935 23.3636 97.9119C23.8136 97.4431 24.3574 97.0744 24.9595 96.8298C25.6119 96.5667 26.31 96.4357 27.0133 96.4445C27.6789 96.4315 28.3403 96.5515 28.9589 96.7974C29.5077 97.0242 30.0107 97.3489 30.4433 97.7557L29.9822 98.397C29.9542 98.4444 29.9162 98.485 29.8707 98.516C29.8156 98.55 29.7514 98.5664 29.6868 98.5631C29.569 98.5501 29.4582 98.5007 29.3696 98.422C29.2128 98.3077 29.0493 98.2031 28.8798 98.1086C28.6397 97.9772 28.386 97.8722 28.1233 97.7953C27.7599 97.6933 27.3835 97.6458 27.0063 97.6541C26.505 97.648 26.0076 97.7424 25.5434 97.9317C25.108 98.112 24.7179 98.3864 24.401 98.7353C24.0686 99.1082 23.8149 99.5444 23.6553 100.018C23.4702 100.568 23.3799 101.145 23.3885 101.726C23.379 102.312 23.473 102.894 23.6661 103.448C23.8317 103.92 24.0889 104.354 24.4227 104.726C24.7366 105.071 25.122 105.343 25.5519 105.523C25.9984 105.707 26.4774 105.8 26.9606 105.796C27.239 105.798 27.5172 105.78 27.793 105.742C28.0264 105.71 28.2558 105.653 28.4775 105.573C28.6826 105.498 28.8785 105.4 29.0615 105.281C29.2517 105.155 29.4313 105.013 29.5983 104.858C29.6644 104.793 29.7523 104.755 29.8449 104.751H29.8444ZM40.0338 105.746L40.0267 106.885H33.6635V96.5584H40.0267V97.6969H35.0619V101.127H39.0829V102.222H35.0619V105.746L40.0338 105.746ZM51.7933 96.5584V106.884H51.0941C50.9983 106.887 50.9031 106.867 50.8165 106.826C50.7303 106.778 50.6554 106.711 50.5968 106.631L44.6213 98.8492C44.631 98.9693 44.6382 99.0869 44.6429 99.202C44.6476 99.3171 44.65 99.4252 44.65 99.5262V106.884H43.4266V96.5584H44.1475C44.2005 96.5577 44.2535 96.5613 44.306 96.5692C44.346 96.5754 44.3849 96.5876 44.4213 96.6054C44.4581 96.6245 44.492 96.6488 44.522 96.6774C44.5609 96.7144 44.5971 96.7542 44.6302 96.7964L50.6057 104.571C50.596 104.446 50.5875 104.324 50.5803 104.208C50.5731 104.091 50.5695 103.979 50.5695 103.873V96.5584H51.7933ZM61.1565 98.1726C61.121 98.2358 61.0729 98.291 61.0153 98.3349C60.9613 98.3721 60.8968 98.391 60.8313 98.389C60.7248 98.3792 60.624 98.3365 60.5429 98.2667C60.4325 98.1851 60.2943 98.0951 60.1284 97.9966C59.9384 97.8872 59.7381 97.7967 59.5304 97.7266C59.2569 97.6388 58.9706 97.5975 58.6834 97.6042C58.4032 97.5992 58.1241 97.6418 57.8582 97.7303C57.6383 97.804 57.4351 97.9202 57.2601 98.0724C57.1023 98.2123 56.978 98.386 56.8964 98.5805C56.8138 98.7803 56.7722 98.9947 56.7741 99.211C56.7643 99.4668 56.839 99.7188 56.9868 99.928C57.139 100.127 57.3303 100.292 57.549 100.414C57.8009 100.557 58.0665 100.674 58.3419 100.764C58.6373 100.863 58.94 100.965 59.2499 101.07C59.5598 101.176 59.8625 101.295 60.158 101.427C60.4455 101.554 60.7126 101.723 60.9508 101.928C61.1872 102.134 61.3786 102.386 61.5131 102.669C61.6646 103.01 61.7373 103.379 61.7258 103.752C61.7287 104.186 61.6505 104.617 61.4952 105.022C61.3467 105.411 61.117 105.764 60.8214 106.057C60.5102 106.36 60.1397 106.595 59.7332 106.749C59.2644 106.924 58.7669 107.009 58.2666 107.001C57.6377 107.01 57.014 106.886 56.4363 106.637C55.9064 106.407 55.4284 106.072 55.0309 105.653L55.4346 104.99C55.473 104.938 55.5209 104.893 55.5757 104.857C55.6303 104.821 55.6944 104.803 55.7597 104.803C55.8363 104.808 55.91 104.834 55.9724 104.879C56.0517 104.929 56.1417 104.993 56.2424 105.07C56.3431 105.147 56.4584 105.231 56.5883 105.322C56.7282 105.419 56.8765 105.504 57.0315 105.574C57.2129 105.657 57.402 105.721 57.5961 105.765C57.8301 105.818 58.0695 105.844 58.3094 105.841C58.6104 105.845 58.91 105.799 59.1954 105.703C59.4389 105.621 59.6631 105.49 59.8541 105.318C60.0341 105.152 60.1756 104.949 60.2686 104.723C60.3674 104.478 60.4163 104.216 60.4126 103.952C60.4241 103.68 60.3497 103.412 60.1999 103.185C60.0518 102.98 59.8613 102.809 59.6414 102.684C59.3907 102.541 59.1248 102.426 58.8486 102.342C58.5506 102.248 58.2479 102.152 57.9405 102.054C57.6323 101.955 57.3292 101.841 57.0324 101.712C56.7428 101.587 56.4751 101.417 56.2396 101.207C56.0021 100.991 55.8123 100.727 55.682 100.434C55.5299 100.07 55.4574 99.6783 55.4694 99.2843C55.4692 98.9207 55.5415 98.5607 55.682 98.2253C55.8243 97.8834 56.0352 97.5743 56.3017 97.3173C56.5905 97.0419 56.931 96.8264 57.3034 96.683C57.739 96.5176 58.2021 96.437 58.6679 96.4454C59.2051 96.4385 59.7389 96.5314 60.2422 96.7193C60.7079 96.897 61.133 97.1666 61.4924 97.512L61.1565 98.1726ZM66.5311 106.884H65.1332V96.5584H66.5311V106.884ZM79.0048 96.5584L74.7966 106.884H73.5427L69.3344 96.5584H70.4514C70.5602 96.5533 70.6672 96.5866 70.7539 96.6525C70.8312 96.7153 70.8909 96.7972 70.9271 96.8901L73.8382 104.175C73.9009 104.338 73.9622 104.516 74.0221 104.708C74.082 104.9 74.1361 105.102 74.1844 105.313C74.2324 105.102 74.2829 104.9 74.3359 104.708C74.389 104.516 74.4467 104.338 74.5091 104.175L77.4131 96.8901C77.4478 96.8004 77.5064 96.722 77.5825 96.6633C77.6687 96.5929 77.7775 96.5558 77.8888 96.5588L79.0048 96.5584ZM88.1779 105.746L88.1709 106.884H81.8081V96.5584H88.1709V97.6969H83.206V101.127H87.227V102.222H83.206V105.746H88.1779ZM101.704 103.051L100.082 98.8496C100.034 98.7242 99.9838 98.5788 99.9308 98.4135C99.8778 98.2482 99.8273 98.0716 99.7793 97.8837C99.6972 98.2144 99.5936 98.5394 99.4693 98.8567L97.8479 103.051H101.704ZM104.615 106.884H103.533C103.424 106.889 103.317 106.856 103.231 106.79C103.153 106.727 103.094 106.645 103.057 106.552L102.091 104.059H97.4597L96.4919 106.553C96.4598 106.644 96.4023 106.724 96.3262 106.783C96.2406 106.852 96.1333 106.888 96.0237 106.884H94.9415L99.0707 96.5584H100.482L104.615 106.884ZM112.701 98.1726C112.665 98.2358 112.617 98.291 112.559 98.3349C112.505 98.3721 112.441 98.391 112.375 98.389C112.269 98.3792 112.168 98.3365 112.087 98.2667C111.977 98.1851 111.838 98.0951 111.672 97.9966C111.482 97.8872 111.282 97.7967 111.074 97.7266C110.801 97.6388 110.515 97.5975 110.228 97.6042C109.947 97.5992 109.668 97.6418 109.402 97.7303C109.182 97.804 108.979 97.9202 108.804 98.0724C108.646 98.2123 108.522 98.386 108.44 98.5805C108.358 98.7803 108.316 98.9947 108.318 99.211C108.308 99.4668 108.383 99.7188 108.531 99.928C108.683 100.127 108.874 100.292 109.093 100.414C109.345 100.557 109.611 100.674 109.886 100.764C110.181 100.863 110.484 100.965 110.794 101.07C111.104 101.176 111.407 101.295 111.702 101.427C111.99 101.554 112.257 101.723 112.495 101.928C112.731 102.134 112.923 102.386 113.057 102.669C113.209 103.01 113.281 103.379 113.27 103.752C113.273 104.186 113.195 104.617 113.039 105.022C112.891 105.411 112.661 105.764 112.366 106.057C112.054 106.36 111.684 106.595 111.277 106.749C110.808 106.924 110.311 107.009 109.811 107.001C109.182 107.01 108.558 106.886 107.98 106.637C107.45 106.407 106.972 106.072 106.575 105.653L106.979 104.99C107.017 104.938 107.065 104.893 107.12 104.857C107.174 104.821 107.238 104.803 107.304 104.803C107.38 104.808 107.454 104.834 107.516 104.879C107.596 104.929 107.686 104.993 107.786 105.07C107.887 105.147 108.002 105.231 108.132 105.322C108.272 105.419 108.421 105.504 108.576 105.574C108.757 105.657 108.946 105.721 109.14 105.765C109.374 105.818 109.614 105.844 109.853 105.841C110.155 105.846 110.455 105.799 110.74 105.703C110.984 105.621 111.208 105.49 111.399 105.318C111.579 105.152 111.721 104.949 111.814 104.723C111.912 104.478 111.961 104.216 111.958 103.952C111.969 103.68 111.895 103.412 111.745 103.185C111.597 102.98 111.406 102.809 111.186 102.684C110.936 102.541 110.67 102.426 110.394 102.342C110.096 102.248 109.793 102.152 109.486 102.054C109.177 101.955 108.874 101.841 108.577 101.712C108.288 101.587 108.02 101.416 107.784 101.206C107.547 100.99 107.358 100.727 107.228 100.434C107.075 100.07 107.003 99.6783 107.015 99.2843C107.015 98.9207 107.087 98.5607 107.228 98.2253C107.37 97.8834 107.581 97.5743 107.847 97.3173C108.136 97.0419 108.476 96.8264 108.849 96.683C109.284 96.5176 109.748 96.437 110.213 96.4454C110.751 96.4385 111.284 96.5314 111.788 96.7193C112.253 96.897 112.679 97.1666 113.038 97.512L112.701 98.1726ZM121.96 98.1726C121.925 98.2358 121.877 98.291 121.819 98.3349C121.765 98.3721 121.701 98.391 121.635 98.389C121.529 98.3792 121.428 98.3365 121.347 98.2667C121.236 98.1851 121.098 98.0951 120.932 97.9966C120.742 97.8872 120.542 97.7967 120.334 97.7266C120.061 97.6388 119.774 97.5975 119.487 97.6042C119.207 97.5992 118.928 97.6418 118.662 97.7303C118.442 97.804 118.239 97.9202 118.064 98.0724C117.906 98.2123 117.782 98.386 117.7 98.5805C117.618 98.7803 117.576 98.9947 117.578 99.211C117.568 99.4668 117.643 99.7188 117.791 99.928C117.943 100.127 118.134 100.292 118.353 100.414C118.605 100.557 118.87 100.674 119.146 100.764C119.441 100.863 119.744 100.965 120.054 101.07C120.364 101.176 120.666 101.295 120.962 101.427C121.249 101.554 121.516 101.723 121.755 101.928C121.991 102.134 122.182 102.386 122.317 102.669C122.468 103.01 122.541 103.379 122.529 103.752C122.532 104.186 122.454 104.617 122.299 105.022C122.15 105.411 121.921 105.764 121.625 106.057C121.313 106.36 120.942 106.595 120.535 106.747C120.066 106.922 119.569 107.008 119.068 106.999C118.44 107.008 117.816 106.884 117.238 106.636C116.708 106.406 116.23 106.071 115.833 105.652L116.236 104.989C116.275 104.936 116.323 104.891 116.378 104.856C116.432 104.82 116.496 104.801 116.562 104.802C116.638 104.806 116.712 104.833 116.774 104.877C116.854 104.928 116.944 104.992 117.044 105.068C117.145 105.145 117.26 105.229 117.39 105.321C117.53 105.418 117.678 105.502 117.833 105.573C118.015 105.655 118.204 105.719 118.398 105.764C118.632 105.817 118.871 105.842 119.111 105.84C119.413 105.845 119.714 105.799 120 105.703C120.244 105.621 120.468 105.49 120.659 105.318C120.839 105.152 120.981 104.949 121.074 104.723C121.173 104.478 121.221 104.216 121.218 103.952C121.229 103.68 121.155 103.412 121.005 103.185C120.857 102.98 120.666 102.809 120.447 102.684C120.196 102.541 119.93 102.426 119.654 102.342C119.356 102.248 119.053 102.152 118.746 102.054C118.437 101.955 118.134 101.841 117.838 101.712C117.548 101.587 117.28 101.417 117.045 101.207C116.808 100.991 116.618 100.727 116.489 100.434C116.336 100.07 116.264 99.6783 116.276 99.2843C116.275 98.9198 116.348 98.5587 116.489 98.2225C116.631 97.8806 116.842 97.5715 117.108 97.3144C117.397 97.0391 117.738 96.8235 118.11 96.6802C118.546 96.5148 119.009 96.4342 119.474 96.4426C120.012 96.4357 120.545 96.5286 121.049 96.7164C121.514 96.8942 121.94 97.1638 122.299 97.5092L121.96 98.1726ZM132.308 105.746L132.301 106.884H125.938V96.5584H132.301V97.6969H127.336V101.127H131.357V102.222H127.336V105.746H132.308ZM142.685 97.7327H139.341V106.884H137.951V97.7327H134.6V96.5565H142.685L142.685 97.7327ZM150.892 98.1721C150.857 98.2353 150.809 98.2905 150.751 98.3344C150.697 98.3716 150.633 98.3906 150.567 98.3885C150.461 98.3788 150.36 98.336 150.279 98.2662C150.168 98.1847 150.03 98.0946 149.864 97.9962C149.674 97.8867 149.474 97.7962 149.266 97.7261C148.993 97.6384 148.707 97.597 148.419 97.6038C148.139 97.5987 147.86 97.6413 147.594 97.7299C147.374 97.8035 147.171 97.9198 146.996 98.0719C146.838 98.2118 146.714 98.3855 146.632 98.58C146.55 98.7799 146.508 98.9943 146.51 99.2105C146.5 99.4664 146.575 99.7183 146.723 99.9275C146.875 100.126 147.066 100.292 147.285 100.414C147.537 100.557 147.802 100.674 148.078 100.764C148.373 100.862 148.676 100.964 148.986 101.07C149.296 101.176 149.598 101.294 149.894 101.426C150.181 101.553 150.449 101.722 150.687 101.927C150.923 102.133 151.115 102.386 151.249 102.669C151.401 103.009 151.473 103.379 151.462 103.751C151.465 104.185 151.386 104.616 151.231 105.021C151.083 105.41 150.853 105.763 150.557 106.057C150.247 106.359 149.877 106.594 149.471 106.747C149.003 106.922 148.505 107.008 148.005 106.999C147.376 107.008 146.752 106.884 146.175 106.636C145.644 106.406 145.165 106.071 144.766 105.652L145.17 104.989C145.209 104.936 145.256 104.891 145.311 104.856C145.366 104.82 145.43 104.801 145.495 104.802C145.572 104.806 145.645 104.833 145.708 104.877C145.787 104.928 145.877 104.992 145.978 105.068C146.079 105.145 146.194 105.229 146.324 105.321C146.464 105.418 146.612 105.502 146.767 105.573C146.948 105.655 147.137 105.719 147.332 105.764C147.566 105.817 147.805 105.842 148.045 105.84C148.346 105.844 148.646 105.798 148.931 105.703C149.175 105.621 149.399 105.489 149.59 105.317C149.77 105.152 149.912 104.949 150.005 104.723C150.103 104.478 150.152 104.216 150.149 103.952C150.16 103.68 150.086 103.411 149.936 103.184C149.788 102.979 149.597 102.808 149.377 102.684C149.127 102.54 148.861 102.426 148.585 102.342C148.287 102.247 147.984 102.151 147.676 102.053C147.368 101.954 147.065 101.84 146.768 101.711C146.479 101.587 146.211 101.416 145.976 101.207C145.738 100.99 145.547 100.726 145.417 100.432C145.265 100.069 145.192 99.6769 145.204 99.2829C145.204 98.9193 145.276 98.5592 145.417 98.2239C145.559 97.882 145.77 97.5729 146.037 97.3158C146.326 97.0405 146.666 96.8249 147.038 96.6816C147.474 96.5162 147.937 96.4356 148.403 96.444C148.94 96.4371 149.474 96.53 149.977 96.7179C150.443 96.8956 150.868 97.1652 151.227 97.5106L150.892 98.1721Z" fill="#EEEEEE"/>
</g>
<defs>
<clipPath id="clip0">
<rect width="153" height="107" fill="white"/>
</clipPath>
</defs>
</svg>
