<svg width="145" height="67" viewBox="0 0 145 67" fill="none" xmlns="http://www.w3.org/2000/svg">
<path d="M69.3609 44.9644H86.7011V49.2822H65.0259V16.5266H86.7011V20.8444H69.3609V44.9644ZM86.7011 20.8444V44.9644H91.0362V20.8444H86.7011Z" fill="white"/>
<path d="M96.2681 21.1422H100.603V29.48H113.608V33.7978H100.603V44.9645H96.2681V21.1422V21.1422ZM113.608 16.8245V21.1422H100.603V16.8245H113.608ZM100.603 44.9645H113.608V49.2822H100.603V44.9645ZM113.608 25.3111V20.9934H117.943V25.3111H113.608ZM113.608 44.9645V33.7978H117.943V44.9645H113.608Z" fill="white"/>
<path d="M136.33 16.8245H140.665V38.4134H145V42.7311H140.665V49.4311H136.33V42.7311H123.325V34.0956H127.66V38.4134H136.33V25.3111H131.995V20.9934H136.33V16.8245V16.8245ZM131.995 33.9467H127.66V25.3111H131.995V33.9467Z" fill="white"/>
<path d="M9.56701 60.3L0 54.7912V11.0178L13.0052 14.74L9.56701 60.3Z" fill="#7452FF"/>
<path d="M37.9692 43.7733L41.8558 19.8022L16.8918 6.84888L18.9846 22.0355L28.4022 27.5444V38.4133L30.7939 43.0289L37.9692 43.7733Z" fill="#FF9CFF"/>
<path d="M9.56689 60.3L19.1339 54.7912V11.0178L9.56689 14.2934V60.3Z" fill="#4E2BE0"/>
<path d="M18.9845 11.0177L9.41753 16.5266L0 11.0177L9.56701 5.50879L17.0412 5.95546L18.9845 11.0177Z" fill="#5D35FF"/>
<path d="M23.0205 52.4089L18.9844 65.66L9.56689 60.1511V49.2822L23.0205 52.4089Z" fill="#7AFFDE"/>
<path d="M37.969 43.7733L31.9896 51.5155L18.9845 54.6422L9.41748 49.1333L28.402 38.4133L37.969 43.7733Z" fill="#35FFCE"/>
<path d="M47.5361 49.2823L19.134 65.6601V54.7912L38.1186 43.9223L42.3041 35.7334L47.6856 38.4134L47.5361 49.2823Z" fill="#00E3AB"/>
<path d="M47.3865 38.4133L37.969 43.9222V22.0355L40.2113 16.5266H47.536L47.3865 38.4133Z" fill="#E048E0"/>
<path d="M47.536 16.5267L37.969 22.0356L9.56689 5.65781L19.1339 0.148926L47.536 16.5267Z" fill="#FF70FF"/>
</svg>
