<svg width="217" height="27" viewBox="0 0 217 27" fill="none" xmlns="http://www.w3.org/2000/svg">
<path d="M9.07734 0.799998C11.1653 0.799998 13.0133 1.16 14.6213 1.88C16.2533 2.6 17.6213 3.548 18.7253 4.724C19.8533 5.9 20.7053 7.244 21.2813 8.756C21.8573 10.268 22.1453 11.816 22.1453 13.4C22.1453 14.984 21.8573 16.532 21.2813 18.044C20.7053 19.556 19.8533 20.9 18.7253 22.076C17.6213 23.252 16.2533 24.2 14.6213 24.92C13.0133 25.64 11.1653 26 9.07734 26H0.905344V0.799998H9.07734ZM5.04534 4.508V22.292H9.07734C10.4693 22.292 11.7173 22.04 12.8213 21.536C13.9253 21.032 14.8493 20.372 15.5933 19.556C16.3373 18.716 16.9013 17.768 17.2853 16.712C17.6933 15.632 17.8973 14.528 17.8973 13.4C17.8973 12.272 17.6933 11.18 17.2853 10.124C16.9013 9.044 16.3373 8.096 15.5933 7.28C14.8493 6.44 13.9253 5.768 12.8213 5.264C11.7173 4.76 10.4693 4.508 9.07734 4.508H5.04534ZM33.1315 11.744C31.9075 11.744 30.8875 12.092 30.0715 12.788C29.2555 13.484 28.8475 14.516 28.8475 15.884H37.1995C37.1995 14.588 36.8155 13.58 36.0475 12.86C35.3035 12.116 34.3315 11.744 33.1315 11.744ZM28.8475 18.8C28.8955 19.4 29.0035 19.964 29.1715 20.492C29.3395 21.02 29.5915 21.488 29.9275 21.896C30.2875 22.28 30.7435 22.592 31.2955 22.832C31.8475 23.048 32.5315 23.156 33.3475 23.156C34.4755 23.156 35.2915 22.94 35.7955 22.508C36.2995 22.076 36.6715 21.56 36.9115 20.96H40.8715C40.7515 21.68 40.4875 22.376 40.0795 23.048C39.6955 23.696 39.1795 24.272 38.5315 24.776C37.8835 25.28 37.1275 25.688 36.2635 26C35.3995 26.288 34.4275 26.432 33.3475 26.432C31.9315 26.432 30.6955 26.204 29.6395 25.748C28.6075 25.292 27.7435 24.668 27.0475 23.876C26.3515 23.084 25.8235 22.148 25.4635 21.068C25.1275 19.988 24.9595 18.836 24.9595 17.612C24.9595 16.364 25.1395 15.2 25.4995 14.12C25.8835 13.04 26.4235 12.104 27.1195 11.312C27.8155 10.52 28.6795 9.908 29.7115 9.476C30.7435 9.02 31.9195 8.792 33.2395 8.792C34.3195 8.792 35.3275 8.984 36.2635 9.368C37.2235 9.752 38.0515 10.292 38.7475 10.988C39.4675 11.66 40.0195 12.452 40.4035 13.364C40.8115 14.276 41.0155 15.272 41.0155 16.352C41.0155 16.64 41.0035 16.988 40.9795 17.396C40.9795 17.78 40.9315 18.248 40.8355 18.8H28.8475ZM56.4685 15.344C56.3485 14.432 55.9885 13.7 55.3885 13.148C54.8125 12.572 53.8525 12.284 52.5085 12.284C51.7405 12.284 51.0805 12.428 50.5285 12.716C49.9765 13.004 49.5085 13.4 49.1245 13.904C48.7405 14.384 48.4525 14.948 48.2605 15.596C48.0925 16.22 48.0085 16.892 48.0085 17.612C48.0085 18.332 48.0925 19.016 48.2605 19.664C48.4525 20.312 48.7405 20.876 49.1245 21.356C49.5085 21.836 50.0005 22.22 50.6005 22.508C51.2005 22.796 51.9205 22.94 52.7605 22.94C53.9125 22.94 54.7525 22.7 55.2805 22.22C55.8325 21.74 56.2405 21.08 56.5045 20.24H60.4285C60.2845 21.104 60.0205 21.92 59.6365 22.688C59.2525 23.432 58.7245 24.092 58.0525 24.668C57.4045 25.22 56.6125 25.652 55.6765 25.964C54.7645 26.276 53.6965 26.432 52.4725 26.432C51.1045 26.432 49.8925 26.192 48.8365 25.712C47.8045 25.208 46.9285 24.548 46.2085 23.732C45.5125 22.916 44.9845 21.98 44.6245 20.924C44.2645 19.868 44.0845 18.764 44.0845 17.612C44.0845 16.484 44.2645 15.392 44.6245 14.336C44.9845 13.256 45.5125 12.308 46.2085 11.492C46.9285 10.676 47.8045 10.028 48.8365 9.548C49.8685 9.044 51.0685 8.792 52.4365 8.792C53.8045 8.792 54.9685 8.984 55.9285 9.368C56.9125 9.752 57.7165 10.256 58.3405 10.88C58.9885 11.48 59.4685 12.176 59.7805 12.968C60.1165 13.736 60.3205 14.528 60.3925 15.344H56.4685ZM71.3112 11.744C70.0872 11.744 69.0672 12.092 68.2512 12.788C67.4352 13.484 67.0272 14.516 67.0272 15.884H75.3792C75.3792 14.588 74.9952 13.58 74.2272 12.86C73.4832 12.116 72.5112 11.744 71.3112 11.744ZM67.0272 18.8C67.0752 19.4 67.1832 19.964 67.3512 20.492C67.5192 21.02 67.7712 21.488 68.1072 21.896C68.4672 22.28 68.9232 22.592 69.4752 22.832C70.0272 23.048 70.7112 23.156 71.5272 23.156C72.6552 23.156 73.4712 22.94 73.9752 22.508C74.4792 22.076 74.8512 21.56 75.0912 20.96H79.0512C78.9312 21.68 78.6672 22.376 78.2592 23.048C77.8752 23.696 77.3592 24.272 76.7112 24.776C76.0632 25.28 75.3072 25.688 74.4432 26C73.5792 26.288 72.6072 26.432 71.5272 26.432C70.1112 26.432 68.8752 26.204 67.8192 25.748C66.7872 25.292 65.9232 24.668 65.2272 23.876C64.5312 23.084 64.0032 22.148 63.6432 21.068C63.3072 19.988 63.1392 18.836 63.1392 17.612C63.1392 16.364 63.3192 15.2 63.6792 14.12C64.0632 13.04 64.6032 12.104 65.2992 11.312C65.9952 10.52 66.8592 9.908 67.8912 9.476C68.9232 9.02 70.0992 8.792 71.4192 8.792C72.4992 8.792 73.5072 8.984 74.4432 9.368C75.4032 9.752 76.2312 10.292 76.9272 10.988C77.6472 11.66 78.1992 12.452 78.5832 13.364C78.9912 14.276 79.1952 15.272 79.1952 16.352C79.1952 16.64 79.1832 16.988 79.1592 17.396C79.1592 17.78 79.1112 18.248 79.0152 18.8H67.0272ZM83.4522 9.224H87.3762V11.564C87.9042 10.652 88.6362 9.968 89.5722 9.512C90.5082 9.032 91.6002 8.792 92.8482 8.792C94.0722 8.792 95.0922 8.996 95.9082 9.404C96.7482 9.812 97.4082 10.364 97.8882 11.06C98.2962 11.684 98.5722 12.38 98.7162 13.148C98.8842 13.916 98.9682 14.876 98.9682 16.028V26H95.0442V17.324C95.0442 16.604 94.9842 15.932 94.8642 15.308C94.7442 14.684 94.5402 14.156 94.2522 13.724C93.9882 13.268 93.6162 12.908 93.1362 12.644C92.6802 12.38 92.1042 12.248 91.4082 12.248C90.0402 12.248 89.0202 12.74 88.3482 13.724C87.7002 14.684 87.3762 15.884 87.3762 17.324V26H83.4522V9.224ZM113.236 26C112.924 26.048 112.504 26.096 111.976 26.144C111.448 26.192 110.896 26.216 110.32 26.216C109.84 26.216 109.288 26.168 108.664 26.072C108.04 26 107.44 25.772 106.864 25.388C106.312 25.004 105.844 24.416 105.46 23.624C105.076 22.832 104.884 21.728 104.884 20.312V12.5H102.04V9.224H104.884V4.148H108.808V9.224H112.66V12.5H108.808V19.412C108.808 20.132 108.856 20.708 108.952 21.14C109.072 21.572 109.24 21.908 109.456 22.148C109.672 22.364 109.924 22.508 110.212 22.58C110.524 22.652 110.872 22.688 111.256 22.688C111.568 22.688 111.928 22.676 112.336 22.652C112.744 22.628 113.044 22.592 113.236 22.544V26ZM127.225 12.86C126.913 12.788 126.649 12.74 126.433 12.716C126.241 12.692 125.989 12.68 125.677 12.68C123.997 12.68 122.713 13.172 121.825 14.156C120.937 15.116 120.493 16.652 120.493 18.764V26H116.569V9.224H120.493V11.924C120.685 11.54 120.949 11.18 121.285 10.844C121.645 10.484 122.053 10.172 122.509 9.908C122.989 9.62 123.493 9.404 124.021 9.26C124.573 9.092 125.125 9.008 125.677 9.008C126.301 9.008 126.817 9.092 127.225 9.26V12.86ZM146.1 9.224V26H142.176V23.732C141.648 24.572 140.892 25.232 139.908 25.712C138.948 26.192 137.976 26.432 136.992 26.432C135.72 26.432 134.556 26.204 133.5 25.748C132.444 25.268 131.532 24.62 130.764 23.804C130.02 22.988 129.432 22.052 129 20.996C128.592 19.94 128.388 18.812 128.388 17.612C128.388 16.436 128.592 15.32 129 14.264C129.432 13.184 130.02 12.236 130.764 11.42C131.532 10.604 132.444 9.968 133.5 9.512C134.556 9.032 135.72 8.792 136.992 8.792C137.976 8.792 138.948 9.032 139.908 9.512C140.892 9.992 141.648 10.652 142.176 11.492V9.224H146.1ZM137.208 22.94C137.952 22.94 138.624 22.796 139.224 22.508C139.848 22.22 140.376 21.836 140.808 21.356C141.24 20.876 141.576 20.312 141.816 19.664C142.056 19.016 142.176 18.332 142.176 17.612C142.176 16.892 142.056 16.208 141.816 15.56C141.576 14.912 141.24 14.348 140.808 13.868C140.376 13.388 139.848 13.004 139.224 12.716C138.624 12.428 137.952 12.284 137.208 12.284C136.464 12.284 135.792 12.428 135.192 12.716C134.592 13.004 134.076 13.388 133.644 13.868C133.212 14.348 132.876 14.912 132.636 15.56C132.42 16.208 132.312 16.892 132.312 17.612C132.312 18.332 132.42 19.016 132.636 19.664C132.876 20.312 133.212 20.876 133.644 21.356C134.076 21.836 134.592 22.22 135.192 22.508C135.792 22.796 136.464 22.94 137.208 22.94ZM151.339 0.799998H155.263V26H151.339V0.799998ZM176.967 9.224V26H173.043V23.732C172.515 24.572 171.759 25.232 170.775 25.712C169.815 26.192 168.843 26.432 167.859 26.432C166.587 26.432 165.423 26.204 164.367 25.748C163.311 25.268 162.399 24.62 161.631 23.804C160.887 22.988 160.299 22.052 159.867 20.996C159.459 19.94 159.255 18.812 159.255 17.612C159.255 16.436 159.459 15.32 159.867 14.264C160.299 13.184 160.887 12.236 161.631 11.42C162.399 10.604 163.311 9.968 164.367 9.512C165.423 9.032 166.587 8.792 167.859 8.792C168.843 8.792 169.815 9.032 170.775 9.512C171.759 9.992 172.515 10.652 173.043 11.492V9.224H176.967ZM168.075 22.94C168.819 22.94 169.491 22.796 170.091 22.508C170.715 22.22 171.243 21.836 171.675 21.356C172.107 20.876 172.443 20.312 172.683 19.664C172.923 19.016 173.043 18.332 173.043 17.612C173.043 16.892 172.923 16.208 172.683 15.56C172.443 14.912 172.107 14.348 171.675 13.868C171.243 13.388 170.715 13.004 170.091 12.716C169.491 12.428 168.819 12.284 168.075 12.284C167.331 12.284 166.659 12.428 166.059 12.716C165.459 13.004 164.943 13.388 164.511 13.868C164.079 14.348 163.743 14.912 163.503 15.56C163.287 16.208 163.179 16.892 163.179 17.612C163.179 18.332 163.287 19.016 163.503 19.664C163.743 20.312 164.079 20.876 164.511 21.356C164.943 21.836 165.459 22.22 166.059 22.508C166.659 22.796 167.331 22.94 168.075 22.94ZM186.13 26H182.206V0.799998H186.13V11.492C186.658 10.652 187.402 9.992 188.362 9.512C189.346 9.032 190.33 8.792 191.314 8.792C192.586 8.792 193.75 9.032 194.806 9.512C195.862 9.968 196.762 10.604 197.506 11.42C198.274 12.236 198.862 13.184 199.27 14.264C199.702 15.32 199.918 16.436 199.918 17.612C199.918 18.812 199.702 19.94 199.27 20.996C198.862 22.052 198.274 22.988 197.506 23.804C196.762 24.62 195.862 25.268 194.806 25.748C193.75 26.204 192.586 26.432 191.314 26.432C190.33 26.432 189.346 26.192 188.362 25.712C187.402 25.232 186.658 24.572 186.13 23.732V26ZM191.098 22.94C191.842 22.94 192.514 22.796 193.114 22.508C193.714 22.22 194.23 21.836 194.662 21.356C195.094 20.876 195.418 20.312 195.634 19.664C195.874 19.016 195.994 18.332 195.994 17.612C195.994 16.892 195.874 16.208 195.634 15.56C195.418 14.912 195.094 14.348 194.662 13.868C194.23 13.388 193.714 13.004 193.114 12.716C192.514 12.428 191.842 12.284 191.098 12.284C190.33 12.284 189.634 12.428 189.01 12.716C188.41 13.004 187.894 13.388 187.462 13.868C187.03 14.348 186.694 14.912 186.454 15.56C186.238 16.208 186.13 16.892 186.13 17.612C186.13 18.332 186.238 19.016 186.454 19.664C186.694 20.312 187.03 20.876 187.462 21.356C187.894 21.836 188.41 22.22 189.01 22.508C189.634 22.796 190.33 22.94 191.098 22.94ZM211.635 16.532C212.211 16.748 212.775 16.976 213.327 17.216C213.879 17.456 214.371 17.756 214.803 18.116C215.235 18.476 215.571 18.908 215.811 19.412C216.075 19.916 216.207 20.552 216.207 21.32C216.207 22.184 216.027 22.94 215.667 23.588C215.331 24.236 214.851 24.776 214.227 25.208C213.627 25.616 212.919 25.916 212.103 26.108C211.287 26.324 210.423 26.432 209.511 26.432C208.599 26.432 207.735 26.3 206.919 26.036C206.103 25.772 205.371 25.388 204.723 24.884C204.099 24.356 203.595 23.72 203.211 22.976C202.851 22.208 202.671 21.332 202.671 20.348H206.487C206.487 21.452 206.787 22.232 207.387 22.688C208.011 23.12 208.791 23.336 209.727 23.336C210.495 23.336 211.143 23.192 211.671 22.904C212.199 22.616 212.463 22.112 212.463 21.392C212.463 21.008 212.355 20.696 212.139 20.456C211.923 20.216 211.599 20 211.167 19.808C210.735 19.592 210.195 19.376 209.547 19.16C208.899 18.944 208.131 18.668 207.243 18.332C206.667 18.116 206.127 17.888 205.623 17.648C205.143 17.384 204.723 17.084 204.363 16.748C204.003 16.412 203.727 15.992 203.535 15.488C203.343 14.984 203.247 14.372 203.247 13.652C203.247 12.86 203.415 12.164 203.751 11.564C204.087 10.964 204.543 10.46 205.119 10.052C205.695 9.62 206.355 9.308 207.099 9.116C207.867 8.9 208.683 8.792 209.547 8.792C210.435 8.792 211.263 8.936 212.031 9.224C212.823 9.512 213.507 9.908 214.083 10.412C214.659 10.916 215.115 11.516 215.451 12.212C215.787 12.908 215.955 13.664 215.955 14.48H212.139C212.139 13.688 211.923 13.064 211.491 12.608C211.083 12.128 210.399 11.888 209.439 11.888C208.767 11.888 208.191 12.044 207.711 12.356C207.255 12.668 207.027 13.124 207.027 13.724C207.027 14.084 207.123 14.384 207.315 14.624C207.507 14.84 207.795 15.044 208.179 15.236C208.563 15.404 209.043 15.596 209.619 15.812C210.195 16.004 210.867 16.244 211.635 16.532Z" fill="white"/>
</svg>
