<svg width="20" height="20" viewBox="0 0 20 20" fill="none" xmlns="http://www.w3.org/2000/svg">
<path d="M10 18.8018C15.0005 18.8018 19.1289 14.6733 19.1289 9.66357C19.1289 4.66309 14.9912 0.534668 9.99072 0.534668C4.99023 0.534668 0.861816 4.66309 0.861816 9.66357C0.861816 14.6733 4.99023 18.8018 10 18.8018ZM9.0166 14.0239C8.66406 14.0239 8.38574 13.8662 8.12598 13.5415L6.00146 10.981C5.83447 10.7676 5.75098 10.5542 5.75098 10.3223C5.75098 9.83984 6.13135 9.45947 6.61377 9.45947C6.90137 9.45947 7.12402 9.56152 7.34668 9.84912L8.98877 11.9087L12.5513 6.22168C12.7554 5.89697 13.0151 5.72998 13.312 5.72998C13.7759 5.72998 14.2026 6.06396 14.2026 6.54639C14.2026 6.75977 14.1099 6.98242 13.9707 7.18652L9.87012 13.5322C9.66602 13.8477 9.35986 14.0239 9.0166 14.0239Z" fill="#4CC9F0"/>
</svg>
