<svg width="22" height="23" viewBox="0 0 22 23" fill="none" xmlns="http://www.w3.org/2000/svg">
<path opacity="0.8" d="M8.43002 22.4824C9.08804 22.4824 9.59706 22.2038 9.95711 21.6592L21.6275 3.11685C21.8883 2.69889 22 2.34425 22 2.00228C22 1.10303 21.3792 0.482422 20.4853 0.482422C19.877 0.482422 19.5045 0.710401 19.1321 1.30568L8.36795 18.7208L2.84312 11.4888C2.47065 10.9948 2.08578 10.7922 1.5395 10.7922C0.645598 10.7922 0 11.4381 0 12.3247C0 12.7173 0.136569 13.0973 0.459368 13.4899L6.89052 21.6718C7.32506 22.2291 7.78442 22.4824 8.43002 22.4824Z" fill="#4CC9F0"/>
</svg>
