<svg width="48" height="48" viewBox="0 0 48 48" fill="none" xmlns="http://www.w3.org/2000/svg">
<rect opacity="0.9" x="6" y="5" width="36" height="36" rx="18" fill="#AA60A9"/>
<g clip-path="url(#clip0)" filter="url(#filter0_d)">
<path d="M14.5659 18.6628C14.5453 18.6835 14.5258 18.7051 14.5073 18.7277C14.499 18.7377 14.4918 18.7484 14.4841 18.7587C14.4746 18.7713 14.4648 18.7837 14.456 18.7968C14.4476 18.8093 14.4403 18.8224 14.4327 18.8352C14.4256 18.847 14.4182 18.8585 14.4117 18.8707C14.4046 18.8839 14.3987 18.8973 14.3924 18.9108C14.3864 18.9234 14.3801 18.9359 14.3747 18.9488C14.3693 18.9619 14.3649 18.9752 14.3602 18.9885C14.3552 19.0024 14.3499 19.0161 14.3456 19.0302C14.3416 19.0435 14.3386 19.0569 14.3353 19.0703C14.3316 19.0848 14.3276 19.0991 14.3246 19.1139C14.3216 19.1293 14.3198 19.1448 14.3175 19.1603C14.3157 19.1732 14.3132 19.186 14.312 19.199C14.3092 19.228 14.3076 19.257 14.3076 19.286C14.3076 19.3151 14.3091 19.3441 14.312 19.373C14.3133 19.3861 14.3157 19.3987 14.3176 19.4117C14.3198 19.4272 14.3216 19.4427 14.3247 19.4581C14.3276 19.4728 14.3317 19.4872 14.3353 19.5016C14.3387 19.5151 14.3416 19.5285 14.3457 19.5418C14.3499 19.5559 14.3552 19.5696 14.3602 19.5835C14.365 19.5968 14.3693 19.6101 14.3747 19.6232C14.3801 19.6362 14.3864 19.6486 14.3924 19.6612C14.3987 19.6746 14.4047 19.6881 14.4117 19.7013C14.4182 19.7135 14.4257 19.725 14.4327 19.7368C14.4404 19.7497 14.4476 19.7627 14.456 19.7752C14.4648 19.7884 14.4746 19.8007 14.4841 19.8133C14.4919 19.8237 14.499 19.8343 14.5073 19.8443C14.5258 19.8669 14.5453 19.8885 14.5659 19.9091L18.9714 24.3146C19.3154 24.6587 19.8734 24.6587 20.2175 24.3146C20.5616 23.9705 20.5616 23.4126 20.2175 23.0685L17.3159 20.1672L32.8111 20.1672C33.2978 20.1672 33.6923 19.7727 33.6923 19.286C33.6923 18.7994 33.2978 18.4049 32.8111 18.4049L17.3159 18.4049L20.2173 15.5034C20.5615 15.1594 20.5615 14.6014 20.2173 14.2574C19.8733 13.9132 19.3154 13.9132 18.9713 14.2574L14.5659 18.6628Z" fill="white"/>
<path d="M33.4926 28.6567C33.5008 28.6469 33.5078 28.6364 33.5155 28.6262C33.5251 28.6133 33.5349 28.6008 33.5439 28.5875C33.5522 28.5751 33.5593 28.5623 33.5669 28.5496C33.5741 28.5376 33.5816 28.5259 33.5882 28.5135C33.5951 28.5005 33.601 28.4872 33.6073 28.4739C33.6133 28.4611 33.6197 28.4485 33.6251 28.4354C33.6305 28.4225 33.6348 28.4094 33.6395 28.3963C33.6445 28.3823 33.6499 28.3683 33.6542 28.354C33.6581 28.3409 33.661 28.3277 33.6644 28.3145C33.6681 28.2998 33.6722 28.2853 33.6751 28.2703C33.6781 28.2552 33.6799 28.24 33.6821 28.2248C33.684 28.2116 33.6865 28.1985 33.6878 28.1851C33.6906 28.1571 33.692 28.129 33.6921 28.1009C33.6921 28.1 33.6923 28.0993 33.6923 28.0983C33.6923 28.0974 33.6921 28.0966 33.6921 28.0957C33.692 28.0675 33.6907 28.0395 33.6879 28.0114C33.6865 27.998 33.6841 27.9849 33.6822 27.9717C33.68 27.9565 33.6782 27.9412 33.6752 27.9262C33.6723 27.9112 33.6682 27.8967 33.6644 27.882C33.6611 27.8688 33.6582 27.8556 33.6543 27.8425C33.6499 27.8282 33.6446 27.8143 33.6396 27.8003C33.6349 27.7872 33.6306 27.774 33.6252 27.7611C33.6198 27.7479 33.6134 27.7354 33.6073 27.7226C33.6011 27.7093 33.5952 27.696 33.5883 27.683C33.5817 27.6707 33.5742 27.659 33.567 27.647C33.5594 27.6343 33.5523 27.6214 33.544 27.609C33.535 27.5957 33.5252 27.5832 33.5155 27.5704C33.5079 27.5602 33.5008 27.5497 33.4927 27.5398C33.4741 27.5172 33.4546 27.4956 33.4341 27.475L29.0286 23.0696C28.6846 22.7255 28.1266 22.7255 27.7826 23.0696C27.4385 23.4136 27.4385 23.9716 27.7826 24.3157L30.6839 27.2172L15.1888 27.2172C14.7022 27.2172 14.3076 27.6117 14.3076 28.0983C14.3076 28.5849 14.7022 28.9795 15.1888 28.9795L30.6839 28.9795L27.7825 31.8809C27.6105 32.0529 27.5244 32.2784 27.5244 32.5039C27.5244 32.7294 27.6104 32.955 27.7825 33.1269C28.1266 33.471 28.6845 33.471 29.0286 33.1269L33.4341 28.7216C33.4546 28.701 33.4741 28.6793 33.4926 28.6567Z" fill="white"/>
</g>
<defs>
<filter id="filter0_d" x="0.307617" y="0" width="47.3846" height="47.3846" filterUnits="userSpaceOnUse" color-interpolation-filters="sRGB">
<feFlood flood-opacity="0" result="BackgroundImageFix"/>
<feColorMatrix in="SourceAlpha" type="matrix" values="0 0 0 0 0 0 0 0 0 0 0 0 0 0 0 0 0 0 127 0"/>
<feOffset/>
<feGaussianBlur stdDeviation="7"/>
<feColorMatrix type="matrix" values="0 0 0 0 1 0 0 0 0 1 0 0 0 0 1 0 0 0 0.25 0"/>
<feBlend mode="normal" in2="BackgroundImageFix" result="effect1_dropShadow"/>
<feBlend mode="normal" in="SourceGraphic" in2="effect1_dropShadow" result="shape"/>
</filter>
<clipPath id="clip0">
<rect width="19.3846" height="19.3846" fill="white" transform="translate(33.6923 14) rotate(90)"/>
</clipPath>
</defs>
</svg>
