<svg width="56" height="56" viewBox="0 0 56 56" fill="none" xmlns="http://www.w3.org/2000/svg">
<rect opacity="0.9" x="2" y="1" width="52" height="52" rx="14" fill="#AA60A9"/>
<g clip-path="url(#clip0)" filter="url(#filter0_d)">
<path d="M14.373 20.7356C14.3433 20.7654 14.3151 20.7966 14.2884 20.8292C14.2764 20.8437 14.2661 20.8591 14.2548 20.874C14.2411 20.8922 14.227 20.9101 14.2143 20.9291C14.2021 20.9471 14.1917 20.966 14.1806 20.9845C14.1704 21.0015 14.1596 21.0182 14.1503 21.0357C14.1401 21.0548 14.1315 21.0742 14.1224 21.0937C14.1138 21.112 14.1047 21.1299 14.0969 21.1486C14.089 21.1675 14.0827 21.1867 14.0759 21.206C14.0687 21.226 14.061 21.2458 14.0549 21.2661C14.0491 21.2854 14.0447 21.3047 14.0399 21.3242C14.0346 21.345 14.0288 21.3657 14.0246 21.387C14.0201 21.4094 14.0175 21.4317 14.0143 21.4541C14.0116 21.4728 14.0081 21.4912 14.0062 21.51C14.0022 21.5519 13.9999 21.5938 13.9999 21.6357C13.9999 21.6777 14.0021 21.7195 14.0063 21.7613C14.0081 21.7802 14.0117 21.7985 14.0143 21.8172C14.0176 21.8396 14.0202 21.8619 14.0246 21.8843C14.0289 21.9055 14.0347 21.9263 14.04 21.9472C14.0448 21.9666 14.0491 21.9859 14.0549 22.0052C14.0611 22.0255 14.0687 22.0453 14.076 22.0653C14.0829 22.0846 14.0891 22.1038 14.0969 22.1227C14.1047 22.1415 14.1138 22.1594 14.1224 22.1776C14.1315 22.197 14.1402 22.2165 14.1503 22.2356C14.1597 22.2531 14.1705 22.2698 14.1806 22.2868C14.1917 22.3054 14.2022 22.3242 14.2143 22.3422C14.2271 22.3613 14.2412 22.3792 14.2549 22.3973C14.2661 22.4123 14.2764 22.4276 14.2884 22.4421C14.3152 22.4747 14.3433 22.5059 14.373 22.5358L20.7365 28.8991C21.2335 29.3962 22.0394 29.3962 22.5364 28.8991C23.0334 28.4022 23.0334 27.5963 22.5364 27.0993L18.3453 22.9084L40.7273 22.9085C41.4302 22.9085 42 22.3386 42 21.6357C42 20.9328 41.4302 20.363 40.7273 20.363L18.3453 20.363L22.5362 16.1719C23.0333 15.675 23.0333 14.8691 22.5362 14.3721C22.0393 13.875 21.2334 13.875 20.7364 14.3721L14.373 20.7356Z" fill="white"/>
<path d="M41.7116 35.1709C41.7234 35.1566 41.7336 35.1414 41.7446 35.1267C41.7585 35.1081 41.7728 35.0901 41.7857 35.0709C41.7977 35.053 41.808 35.0344 41.8189 35.0161C41.8293 34.9988 41.8401 34.9819 41.8497 34.964C41.8597 34.9452 41.8681 34.926 41.8772 34.9068C41.886 34.8883 41.8952 34.8701 41.903 34.8512C41.9107 34.8326 41.917 34.8135 41.9238 34.7946C41.931 34.7744 41.9389 34.7543 41.945 34.7336C41.9507 34.7147 41.9549 34.6956 41.9597 34.6765C41.9651 34.6553 41.971 34.6344 41.9753 34.6127C41.9796 34.5909 41.9822 34.5689 41.9853 34.547C41.9881 34.5279 41.9916 34.509 41.9936 34.4896C41.9976 34.4492 41.9996 34.4086 41.9997 34.3679C41.9998 34.3667 42 34.3656 42 34.3643C42 34.3629 41.9998 34.3618 41.9998 34.3604C41.9997 34.3198 41.9977 34.2792 41.9937 34.2388C41.9917 34.2194 41.9882 34.2005 41.9854 34.1814C41.9823 34.1594 41.9797 34.1374 41.9754 34.1157C41.9711 34.094 41.9652 34.0731 41.9598 34.0518C41.955 34.0328 41.9508 34.0137 41.9451 33.9948C41.9389 33.9741 41.9311 33.9541 41.9239 33.9338C41.9171 33.9149 41.9109 33.8958 41.9031 33.8772C41.8953 33.8581 41.8861 33.84 41.8773 33.8216C41.8684 33.8024 41.8598 33.7832 41.8498 33.7644C41.8403 33.7465 41.8294 33.7296 41.819 33.7123C41.8081 33.694 41.7978 33.6754 41.7858 33.6575C41.7729 33.6382 41.7587 33.6203 41.7447 33.6017C41.7337 33.587 41.7235 33.5718 41.7117 33.5575C41.6849 33.5249 41.6568 33.4937 41.6271 33.4638L35.2636 27.1006C34.7667 26.6035 33.9608 26.6035 33.4638 27.1006C32.9667 27.5975 32.9667 28.4034 33.4638 28.9004L37.6546 33.0915L15.2727 33.0915C14.5698 33.0915 14 33.6614 14 34.3643C14 35.0672 14.5698 35.637 15.2727 35.637L37.6546 35.637L33.4637 39.8281C33.2152 40.0765 33.0909 40.4022 33.0909 40.7279C33.0909 41.0537 33.2151 41.3794 33.4637 41.6278C33.9607 42.1249 34.7666 42.1249 35.2636 41.6278L41.627 35.2645C41.6567 35.2347 41.6849 35.2035 41.7116 35.1709Z" fill="white"/>
</g>
<defs>
<filter id="filter0_d" x="0" y="0" width="56" height="56" filterUnits="userSpaceOnUse" color-interpolation-filters="sRGB">
<feFlood flood-opacity="0" result="BackgroundImageFix"/>
<feColorMatrix in="SourceAlpha" type="matrix" values="0 0 0 0 0 0 0 0 0 0 0 0 0 0 0 0 0 0 127 0"/>
<feOffset/>
<feGaussianBlur stdDeviation="7"/>
<feColorMatrix type="matrix" values="0 0 0 0 1 0 0 0 0 1 0 0 0 0 1 0 0 0 0.25 0"/>
<feBlend mode="normal" in2="BackgroundImageFix" result="effect1_dropShadow"/>
<feBlend mode="normal" in="SourceGraphic" in2="effect1_dropShadow" result="shape"/>
</filter>
<clipPath id="clip0">
<rect width="28" height="28" fill="white" transform="translate(42 14) rotate(90)"/>
</clipPath>
</defs>
</svg>
