<svg width="42" height="42" viewBox="0 0 42 42" fill="none" xmlns="http://www.w3.org/2000/svg">
<g clip-path="url(#clip0)">
<path d="M5.24995 19.2498C4.80195 19.2498 4.35395 19.0783 4.0127 18.737C3.32845 18.0528 3.32845 16.9468 4.0127 16.2625L16.0982 4.17701C16.7825 3.49276 17.8884 3.49276 18.5727 4.17701C19.257 4.86126 19.257 5.96726 18.5727 6.65151L6.4872 18.737C6.14595 19.0783 5.69795 19.2498 5.24995 19.2498Z" fill="white"/>
<path d="M19.6876 10.5002C19.3464 10.5002 19.0104 10.3672 18.7601 10.1152L12.6351 3.99024C12.2589 3.61574 12.1469 3.05049 12.3499 2.56049C12.5529 2.07049 13.0324 1.75024 13.5626 1.75024H19.6876C20.4121 1.75024 21.0001 2.33824 21.0001 3.06274V9.18774C21.0001 9.71799 20.6799 10.1975 20.1899 10.4005C20.0271 10.467 19.8574 10.5002 19.6876 10.5002Z" fill="white"/>
<path d="M12.25 26.6873V36.7498H1.75V26.6873C1.75 25.4798 2.73 24.4998 3.9375 24.4998H10.0625C11.27 24.4998 12.25 25.4798 12.25 26.6873Z" fill="white"/>
<path d="M26.25 19.6877V36.7502H15.75V19.6877C15.75 18.4802 16.73 17.5002 17.9375 17.5002H24.0625C25.27 17.5002 26.25 18.4802 26.25 19.6877Z" fill="white"/>
<path d="M40.25 12.6875V36.75H29.75V12.6875C29.75 11.48 30.73 10.5 31.9375 10.5H38.0625C39.27 10.5 40.25 11.48 40.25 12.6875Z" fill="white"/>
<path d="M40.6875 42H1.3125C0.588 42 0 41.412 0 40.6875C0 39.963 0.588 39.375 1.3125 39.375H40.6875C41.412 39.375 42 39.963 42 40.6875C42 41.412 41.412 42 40.6875 42Z" fill="white"/>
</g>
<defs>
<clipPath id="clip0">
<rect width="42" height="42" fill="white"/>
</clipPath>
</defs>
</svg>
