<svg width="177" height="52" viewBox="0 0 177 52" fill="none" xmlns="http://www.w3.org/2000/svg">
<path d="M0 25.5738C0 13.5182 0 7.49038 3.75846 3.74519C7.51691 0 13.5661 0 25.6643 0H26.5198C38.6181 0 44.6672 0 48.4257 3.74519C52.1842 7.49038 52.1842 13.5182 52.1842 25.5738V26.4262C52.1842 38.4818 52.1842 44.5096 48.4257 48.2548C44.6672 52 38.6181 52 26.5198 52H25.6643C13.5661 52 7.51691 52 3.75846 48.2548C0 44.5096 0 38.4818 0 26.4262V25.5738Z" fill="#00A8E8"/>
<path d="M44.487 26.065C44.487 36.1525 36.2805 44.33 26.1573 44.33C16.0341 44.33 7.82764 36.1525 7.82764 26.065C7.82764 15.9776 16.0341 7.80005 26.1573 7.80005C36.2805 7.80005 44.487 15.9776 44.487 26.065Z" fill="#1A2C3C"/>
<path d="M18.6079 36.8688V34.3193L20.874 33.8823V18.6583L18.6079 18.2213V15.6572H28.7396C30.3673 15.6572 31.7708 15.9437 32.9501 16.5168C34.1295 17.0801 35.0359 17.8716 35.6694 18.8914C36.303 19.9015 36.6197 21.0815 36.6197 22.4315C36.6197 23.7815 36.303 24.9664 35.6694 25.9862C35.0359 26.9963 34.1295 27.783 32.9501 28.3463C31.7708 28.8999 30.3673 29.1767 28.7396 29.1767H25.143V33.8823L27.4238 34.3193V36.8688H18.6079ZM25.143 25.8988H28.7396C29.9287 25.8988 30.8253 25.5783 31.4296 24.9373C32.0437 24.2866 32.3507 23.461 32.3507 22.4607C32.3507 21.4409 32.0437 20.6008 31.4296 19.9403C30.8253 19.2702 29.9287 18.9351 28.7396 18.9351H25.143V25.8988Z" fill="white"/>
<path d="M65.6104 36.8689V34.6254L67.9349 34.1883V18.3525L65.6104 17.9154V15.6573H75.5958C77.1748 15.6573 78.5295 15.9341 79.6602 16.4877C80.8005 17.0413 81.6728 17.8134 82.2771 18.8041C82.8912 19.7947 83.1982 20.9457 83.1982 22.2568C83.1982 24.2381 82.5208 25.8309 81.166 27.0352C79.821 28.2298 77.9642 28.8272 75.5958 28.8272H71.6192V34.1883L73.9437 34.6254V36.8689H65.6104ZM71.6192 25.9863H75.5958C76.8921 25.9863 77.8668 25.6367 78.5198 24.9374C79.1826 24.2381 79.514 23.3543 79.514 22.2859C79.514 21.1982 79.1826 20.2949 78.5198 19.5762C77.8668 18.8575 76.8921 18.4982 75.5958 18.4982H71.6192V25.9863Z" fill="white"/>
<path d="M84.5579 36.8689V34.6254L86.7509 34.1883V16.8374L84.4263 16.4003V14.1422H90.4205V23.1455C90.9468 22.4073 91.5852 21.8343 92.3357 21.4264C93.0959 21.0185 93.9536 20.8145 94.9088 20.8145C96.5365 20.8145 97.8182 21.3341 98.7539 22.3734C99.6895 23.4029 100.157 24.9957 100.157 27.1518V34.1883L102.336 34.6254V36.8689H94.3971V34.6254L96.4731 34.1883V27.1226C96.4731 25.9183 96.2295 25.0491 95.7421 24.5149C95.2548 23.9807 94.5384 23.7136 93.593 23.7136C92.9205 23.7136 92.3113 23.8642 91.7655 24.1653C91.2197 24.4566 90.7713 24.8694 90.4205 25.4036V34.1883L92.4965 34.6254V36.8689H84.5579Z" fill="white"/>
<path d="M110.143 37.1748C108.447 37.1748 107.121 36.6407 106.166 35.5723C105.221 34.4943 104.748 32.8237 104.748 30.5608V23.8011L102.964 23.364V21.1059H108.432V30.5899C108.432 31.9496 108.647 32.9063 109.076 33.4599C109.514 34.0038 110.187 34.2757 111.093 34.2757C112.672 34.2757 113.798 33.6687 114.47 32.4547V23.8011L112.482 23.364V21.1059H118.155V34.1883L120.026 34.6254V36.8689H114.894L114.646 34.7273C114.149 35.514 113.515 36.1211 112.745 36.5484C111.985 36.966 111.117 37.1748 110.143 37.1748Z" fill="white"/>
<path d="M127.731 37.1457C126.386 37.1457 125.338 36.7718 124.587 36.0239C123.837 35.2664 123.462 34.0621 123.462 32.411V23.7282H121.152V21.1059H123.462V17.2744H127.131V21.1059H130.26V23.7282H127.131V32.411C127.131 33.0811 127.268 33.5667 127.541 33.8678C127.823 34.1689 128.203 34.3194 128.681 34.3194C128.954 34.3194 129.256 34.3 129.587 34.2612C129.929 34.2126 130.206 34.164 130.421 34.1155L130.786 36.6941C130.367 36.8203 129.88 36.9272 129.324 37.0146C128.769 37.102 128.238 37.1457 127.731 37.1457Z" fill="white"/>
<path d="M139.324 37.1748C137.628 37.1748 136.303 36.6407 135.348 35.5723C134.402 34.4943 133.93 32.8237 133.93 30.5608V23.8011L132.146 23.364V21.1059H137.614V30.5899C137.614 31.9496 137.828 32.9063 138.257 33.4599C138.696 34.0038 139.368 34.2757 140.275 34.2757C141.854 34.2757 142.979 33.6687 143.652 32.4547V23.8011L141.664 23.364V21.1059H147.336V34.1883L149.207 34.6254V36.8689H144.076L143.827 34.7273C143.33 35.514 142.697 36.1211 141.927 36.5484C141.166 36.966 140.299 37.1748 139.324 37.1748Z" fill="white"/>
<path d="M151.137 36.8689V34.6254L153.316 34.1883V23.8011L151.006 23.364V21.1059H156.707L156.898 23.0872L156.927 23.4077C157.775 21.6789 159.003 20.8145 160.611 20.8145C161.215 20.8145 161.756 20.8922 162.234 21.0476L161.81 24.4421L159.748 24.3255C159.076 24.2867 158.52 24.4178 158.082 24.7189C157.643 25.0199 157.283 25.4376 157 25.9717V34.1883L159.193 34.6254V36.8689H151.137Z" fill="white"/>
<path d="M170.86 37.1748C169.359 37.1748 168.057 36.8446 166.956 36.1842C165.855 35.514 164.997 34.5914 164.383 33.4162C163.779 32.241 163.477 30.8959 163.477 29.3807V28.7689C163.477 27.2343 163.774 25.8698 164.368 24.6752C164.973 23.4708 165.796 22.5287 166.839 21.8489C167.892 21.1593 169.095 20.8145 170.45 20.8145C172.585 20.8145 174.208 21.4458 175.319 22.7084C176.44 23.971 177 25.7047 177 27.9093V30.0072H167.292L167.263 30.08C167.322 31.3232 167.682 32.3478 168.345 33.154C169.008 33.9504 169.953 34.3486 171.181 34.3486C172.039 34.3486 172.819 34.232 173.52 33.9989C174.222 33.7658 174.875 33.4356 175.48 33.0083L176.62 35.3101C175.996 35.8443 175.202 36.291 174.237 36.6504C173.282 37 172.156 37.1748 170.86 37.1748ZM167.351 27.4286H173.477V27.0498C173.477 26.0203 173.233 25.1851 172.746 24.544C172.268 23.903 171.518 23.5825 170.494 23.5825C169.597 23.5825 168.871 23.9419 168.316 24.6606C167.77 25.3793 167.434 26.2777 167.307 27.3557L167.351 27.4286Z" fill="white"/>
</svg>
