<svg width="247" height="73" viewBox="0 0 247 73" fill="none" xmlns="http://www.w3.org/2000/svg">
<path d="M0 35.6877C0 18.8644 0 10.4527 5.24485 5.22634C10.4897 0 18.9312 0 35.8141 0H37.0079C53.8908 0 62.3323 0 67.5771 5.22634C72.822 10.4527 72.822 18.8644 72.822 35.6877V36.8773C72.822 53.7006 72.822 62.1123 67.5771 67.3386C62.3323 72.565 53.8908 72.565 37.0079 72.565H35.8141C18.9312 72.565 10.4897 72.565 5.24485 67.3386C0 62.1123 0 53.7006 0 36.8773V35.6877Z" fill="#00A8E8"/>
<path d="M62.0808 36.3732C62.0808 50.4501 50.6288 61.8617 36.5021 61.8617C22.3753 61.8617 10.9233 50.4501 10.9233 36.3732C10.9233 22.2963 22.3753 10.8848 36.5021 10.8848C50.6288 10.8848 62.0808 22.2963 62.0808 36.3732Z" fill="#1A2C3C"/>
<path d="M25.967 51.4497V47.892L29.1293 47.2821V26.0373L25.967 25.4274V21.8494H40.1055C42.3769 21.8494 44.3355 22.2492 45.9812 23.0488C47.627 23.8349 48.8919 24.9395 49.776 26.3626C50.6601 27.7721 51.1021 29.4189 51.1021 31.3028C51.1021 33.1867 50.6601 34.8402 49.776 36.2633C48.8919 37.6728 47.627 38.7706 45.9812 39.5567C44.3355 40.3292 42.3769 40.7155 40.1055 40.7155H35.0866V47.2821L38.2693 47.892V51.4497H25.967ZM35.0866 36.1413H40.1055C41.7649 36.1413 43.0162 35.694 43.8595 34.7995C44.7163 33.8914 45.1448 32.7394 45.1448 31.3434C45.1448 29.9203 44.7163 28.748 43.8595 27.8264C43.0162 26.8912 41.7649 26.4236 40.1055 26.4236H35.0866V36.1413Z" fill="white"/>
<path d="M91.5579 51.4498V48.319L94.8018 47.7091V25.6104L91.5579 25.0006V21.8494H105.492C107.696 21.8494 109.586 22.2357 111.164 23.0082C112.756 23.7808 113.973 24.8582 114.816 26.2407C115.673 27.6231 116.101 29.2292 116.101 31.0589C116.101 33.8237 115.156 36.0465 113.266 37.7271C111.389 39.3941 108.798 40.2277 105.492 40.2277H99.9431V47.7091L103.187 48.319V51.4498H91.5579ZM99.9431 36.2633H105.492C107.301 36.2633 108.662 35.7754 109.573 34.7996C110.498 33.8237 110.96 32.5904 110.96 31.0995C110.96 29.5816 110.498 28.3211 109.573 27.3182C108.662 26.3152 107.301 25.8137 105.492 25.8137H99.9431V36.2633Z" fill="white"/>
<path d="M117.999 51.4498V48.319L121.059 47.7091V23.4961L117.815 22.8862V19.7351H126.18V32.299C126.914 31.2689 127.805 30.4693 128.853 29.9001C129.914 29.3308 131.11 29.0462 132.443 29.0462C134.715 29.0462 136.503 29.7713 137.809 31.2215C139.115 32.6581 139.768 34.8809 139.768 37.8897V47.7091L142.808 48.319V51.4498H131.729V48.319L134.626 47.7091V37.8491C134.626 36.1684 134.286 34.9554 133.606 34.21C132.926 33.4646 131.926 33.0919 130.607 33.0919C129.669 33.0919 128.819 33.3019 128.057 33.7221C127.295 34.1287 126.67 34.7047 126.18 35.4501V47.7091L129.077 48.319V51.4498H117.999Z" fill="white"/>
<path d="M153.702 51.8767C151.336 51.8767 149.486 51.1313 148.153 49.6404C146.833 48.136 146.174 45.8048 146.174 42.6469V33.2138L143.685 32.6039V29.4528H151.315V42.6876C151.315 44.585 151.614 45.92 152.213 46.6926C152.825 47.4515 153.763 47.831 155.028 47.831C157.232 47.831 158.803 46.984 159.741 45.2898V33.2138L156.966 32.6039V29.4528H164.882V47.7091L167.494 48.319V51.4498H160.333L159.986 48.4613C159.292 49.5591 158.408 50.4062 157.334 51.0025C156.273 51.5853 155.062 51.8767 153.702 51.8767Z" fill="white"/>
<path d="M178.246 51.836C176.369 51.836 174.907 51.3142 173.859 50.2706C172.812 49.2135 172.288 47.5329 172.288 45.2288V33.1122H169.065V29.4528H172.288V24.106H177.409V29.4528H181.775V33.1122H177.409V45.2288C177.409 46.164 177.6 46.8416 177.98 47.2618C178.375 47.6819 178.905 47.892 179.572 47.892C179.953 47.892 180.374 47.8649 180.837 47.8107C181.313 47.7429 181.7 47.6752 182 47.6074L182.51 51.2058C181.925 51.382 181.245 51.5311 180.469 51.6531C179.694 51.775 178.953 51.836 178.246 51.836Z" fill="white"/>
<path d="M194.424 51.8767C192.058 51.8767 190.208 51.1313 188.875 49.6404C187.556 48.136 186.896 45.8048 186.896 42.6469V33.2138L184.407 32.6039V29.4528H192.037V42.6876C192.037 44.585 192.337 45.92 192.935 46.6926C193.547 47.4515 194.486 47.831 195.75 47.831C197.954 47.831 199.525 46.984 200.463 45.2898V33.2138L197.689 32.6039V29.4528H205.605V47.7091L208.216 48.319V51.4498H201.055L200.708 48.4613C200.014 49.5591 199.13 50.4062 198.056 51.0025C196.995 51.5853 195.784 51.8767 194.424 51.8767Z" fill="white"/>
<path d="M210.909 51.4498V48.319L213.949 47.7091V33.2138L210.725 32.6039V29.4528H218.682L218.947 32.2177L218.988 32.6649C220.172 30.2524 221.885 29.0462 224.13 29.0462C224.973 29.0462 225.728 29.1546 226.394 29.3715L225.802 34.1083L222.926 33.9457C221.987 33.8915 221.212 34.0745 220.6 34.4946C219.988 34.9148 219.485 35.4976 219.09 36.243V47.7091L222.151 48.319V51.4498H210.909Z" fill="white"/>
<path d="M238.431 51.8767C236.337 51.8767 234.521 51.4159 232.984 50.4943C231.447 49.5591 230.25 48.2715 229.393 46.6316C228.55 44.9916 228.128 43.1145 228.128 41.0002V40.1463C228.128 38.0049 228.543 36.1007 229.373 34.4336C230.216 32.753 231.365 31.4384 232.821 30.4896C234.29 29.5273 235.969 29.0462 237.86 29.0462C240.839 29.0462 243.103 29.9272 244.654 31.6891C246.218 33.451 247 35.8703 247 38.9469V41.8744H233.453L233.412 41.976C233.494 43.7108 233.997 45.1407 234.922 46.2656C235.847 47.377 237.166 47.9327 238.88 47.9327C240.077 47.9327 241.165 47.77 242.144 47.4448C243.124 47.1195 244.035 46.6587 244.878 46.0623L246.47 49.2745C245.599 50.0199 244.491 50.6433 243.144 51.1448C241.811 51.6327 240.24 51.8767 238.431 51.8767ZM233.535 38.276H242.083V37.7474C242.083 36.3108 241.743 35.1452 241.063 34.2507C240.397 33.3561 239.349 32.9089 237.921 32.9089C236.67 32.9089 235.657 33.4104 234.881 34.4133C234.12 35.4162 233.65 36.6699 233.474 38.1743L233.535 38.276Z" fill="white"/>
</svg>
