<svg width="32" height="32" viewBox="0 0 32 32" fill="none" xmlns="http://www.w3.org/2000/svg">
<path d="M15.9897 26.1992C21.8037 26.1992 26.6025 21.4004 26.6025 15.5967C26.6025 9.79297 21.7935 4.99414 15.9795 4.99414C10.1758 4.99414 5.38721 9.79297 5.38721 15.5967C5.38721 21.4004 10.186 26.1992 15.9897 26.1992ZM15.9282 12.0181C15.1079 12.0181 14.4517 11.3618 14.4517 10.5518C14.4517 9.72119 15.1079 9.06494 15.9282 9.06494C16.7383 9.06494 17.3843 9.72119 17.3843 10.5518C17.3843 11.3618 16.7383 12.0181 15.9282 12.0181ZM14.0928 21.4106C13.6108 21.4106 13.2314 21.062 13.2314 20.5698C13.2314 20.1084 13.6108 19.7393 14.0928 19.7393H15.3643V15.3301H14.2876C13.8057 15.3301 13.4263 14.9814 13.4263 14.4893C13.4263 14.0278 13.8057 13.6587 14.2876 13.6587H16.3179C16.9331 13.6587 17.251 14.0894 17.251 14.7354V19.7393H18.4199C18.9121 19.7393 19.2915 20.1084 19.2915 20.5698C19.2915 21.062 18.9121 21.4106 18.4199 21.4106H14.0928Z" fill="#485663"/>
</svg>
