<svg width="52" height="52" viewBox="0 0 52 52" fill="none" xmlns="http://www.w3.org/2000/svg">
<rect opacity="0.9" width="52" height="52" rx="14" fill="#4ECDC4"/>
<g filter="url(#filter0_d)">
<path d="M29.088 25.8325C33.453 25.8325 37.0036 22.2813 37.0036 17.9163C37.0036 13.5513 33.453 10 29.088 10C24.723 10 21.1718 13.5513 21.1718 17.9163C21.1718 22.2813 24.723 25.8325 29.088 25.8325ZM28.1505 13.2631V13.0481C28.1505 12.53 28.5699 12.1106 29.088 12.1106C29.6055 12.1106 30.0255 12.53 30.0255 13.0481V13.2644C31.1411 13.5038 31.9805 14.4975 31.9805 15.6838C31.9805 16.2013 31.5605 16.6213 31.043 16.6213C30.5249 16.6213 30.1055 16.2013 30.1055 15.6838C30.1055 15.3531 29.8361 15.0838 29.5055 15.0838H28.6649C28.3343 15.0838 28.0649 15.3531 28.0649 15.6838C28.0649 15.8731 28.1555 16.0531 28.308 16.1656L29.088 16.7431L30.983 18.1456C31.6055 18.6063 31.9805 19.3431 31.9855 20.1181V20.1269C31.9899 20.7881 31.7368 21.4119 31.2718 21.8825C30.9268 22.2319 30.4955 22.4663 30.0255 22.565V22.7844C30.0255 23.3025 29.6055 23.7219 29.088 23.7219C28.5699 23.7219 28.1505 23.3025 28.1505 22.7844V22.5681C27.693 22.4706 27.2724 22.2456 26.9324 21.9094C26.4618 21.445 26.2005 20.825 26.1968 20.1638C26.1936 19.6463 26.6105 19.2238 27.128 19.2206H27.1343C27.6493 19.2206 28.0686 19.6369 28.0718 20.1525C28.073 20.4761 28.3333 20.7488 28.6749 20.7488C29.1929 20.7456 28.9999 20.7468 29.5143 20.7438C29.847 20.7411 30.1131 20.4711 30.1105 20.1394V20.1306C30.1093 19.9431 30.0186 19.7644 29.8674 19.6525L29.088 19.0756L27.1924 17.6731C26.5649 17.2081 26.1899 16.4644 26.1899 15.6838C26.1899 14.495 27.0318 13.5006 28.1505 13.2631Z" fill="white"/>
<path d="M16.2618 30.3368C16.0215 29.9202 15.4877 29.7753 15.0685 30.0171L10.6586 32.5627C10.241 32.8044 10.0978 33.3385 10.3389 33.7566L14.846 41.563C15.0872 41.9804 15.621 42.1238 16.0393 41.8827L20.4492 39.3365C20.8674 39.0953 21.01 38.5613 20.7689 38.1431L16.2618 30.3368Z" fill="white"/>
<path d="M41.53 28.7787C41.1056 28.1893 40.2843 28.0562 39.6956 28.4806C37.9093 29.7675 34.4793 32.2387 34.2068 32.4356C34.0812 32.5425 33.9493 32.6393 33.8118 32.725C33.2725 33.0643 32.6468 33.2456 31.9937 33.2456H27.5031C26.9856 33.2456 26.5656 32.8262 26.5656 32.3081C26.5656 31.7893 26.9862 31.3706 27.5031 31.3706H32.3056C33.0112 31.3706 33.5762 30.7831 33.5468 30.0762C33.5193 29.4056 32.9468 28.8856 32.2756 28.8856H28.62C28.3725 28.6237 28.1012 28.3837 27.8106 28.1693C26.8112 27.4324 25.5762 26.9968 24.2393 26.9968C21.8625 26.9968 19.4975 28.4943 18.5168 30.4931L22.3518 37.135H29.5456C30.9581 37.135 32.3493 36.7737 33.5737 36.0693C33.9981 35.8256 34.4525 35.5324 34.945 35.1787C37.0087 33.6962 41.2281 30.6162 41.2312 30.6143C41.8212 30.1906 41.955 29.3681 41.53 28.7787Z" fill="white"/>
</g>
<defs>
<filter id="filter0_d" x="6" y="6" width="40" height="40" filterUnits="userSpaceOnUse" color-interpolation-filters="sRGB">
<feFlood flood-opacity="0" result="BackgroundImageFix"/>
<feColorMatrix in="SourceAlpha" type="matrix" values="0 0 0 0 0 0 0 0 0 0 0 0 0 0 0 0 0 0 127 0"/>
<feOffset/>
<feGaussianBlur stdDeviation="2"/>
<feColorMatrix type="matrix" values="0 0 0 0 1 0 0 0 0 1 0 0 0 0 1 0 0 0 0.45 0"/>
<feBlend mode="normal" in2="BackgroundImageFix" result="effect1_dropShadow"/>
<feBlend mode="normal" in="SourceGraphic" in2="effect1_dropShadow" result="shape"/>
</filter>
</defs>
</svg>
