<svg width="36" height="36" viewBox="0 0 36 36" fill="none" xmlns="http://www.w3.org/2000/svg">
<rect opacity="0.9" width="36" height="36" rx="18" fill="#4ECDC4"/>
<g clip-path="url(#clip0)" filter="url(#filter0_d)">
<path d="M20.1378 17.8841C23.1598 17.8841 25.6179 15.4255 25.6179 12.4036C25.6179 9.38165 23.1598 6.9231 20.1378 6.9231C17.1159 6.9231 14.6573 9.38165 14.6573 12.4036C14.6573 15.4255 17.1159 17.8841 20.1378 17.8841ZM19.4888 9.18218V9.03334C19.4888 8.67463 19.7791 8.3843 20.1378 8.3843C20.4961 8.3843 20.7869 8.67463 20.7869 9.03334V9.18305C21.5592 9.34877 22.1403 10.0368 22.1403 10.858C22.1403 11.2163 21.8496 11.507 21.4913 11.507C21.1326 11.507 20.8423 11.2163 20.8423 10.858C20.8423 10.6291 20.6558 10.4426 20.4269 10.4426H19.8449C19.616 10.4426 19.4295 10.6291 19.4295 10.858C19.4295 10.9891 19.4923 11.1137 19.5978 11.1916L20.1378 11.5914L21.4498 12.5624C21.8807 12.8813 22.1403 13.3914 22.1438 13.928V13.934C22.1468 14.3918 21.9716 14.8236 21.6497 15.1494C21.4108 15.3913 21.1123 15.5536 20.7869 15.6219V15.7738C20.7869 16.1325 20.4961 16.4229 20.1378 16.4229C19.7791 16.4229 19.4888 16.1325 19.4888 15.7738V15.6241C19.1721 15.5566 18.8809 15.4008 18.6455 15.168C18.3197 14.8466 18.1388 14.4173 18.1362 13.9595C18.134 13.6013 18.4226 13.3088 18.7809 13.3066H18.7852C19.1418 13.3066 19.4321 13.5948 19.4343 13.9518C19.4351 14.1758 19.6154 14.3645 19.8518 14.3645C20.2104 14.3624 20.0769 14.3632 20.4329 14.3611C20.6633 14.3593 20.8475 14.1723 20.8457 13.9427V13.9366C20.8448 13.8068 20.7821 13.683 20.6774 13.6056L20.1378 13.2062L18.8255 12.2353C18.3911 11.9133 18.1314 11.3984 18.1314 10.858C18.1314 10.035 18.7143 9.34661 19.4888 9.18218Z" fill="white"/>
<path d="M11.2581 21.0024C11.0918 20.714 10.7222 20.6137 10.432 20.7811L7.379 22.5434C7.08992 22.7108 6.99074 23.0805 7.15763 23.37L10.278 28.7744C10.445 29.0634 10.8145 29.1626 11.1041 28.9957L14.1571 27.2329C14.4466 27.066 14.5454 26.6963 14.3784 26.4068L11.2581 21.0024Z" fill="white"/>
<path d="M28.7514 19.9238C28.4576 19.5158 27.8891 19.4236 27.4815 19.7174C26.2449 20.6083 23.8702 22.3192 23.6816 22.4555C23.5946 22.5295 23.5033 22.5965 23.4081 22.6558C23.0347 22.8908 22.6016 23.0162 22.1494 23.0162H19.0405C18.6823 23.0162 18.3915 22.7259 18.3915 22.3672C18.3915 22.0081 18.6827 21.7182 19.0405 21.7182H22.3653C22.8538 21.7182 23.245 21.3114 23.2247 20.8221C23.2056 20.3578 22.8093 19.9978 22.3446 19.9978H19.8137C19.6424 19.8165 19.4546 19.6503 19.2534 19.5019C18.5615 18.9918 17.7065 18.6902 16.781 18.6902C15.1355 18.6902 13.4982 19.7269 12.8193 21.1107L15.4743 25.7089H20.4546C21.4324 25.7089 22.3956 25.4588 23.2433 24.9711C23.5371 24.8024 23.8516 24.5995 24.1926 24.3546C25.6213 23.3282 28.5424 21.1959 28.5446 21.1946C28.9531 20.9012 29.0457 20.3318 28.7514 19.9238Z" fill="white"/>
</g>
<defs>
<filter id="filter0_d" x="2.9231" y="2.9231" width="30.1538" height="30.1538" filterUnits="userSpaceOnUse" color-interpolation-filters="sRGB">
<feFlood flood-opacity="0" result="BackgroundImageFix"/>
<feColorMatrix in="SourceAlpha" type="matrix" values="0 0 0 0 0 0 0 0 0 0 0 0 0 0 0 0 0 0 127 0"/>
<feOffset/>
<feGaussianBlur stdDeviation="2"/>
<feColorMatrix type="matrix" values="0 0 0 0 1 0 0 0 0 1 0 0 0 0 1 0 0 0 0.45 0"/>
<feBlend mode="normal" in2="BackgroundImageFix" result="effect1_dropShadow"/>
<feBlend mode="normal" in="SourceGraphic" in2="effect1_dropShadow" result="shape"/>
</filter>
<clipPath id="clip0">
<rect width="22.1538" height="22.1538" fill="white" transform="translate(6.9231 6.9231)"/>
</clipPath>
</defs>
</svg>
