<svg width="20" height="12" viewBox="0 0 20 12" fill="none" xmlns="http://www.w3.org/2000/svg">
<path d="M9.87012 11.4746C10.3643 11.4746 10.7725 11.2812 11.1592 10.8838L18.6895 3.18164C18.9902 2.88086 19.1299 2.52637 19.1299 2.08594C19.1299 1.20508 18.4316 0.496094 17.5615 0.496094C17.1318 0.496094 16.7236 0.667969 16.4014 1.00098L9.87012 7.73633L3.32812 1.00098C3.00586 0.678711 2.6084 0.496094 2.16797 0.496094C1.29785 0.496094 0.588867 1.20508 0.588867 2.08594C0.588867 2.51562 0.75 2.87012 1.04004 3.18164L8.57031 10.8945C8.96777 11.292 9.37598 11.4746 9.87012 11.4746Z" fill="white"/>
</svg>
