<svg width="18" height="17" viewBox="0 0 18 17" fill="none" xmlns="http://www.w3.org/2000/svg">
<path d="M0.943359 14.7754C0.481445 15.248 0.459961 16.0859 0.954102 16.5693C1.44824 17.0527 2.27539 17.042 2.74805 16.5801L8.84961 10.4785L14.9404 16.5801C15.4238 17.0527 16.251 17.0635 16.7344 16.5693C17.2178 16.0752 17.2285 15.2588 16.7451 14.7754L10.6436 8.67383L16.7451 2.58301C17.2285 2.09961 17.2285 1.27246 16.7344 0.789062C16.2402 0.305664 15.4238 0.305664 14.9404 0.77832L8.84961 6.87988L2.74805 0.77832C2.27539 0.316406 1.4375 0.294922 0.954102 0.789062C0.470703 1.2832 0.481445 2.11035 0.943359 2.57227L7.04492 8.67383L0.943359 14.7754Z" fill="white"/>
</svg>
