<svg width="36" height="36" viewBox="0 0 36 36" fill="none" xmlns="http://www.w3.org/2000/svg">
<rect opacity="0.9" width="36" height="36" rx="18" fill="#FF6B6B"/>
<g filter="url(#filter0_d)">
<path d="M17.1539 9.75075C17.4633 9.57212 17.8445 9.57212 18.1539 9.75075L24.2479 13.2691C24.5573 13.4478 24.7479 13.7779 24.7479 14.1351V21.1719C24.7479 21.5292 24.5573 21.8593 24.2479 22.0379L18.1539 25.5563C17.8445 25.7349 17.4633 25.7349 17.1539 25.5563L11.0599 22.0379C10.7505 21.8593 10.5599 21.5292 10.5599 21.1719V14.1351C10.5599 13.7779 10.7505 13.4478 11.0599 13.2691L17.1539 9.75075Z" stroke="white" stroke-width="2"/>
</g>
<path d="M18 16.9616L24.9231 13.8462V21.8077L18 25.6154V16.9616Z" fill="white"/>
<defs>
<filter id="filter0_d" x="5.55988" y="4.61682" width="24.188" height="26.0735" filterUnits="userSpaceOnUse" color-interpolation-filters="sRGB">
<feFlood flood-opacity="0" result="BackgroundImageFix"/>
<feColorMatrix in="SourceAlpha" type="matrix" values="0 0 0 0 0 0 0 0 0 0 0 0 0 0 0 0 0 0 127 0"/>
<feOffset/>
<feGaussianBlur stdDeviation="2"/>
<feColorMatrix type="matrix" values="0 0 0 0 1 0 0 0 0 1 0 0 0 0 1 0 0 0 0.45 0"/>
<feBlend mode="normal" in2="BackgroundImageFix" result="effect1_dropShadow"/>
<feBlend mode="normal" in="SourceGraphic" in2="effect1_dropShadow" result="shape"/>
</filter>
</defs>
</svg>
