<svg width="38" height="38" viewBox="0 0 38 38" fill="none" xmlns="http://www.w3.org/2000/svg">
<g clip-path="url(#clip0)">
<path d="M21.3008 0C20.6854 0 20.1875 0.497934 20.1875 1.11328V16.7734C20.1875 17.3888 20.6854 17.8867 21.3008 17.8867H36.8867C37.5021 17.8867 38 17.3888 38 16.7734C38 7.56497 30.5092 0 21.3008 0Z" fill="white"/>
<path d="M23.3632 35.5038L17.9609 21.0243V5.64062C17.9609 5.02528 17.463 4.52734 16.8477 4.52734C7.63919 4.52734 0 12.0181 0 21.2266C0 30.435 7.63919 38 16.8477 38C18.8633 38 20.8365 37.6423 22.712 36.9378C23.2871 36.7214 23.5785 36.08 23.3632 35.5038Z" fill="white"/>
<path d="M36.887 20.1133H21.301C20.9357 20.1133 20.5944 20.2927 20.3856 20.5927C20.1779 20.8928 20.1301 21.2755 20.2584 21.6179L25.7313 36.2866C25.8356 36.5628 26.0444 36.7867 26.314 36.9085C26.5838 37.0312 26.8878 37.0415 27.1664 36.9367C33.646 34.4981 38.0002 28.1411 38.0002 21.2266C38.0002 20.6112 37.5023 20.1133 36.887 20.1133Z" fill="white"/>
</g>
<defs>
<clipPath id="clip0">
<rect width="38" height="38" fill="white"/>
</clipPath>
</defs>
</svg>
