<svg width="19" height="19" viewBox="0 0 19 19" fill="none" xmlns="http://www.w3.org/2000/svg">
<path d="M1.21094 15.6641C0.707031 16.1797 0.683594 17.0938 1.22266 17.6211C1.76172 18.1484 2.66406 18.1367 3.17969 17.6328L9.83594 10.9766L16.4805 17.6328C17.0078 18.1484 17.9102 18.1602 18.4375 17.6211C18.9648 17.082 18.9766 16.1914 18.4492 15.6641L11.793 9.00781L18.4492 2.36328C18.9766 1.83594 18.9766 0.933594 18.4375 0.40625C17.8984 -0.121094 17.0078 -0.121094 16.4805 0.394531L9.83594 7.05078L3.17969 0.394531C2.66406 -0.109375 1.75 -0.132812 1.22266 0.40625C0.695312 0.945312 0.707031 1.84766 1.21094 2.35156L7.86719 9.00781L1.21094 15.6641Z" fill="black"/>
</svg>