<svg width="47" height="47" viewBox="0 0 47 47" fill="none" xmlns="http://www.w3.org/2000/svg">
<path d="M5.71622 27.9456C2.56442 27.9456 0 30.51 0 33.6618C0 36.8136 2.56442 39.378 5.71622 39.378C8.86801 39.378 11.4324 36.8136 11.4324 33.6618C11.4324 32.857 11.2632 32.0913 10.9619 31.3962L17.7807 27.5C18.9306 29.1397 20.7638 30.2641 22.8654 30.4547V35.6053C20.0118 35.9223 17.7843 38.347 17.7843 41.2838C17.7843 44.4356 20.3487 47 23.5005 47C26.6523 47 29.2162 44.4351 29.2162 41.2833C29.2162 38.3465 26.9887 35.9218 24.1351 35.6048V30.4541C26.2367 30.2636 28.0694 29.1392 29.2198 27.4995L36.0386 31.3957C35.7368 32.0913 35.5676 32.857 35.5676 33.6618C35.5676 36.8136 38.132 39.378 41.2838 39.378C44.4356 39.378 47 36.8136 47 33.6618C47 30.51 44.4356 27.9456 41.2838 27.9456C39.3911 27.9456 37.7148 28.8745 36.6737 30.2961L29.8493 26.3964C30.2543 25.5123 30.486 24.5337 30.486 23.4997C30.486 22.4658 30.2543 21.4866 29.8493 20.6031L36.6737 16.7034C37.7148 18.125 39.3906 19.0538 41.2838 19.0538C44.4356 19.0538 47 16.4895 47 13.3377C47 10.1859 44.4356 7.62154 41.2838 7.62154C38.132 7.62154 35.5676 10.1859 35.5676 13.3377C35.5676 14.1425 35.7368 14.9082 36.0381 15.6033L29.2193 19.4995C28.0694 17.8598 26.2362 16.7354 24.1346 16.5448V11.3947C26.9882 11.0777 29.2157 8.65299 29.2157 5.71615C29.2157 2.56439 26.6513 0 23.4995 0C20.3477 0 17.7838 2.56439 17.7838 5.71615C17.7838 8.65299 20.0113 11.0777 22.8649 11.3947V16.5453C20.7633 16.7359 18.9306 17.8603 17.7802 19.5L10.9614 15.6038C11.2632 14.9082 11.4319 14.143 11.4319 13.3382C11.4319 10.1864 8.8675 7.62205 5.71571 7.62205C2.56391 7.62205 0 10.1859 0 13.3377C0 16.4895 2.56442 19.0538 5.71622 19.0538C7.60892 19.0538 9.28517 18.125 10.3263 16.7034L17.1507 20.6031C16.7457 21.4872 16.514 22.4658 16.514 23.4997C16.514 24.5337 16.7457 25.5128 17.1507 26.3964L10.3268 30.2961C9.28517 28.8745 7.60892 27.9456 5.71622 27.9456ZM5.71622 38.1077C3.26459 38.1077 1.27027 36.1134 1.27027 33.6618C1.27027 31.2102 3.26459 29.2159 5.71622 29.2159C7.1379 29.2159 8.40207 29.8886 9.21657 30.9302C9.47723 31.263 9.69064 31.6329 9.84866 32.0323C10.0489 32.5379 10.1622 33.0866 10.1622 33.6623C10.1622 36.1134 8.16784 38.1077 5.71622 38.1077ZM37.1513 32.0318C37.3094 31.6329 37.5228 31.263 37.7834 30.9297C38.5979 29.8886 39.8621 29.2154 41.2838 29.2154C43.7354 29.2154 45.7297 31.2097 45.7297 33.6613C45.7297 36.1129 43.7354 38.1072 41.2838 38.1072C38.8322 38.1072 36.8378 36.1129 36.8378 33.6613C36.8378 33.0861 36.9511 32.5374 37.1513 32.0318ZM41.2838 8.8918C43.7354 8.8918 45.7297 10.8861 45.7297 13.3377C45.7297 15.7893 43.7354 17.7836 41.2838 17.7836C39.8621 17.7836 38.5979 17.1109 37.7834 16.0693C37.5228 15.7364 37.3094 15.3665 37.1513 14.9672C36.9511 14.4621 36.8378 13.9134 36.8378 13.3377C36.8378 10.8861 38.8322 8.8918 41.2838 8.8918ZM27.9459 41.2833C27.9459 43.7349 25.9516 45.7292 23.5 45.7292C21.0484 45.7292 19.0541 43.7349 19.0541 41.2833C19.0541 39.0482 20.714 37.1982 22.8649 36.8882C23.0727 36.8583 23.2841 36.8374 23.5 36.8374C23.7159 36.8374 23.9273 36.8583 24.1351 36.8882C26.286 37.1982 27.9459 39.0482 27.9459 41.2833ZM19.0541 5.71615C19.0541 3.26456 21.0484 1.27026 23.5 1.27026C25.9516 1.27026 27.9459 3.26456 27.9459 5.71615C27.9459 7.9513 26.286 9.8013 24.1351 10.1112C23.9273 10.1412 23.7159 10.1621 23.5 10.1621C23.2841 10.1621 23.0727 10.1412 22.8649 10.1112C20.714 9.8013 19.0541 7.9513 19.0541 5.71615ZM18.2543 21.2341C18.4245 20.8419 18.6405 20.475 18.8899 20.1341C19.8127 18.874 21.2343 18.0026 22.8649 17.8212C23.0737 17.7978 23.2851 17.7836 23.5 17.7836C23.7149 17.7836 23.9263 17.7978 24.1351 17.8212C25.7657 18.0026 27.1873 18.874 28.1101 20.1341C28.3595 20.475 28.5755 20.8419 28.7457 21.2341C29.0475 21.9297 29.2162 22.6949 29.2162 23.4997C29.2162 24.3046 29.047 25.0703 28.7457 25.7654C28.5755 26.1576 28.3595 26.5245 28.1101 26.8654C27.1873 28.1255 25.7657 28.9969 24.1351 29.1783C23.9263 29.2017 23.7149 29.2159 23.5 29.2159C23.2851 29.2159 23.0737 29.2017 22.8649 29.1783C21.2343 28.9969 19.8127 28.1255 18.8899 26.8654C18.6405 26.5245 18.4245 26.1576 18.2543 25.7654C17.953 25.0703 17.7838 24.3046 17.7838 23.4997C17.7838 22.6949 17.953 21.9292 18.2543 21.2341ZM9.84866 14.9677C9.69064 15.3665 9.47723 15.7364 9.21657 16.0698C8.40207 17.1109 7.1379 17.7836 5.71622 17.7836C3.26459 17.7836 1.27027 15.7893 1.27027 13.3377C1.27027 10.8861 3.26459 8.8918 5.71622 8.8918C8.16784 8.8918 10.1622 10.8861 10.1622 13.3377C10.1622 13.9134 10.0489 14.4621 9.84866 14.9677Z" fill="black"/>
</svg>
