<svg width="24" height="24" viewBox="0 0 24 24" fill="none" xmlns="http://www.w3.org/2000/svg">
<path d="M17.01 8.00046H11C10.45 8.00046 10 8.45046 10 9.00046C10 9.55046 10.45 10.0005 11 10.0005H17.01V11.7905C17.01 12.2405 17.55 12.4605 17.86 12.1405L20.64 9.35046C20.83 9.15046 20.83 8.84046 20.64 8.64046L17.86 5.85046C17.55 5.53046 17.01 5.76046 17.01 6.20046V8.00046ZM3.35002 15.3505L6.14002 18.1405C6.45002 18.4605 6.99002 18.2405 6.99002 17.7905V16.0005H13C13.55 16.0005 14 15.5505 14 15.0005C14 14.4505 13.55 14.0005 13 14.0005H6.99002V12.2105C6.99002 11.7605 6.45002 11.5405 6.14002 11.8605L3.35002 14.6505C3.16002 14.8405 3.16002 15.1605 3.35002 15.3505Z" fill="black"/>
</svg>
