<?xml version="1.0" standalone="no"?>
<!DOCTYPE svg PUBLIC "-//W3C//DTD SVG 20010904//EN"
 "http://www.w3.org/TR/2001/REC-SVG-20010904/DTD/svg10.dtd">
<svg version="1.0" xmlns="http://www.w3.org/2000/svg"
 width="640.000000pt" height="640.000000pt" viewBox="0 0 640.000000 640.000000"
 preserveAspectRatio="xMidYMid meet">
<metadata>
Created by potrace 1.11, written by Peter Selinger 2001-2013
</metadata>
<g transform="translate(0.000000,640.000000) scale(0.100000,-0.100000)"
fill="#000000" stroke="none">
<path d="M3177 6386 c-9 -9 -18 -16 -20 -16 -3 0 -44 -22 -92 -50 -48 -27 -88
-50 -90 -50 -1 0 -64 -36 -140 -80 -76 -44 -139 -80 -141 -80 -3 0 -21 -10
-42 -23 -20 -13 -63 -38 -94 -55 -31 -17 -171 -96 -310 -175 -139 -79 -273
-155 -298 -169 -25 -14 -120 -68 -211 -120 -91 -52 -172 -98 -180 -101 -8 -4
-29 -16 -48 -28 -53 -32 -284 -164 -301 -172 -8 -4 -28 -15 -45 -25 -16 -10
-57 -34 -90 -52 -33 -18 -64 -36 -70 -40 -5 -4 -41 -24 -80 -45 -38 -21 -78
-45 -87 -53 -10 -8 -18 -12 -18 -8 0 4 -12 -1 -27 -12 -16 -11 -59 -36 -98
-57 -38 -21 -73 -43 -77 -49 -4 -6 -8 -7 -8 -2 0 5 -8 2 -17 -6 -10 -9 -23
-17 -28 -19 -6 -2 -45 -24 -88 -49 l-77 -44 2 -1604 3 -1603 25 -15 c23 -13
520 -296 585 -333 17 -10 62 -35 100 -56 39 -21 72 -41 75 -44 3 -3 30 -19 60
-35 30 -16 62 -35 70 -42 8 -7 17 -12 20 -11 5 1 133 -71 192 -109 21 -13 39
-24 42 -24 2 0 60 -32 128 -71 207 -120 242 -140 261 -146 9 -3 17 -9 17 -13
0 -4 11 -11 25 -14 14 -4 25 -11 25 -16 0 -6 5 -10 10 -10 6 0 102 -52 213
-116 111 -64 227 -130 257 -147 30 -17 84 -48 119 -69 34 -21 64 -38 66 -38 2
0 117 -65 255 -145 l252 -144 47 26 c67 36 275 155 589 336 73 43 135 77 138
77 3 0 10 5 17 10 14 12 186 111 312 179 17 9 32 18 35 21 3 3 15 10 27 17 11
7 113 65 225 129 111 64 223 128 248 142 116 66 794 454 860 493 41 24 86 50
100 57 14 7 34 18 45 25 11 7 50 29 88 50 l67 38 0 1602 0 1603 -112 64 c-62
36 -120 70 -130 75 -9 6 -39 22 -65 36 -26 15 -64 36 -83 47 -59 35 -274 157
-290 165 -8 4 -28 16 -45 27 -16 11 -39 24 -50 29 -11 5 -66 36 -123 70 -57
34 -105 61 -107 61 -2 0 -28 14 -57 31 -29 18 -82 47 -118 67 -36 19 -66 39
-68 43 -2 5 -7 9 -12 9 -9 0 -37 16 -325 180 -60 35 -135 77 -165 93 -30 17
-83 48 -118 69 -34 21 -64 38 -66 38 -2 0 -73 40 -158 88 -334 193 -685 392
-700 397 -8 3 -22 -1 -31 -9z m80 -606 c4 -8 58 -101 120 -207 62 -105 113
-195 113 -199 0 -4 6 -15 14 -23 7 -9 25 -36 38 -61 14 -25 39 -68 56 -96 18
-28 32 -56 32 -63 0 -6 4 -11 9 -11 5 0 11 -8 14 -17 4 -10 17 -36 30 -58 13
-22 61 -103 106 -180 44 -77 85 -147 90 -155 5 -8 52 -87 103 -175 51 -88 98
-167 103 -176 6 -9 21 -36 34 -60 13 -24 59 -102 101 -174 107 -180 212 -360
245 -420 15 -27 36 -62 46 -77 11 -14 19 -29 19 -33 0 -3 16 -31 35 -61 19
-30 35 -57 35 -59 0 -3 11 -23 25 -45 14 -22 25 -44 25 -49 0 -5 -568 -9
-1450 -9 -797 0 -1450 3 -1450 7 0 4 19 38 43 76 23 39 48 81 55 95 7 14 21
39 32 55 20 31 34 55 66 115 10 19 21 37 24 40 3 3 17 26 30 53 14 26 28 47
32 47 5 0 8 4 8 9 0 5 53 100 118 210 136 234 127 219 171 296 19 33 39 63 45
67 6 4 8 8 4 8 -6 0 49 100 69 125 5 6 19 31 33 58 14 26 28 47 32 47 5 0 8 9
8 19 0 11 3 21 8 23 6 2 240 397 287 483 6 11 43 75 83 142 39 67 72 126 72
132 0 5 4 11 8 13 4 2 57 87 117 191 l108 187 23 -37 c13 -21 27 -45 31 -53z
m-524 -47 c-7 -2 -13 -9 -13 -14 0 -5 -18 -38 -40 -73 -22 -35 -40 -68 -40
-75 0 -6 -4 -11 -9 -11 -5 0 -11 -8 -15 -17 -3 -10 -14 -31 -23 -48 -67 -112
-93 -157 -93 -165 0 -4 -4 -10 -8 -12 -4 -1 -19 -23 -33 -48 -88 -158 -194
-336 -201 -338 -4 -2 -8 -8 -8 -13 0 -6 -23 -49 -51 -97 -29 -48 -60 -100 -69
-117 -10 -16 -47 -81 -84 -144 -36 -62 -66 -118 -66 -122 0 -5 -4 -9 -10 -9
-5 0 -10 -4 -10 -9 0 -10 -110 -199 -141 -243 -10 -15 -19 -34 -19 -42 0 -8
-4 -16 -8 -18 -4 -1 -68 -106 -141 -232 -73 -126 -149 -255 -168 -288 -38 -65
-37 -65 -69 2 -5 8 -22 38 -39 65 -17 28 -35 57 -39 65 -4 8 -12 24 -19 35 -7
11 -28 47 -47 80 -19 33 -39 67 -45 76 -5 9 -22 38 -38 65 -29 51 -39 69 -100
172 -20 35 -37 65 -37 68 0 3 -13 25 -30 49 -16 24 -30 48 -30 53 0 6 -3 12
-7 14 -5 2 -18 21 -29 43 -26 49 -117 205 -138 238 -16 23 -16 23 176 133 105
60 218 123 250 141 32 18 89 50 126 72 119 69 176 102 207 117 17 8 44 23 60
34 17 11 37 23 45 27 8 4 38 20 65 36 64 38 100 59 210 120 50 27 169 95 265
150 96 55 200 114 230 130 30 16 60 33 65 37 12 10 73 43 137 77 26 14 51 29
54 34 3 5 13 9 22 8 11 0 12 -3 5 -6z m1041 -45 c50 -28 99 -58 109 -66 9 -8
17 -11 17 -7 0 4 8 1 18 -7 9 -8 53 -35 97 -58 44 -24 91 -51 105 -60 14 -9
39 -24 55 -32 17 -8 107 -59 200 -113 94 -54 186 -107 205 -118 39 -22 388
-220 435 -247 17 -10 46 -26 65 -36 19 -11 37 -21 40 -24 6 -6 84 -49 117 -64
13 -6 23 -14 23 -18 0 -5 5 -8 10 -8 6 0 54 -25 108 -56 53 -31 117 -68 142
-82 85 -47 82 -41 44 -102 -19 -30 -37 -62 -41 -70 -4 -8 -41 -73 -84 -146
-42 -72 -88 -151 -102 -175 -81 -144 -258 -446 -267 -456 -5 -7 -10 -14 -10
-17 0 -3 -24 -46 -53 -96 l-53 -90 -154 262 c-84 145 -192 330 -239 411 -47
82 -98 170 -114 195 -15 26 -30 55 -33 65 -4 9 -10 17 -15 17 -5 0 -9 4 -9 10
0 5 -37 71 -81 147 -45 76 -90 153 -100 171 -11 17 -29 49 -41 70 -11 20 -26
46 -32 57 -6 11 -24 39 -39 62 -15 24 -27 45 -27 47 0 2 -27 50 -60 105 -33
56 -60 106 -60 111 0 6 -4 10 -10 10 -5 0 -10 4 -10 10 0 5 -30 60 -67 122
-38 62 -70 118 -72 123 -2 6 -17 33 -34 60 -16 28 -36 59 -42 70 -7 11 -12 23
-11 26 1 4 -8 16 -18 28 -29 32 -12 26 88 -31z m-2965 -1723 c34 -57 61 -109
61 -115 0 -5 5 -10 10 -10 6 0 10 -4 10 -10 0 -5 27 -54 60 -108 33 -55 60
-103 60 -107 0 -5 11 -23 25 -41 14 -18 25 -35 25 -39 0 -3 20 -39 45 -79 25
-41 45 -79 45 -85 0 -6 4 -11 8 -11 4 0 13 -12 20 -27 6 -16 26 -50 43 -78 33
-53 33 -52 -14 -130 -7 -11 -30 -51 -52 -90 -21 -38 -43 -71 -47 -73 -4 -2 -8
-8 -8 -13 0 -4 -24 -48 -52 -96 -29 -48 -62 -104 -73 -124 -16 -29 -110 -189
-150 -257 -5 -9 -25 -43 -43 -75 -19 -31 -38 -55 -43 -51 -5 3 -7 9 -4 14 3 5
5 391 5 859 0 468 2 851 4 851 2 0 31 -47 65 -105z m4849 -1192 l-3 -438 -40
70 c-22 39 -42 75 -44 80 -2 6 -7 12 -10 15 -6 4 -117 195 -213 365 -16 28
-33 57 -38 65 -36 58 -120 202 -120 206 0 3 -9 19 -21 35 l-20 29 129 223
c194 333 307 528 331 567 11 19 26 46 33 60 15 28 20 -462 16 -1277z m-1013
237 c-7 -14 -47 -82 -87 -151 -41 -68 -77 -131 -81 -139 -4 -8 -17 -31 -28
-50 -12 -19 -55 -93 -97 -165 -41 -71 -82 -141 -91 -155 -9 -14 -21 -34 -27
-45 -25 -47 -68 -121 -164 -285 -56 -96 -113 -194 -126 -217 -13 -23 -54 -93
-90 -155 -37 -62 -74 -126 -84 -143 -21 -38 -180 -309 -253 -435 -31 -52 -77
-131 -102 -175 -25 -44 -59 -102 -76 -130 -16 -27 -32 -58 -36 -68 -3 -9 -9
-17 -14 -17 -5 0 -9 -4 -9 -9 0 -13 -71 -131 -79 -131 -4 0 -15 17 -26 38 -11
20 -62 108 -112 195 -51 87 -93 162 -93 167 0 6 -4 10 -8 10 -5 0 -17 18 -27
40 -10 22 -24 45 -31 51 -8 6 -12 15 -9 19 3 4 -2 13 -10 20 -8 7 -15 19 -15
26 0 8 -4 14 -10 14 -5 0 -10 4 -10 10 0 5 -29 58 -64 117 -160 273 -196 336
-196 344 0 5 -4 9 -10 9 -5 0 -10 5 -10 10 0 6 -20 43 -43 83 -58 96 -220 374
-253 434 -15 27 -35 60 -45 75 -11 14 -19 29 -19 33 0 3 -13 26 -30 50 -16 24
-30 46 -30 49 0 4 -18 36 -40 72 -22 36 -40 68 -40 70 0 3 -11 21 -23 42 -46
72 -57 92 -58 99 0 5 -6 15 -13 23 -7 8 -32 49 -56 90 -90 159 -154 266 -167
281 -10 12 -11 18 -3 21 6 2 663 3 1459 3 l1449 0 -13 -25z m-3148 -226 c10
-13 26 -40 64 -112 17 -31 37 -64 45 -73 8 -8 14 -18 14 -22 0 -4 26 -51 58
-104 32 -54 70 -118 84 -143 30 -53 115 -198 128 -220 32 -52 130 -220 130
-223 0 -2 25 -45 55 -96 31 -50 64 -106 74 -124 24 -42 429 -738 440 -757 40
-63 101 -171 101 -176 0 -3 9 -17 20 -31 11 -14 20 -30 20 -35 0 -9 -74 29
-122 64 -16 11 -28 16 -28 12 0 -4 -8 -1 -17 7 -10 8 -29 20 -43 28 -14 8 -63
37 -110 64 -47 27 -110 63 -140 79 -30 17 -98 56 -150 87 -52 30 -97 56 -100
56 -3 0 -12 5 -20 10 -38 25 -77 46 -92 51 -10 4 -18 11 -18 16 0 5 -4 7 -9 3
-5 -3 -12 -1 -16 4 -3 6 -40 29 -83 53 -42 23 -90 51 -107 60 -16 10 -41 24
-55 30 -14 7 -27 15 -30 19 -3 3 -18 12 -35 21 -16 8 -104 58 -195 110 -199
115 -258 148 -287 162 -13 6 -23 14 -23 19 0 4 -4 7 -9 7 -6 0 -38 17 -73 37
-35 20 -64 35 -64 32 -1 -2 -10 3 -20 11 -11 9 -31 22 -46 30 -27 13 -37 43
-19 55 6 3 16 18 24 33 7 15 85 149 172 297 87 149 168 288 179 310 12 22 23
42 26 45 10 10 60 90 60 96 0 3 22 43 49 88 85 140 102 170 108 190 5 16 10
12 29 -20 12 -22 26 -44 31 -50z m3563 -99 c136 -234 247 -425 324 -555 37
-63 71 -122 76 -130 5 -8 28 -49 51 -90 24 -41 49 -82 56 -91 7 -9 10 -19 6
-22 -3 -4 -1 -7 5 -7 23 0 12 -37 -15 -51 -16 -7 -52 -28 -81 -46 -29 -18 -54
-33 -57 -33 -2 0 -42 -23 -89 -50 -47 -27 -89 -50 -95 -50 -6 0 -11 -4 -11
-10 0 -5 -4 -10 -8 -10 -5 0 -144 -77 -308 -172 -164 -94 -316 -181 -336 -192
-20 -12 -65 -37 -100 -57 -74 -42 -102 -58 -223 -127 -49 -28 -95 -56 -102
-62 -7 -5 -15 -10 -18 -10 -2 0 -75 -41 -161 -90 -85 -49 -159 -90 -165 -90
-5 0 -9 -4 -9 -8 0 -4 -12 -13 -27 -20 -16 -6 -41 -20 -58 -31 -16 -11 -33
-20 -37 -20 -4 -1 15 37 42 83 28 47 50 89 50 95 0 5 4 11 9 13 4 2 19 23 32
48 14 25 47 83 74 129 28 45 59 99 71 120 112 198 300 517 306 519 4 2 8 8 8
13 0 6 24 51 54 102 106 181 221 379 253 437 14 25 32 53 41 63 8 9 12 17 8
17 -4 0 1 12 12 28 17 23 94 155 155 262 82 147 161 270 167 263 4 -4 49 -80
100 -168z"/>
</g>
</svg>
