<svg width="27" height="27" viewBox="0 0 27 27" fill="none" xmlns="http://www.w3.org/2000/svg">
<mask id="mask0" mask-type="alpha" maskUnits="userSpaceOnUse" x="0" y="0" width="28" height="27">
<path fill-rule="evenodd" clip-rule="evenodd" d="M0 0H27.0001V26.9995H0V0Z" fill="white"/>
</mask>
<g mask="url(#mask0)">
<path fill-rule="evenodd" clip-rule="evenodd" d="M20.0774 0H6.92287C4.51579 0 3.64234 0.249752 2.76213 0.720907C1.88192 1.19071 1.19206 1.88192 0.720907 2.76213C0.249752 3.64234 0 4.51444 0 6.92152V20.0774C0 22.4845 0.249752 23.3566 0.720907 24.2368C1.19206 25.117 1.88192 25.8082 2.76213 26.278C3.64234 26.7492 4.51579 27.0003 6.92287 27.0003H20.0774C22.4845 27.0003 23.3579 26.7492 24.2381 26.278C25.117 25.8082 25.8082 25.117 26.2794 24.2368C26.7492 23.3566 27.0003 22.4845 27.0003 20.0774V6.92152C27.0003 4.51444 26.7492 3.64234 26.2794 2.76213C25.8082 1.88192 25.117 1.19071 24.2381 0.720907C23.3579 0.249752 22.4845 0 20.0774 0ZM17.5343 20.3401C17.3482 20.4104 17.1596 20.4817 16.97 20.5594C17.066 20.7068 17.1647 20.8511 17.263 20.995C17.3989 21.1938 17.5341 21.3916 17.6608 21.5951C17.8487 21.9236 18.0976 22.0182 18.4328 21.9681C19.4436 21.8178 20.4188 21.5394 21.3483 21.0828C22.3236 20.5984 23.1921 19.9637 23.8067 18.9726C23.9388 18.761 24.0048 18.5438 23.9997 18.2766C23.9794 16.9848 23.8473 15.7098 23.634 14.4458C23.2835 12.408 22.7451 10.4369 22.0137 8.51598C21.5414 7.27433 20.7744 6.42243 19.6366 5.92132C18.636 5.48145 17.61 5.18078 16.5433 5.01931C16.0049 4.94136 15.8119 5.08612 15.7154 5.6986C15.7688 5.70973 15.8221 5.72226 15.8754 5.73479C15.9288 5.74732 15.9821 5.75985 16.0354 5.77098C17.3002 6.04381 18.509 6.49481 19.6214 7.22421C19.8957 7.40796 19.9871 7.69192 19.855 7.94805C19.723 8.21531 19.4385 8.27655 19.1541 8.08724C17.7522 7.17967 16.2233 6.7231 14.6183 6.5672C12.2158 6.33334 9.93012 6.78991 7.81206 8.10952C7.71047 8.17076 7.57333 8.20417 7.45651 8.18747C7.26858 8.15963 7.14159 8.02043 7.10604 7.80328C7.06032 7.55272 7.16191 7.38012 7.35492 7.25205C8.15237 6.71753 9.00569 6.33334 9.90472 6.06051C10.2293 5.96169 10.5589 5.8769 10.8882 5.7922C11.0228 5.75759 11.1573 5.72299 11.2914 5.68746C11.1593 5.09726 11.0069 4.95249 10.565 5.01374C9.49838 5.15851 8.46729 5.44247 7.46667 5.88791C6.35938 6.38345 5.5213 7.13513 5.03877 8.38791C3.84006 11.4948 3.12896 14.7075 3.00198 18.0817C2.98166 18.5438 3.1188 18.9002 3.36769 19.2454C3.89593 19.9748 4.57148 20.5093 5.32829 20.9213C6.34415 21.4726 7.41587 21.8122 8.53839 21.9681C8.56204 21.9712 8.58613 21.9748 8.61047 21.9784C8.80578 22.0073 9.01806 22.0387 9.15807 21.8456C9.36961 21.5596 9.56892 21.2602 9.77468 20.9511C9.86534 20.8149 9.95725 20.6768 10.052 20.5372C10.0016 20.5208 9.95734 20.5059 9.91675 20.4923C9.84695 20.4688 9.78797 20.449 9.72695 20.4314C8.62982 20.075 7.58857 19.585 6.66922 18.8167C6.41526 18.6051 6.36446 18.3044 6.527 18.0706C6.69462 17.8311 6.95366 17.82 7.22286 18.0205C7.25119 18.041 7.27953 18.0616 7.30788 18.0822C7.60983 18.3016 7.91325 18.5221 8.23364 18.7053C9.61012 19.4848 11.0933 19.8746 12.6323 19.9581C15.2075 20.0973 17.6608 19.6741 19.8246 17.9815C20.0023 17.8423 20.1852 17.8311 20.368 17.9648C20.6271 18.1597 20.6423 18.5772 20.3528 18.7833C19.7992 19.1674 19.2404 19.5516 18.6512 19.8634C18.2979 20.0515 17.9214 20.1938 17.5343 20.3401ZM17.6506 13.1541C17.93 13.5494 18.057 14.0004 18.062 14.4904C18.057 14.9971 17.9198 15.4592 17.6354 15.8601C17.0157 16.7009 15.9338 16.7008 15.3091 15.8657C14.73 15.0917 14.725 13.9224 15.2938 13.1429C15.9237 12.2743 17.0259 12.2799 17.6506 13.1541ZM9.30537 15.771C9.0514 15.3924 8.93458 14.9637 8.93458 14.4514C8.93458 13.967 9.08188 13.4937 9.39172 13.0928C10.0165 12.291 11.078 12.3022 11.6875 13.1207C12.2463 13.8668 12.2767 14.9971 11.7536 15.7766C11.1187 16.7287 9.94028 16.7287 9.30537 15.771Z" fill="#787484"/>
</g>
</svg>
