<svg width="27" height="27" viewBox="0 0 27 27" fill="none" xmlns="http://www.w3.org/2000/svg">
<mask id="mask0" mask-type="alpha" maskUnits="userSpaceOnUse" x="0" y="0" width="27" height="27">
<path fill-rule="evenodd" clip-rule="evenodd" d="M0 0H26.9996V26.9997H0V0Z" fill="white"/>
</mask>
<g mask="url(#mask0)">
<path fill-rule="evenodd" clip-rule="evenodd" d="M17.6319 26.9867L17.6454 17.3463H20.9934C21.2904 17.3463 21.5456 17.1154 21.5739 16.8211L21.9519 13.7161C21.9911 13.3651 21.7089 13.0532 21.3579 13.0532H17.6319V10.449C17.6319 9.27454 17.9559 8.46453 19.6569 8.46453H21.2229C21.5456 8.46453 21.8169 8.20803 21.8169 7.87052V5.2515C21.8169 4.9275 21.5456 4.65749 21.2229 4.65749H18.6579C15.5393 4.65749 13.4063 6.56101 13.4063 10.044V13.0532H10.8953C10.5713 13.0532 10.3013 13.3246 10.3013 13.6486L10.3148 16.7536C10.3148 17.0776 10.5848 17.3463 10.9088 17.3463H13.4198L13.4063 26.9867H17.6319ZM6.92246 0H20.0783C22.4854 0 23.3575 0.249752 24.2391 0.720907C25.1179 1.19206 25.8091 1.88192 26.2789 2.76213C26.7501 3.64234 26.9999 4.51444 26.9999 6.92152V20.0774C26.9999 22.4845 26.7501 23.3579 26.2789 24.2368C25.8091 25.117 25.1179 25.8082 24.2391 26.2794C23.3575 26.7492 22.4854 27.0003 20.0783 27.0003H6.92246C4.51538 27.0003 3.64327 26.7492 2.76307 26.2794C1.88286 25.8082 1.19165 25.117 0.721845 24.2368C0.250691 23.3579 -0.000411987 22.4845 -0.000411987 20.0774V6.92152C-0.000411987 4.51444 0.250691 3.64234 0.721845 2.76213C1.19165 1.88192 1.88286 1.19206 2.76307 0.720907C3.64327 0.249752 4.51538 0 6.92246 0Z" fill="#787484"/>
</g>
</svg>
