<svg width="27" height="27" viewBox="0 0 27 27" fill="none" xmlns="http://www.w3.org/2000/svg">
<mask id="mask0" mask-type="alpha" maskUnits="userSpaceOnUse" x="0" y="0" width="28" height="27">
<path fill-rule="evenodd" clip-rule="evenodd" d="M0 0H27.0001V26.9995H0V0Z" fill="white"/>
</mask>
<g mask="url(#mask0)">
<path fill-rule="evenodd" clip-rule="evenodd" d="M20.0774 0H6.92287C4.51579 0 3.64234 0.249752 2.76213 0.720907C1.88192 1.19071 1.19206 1.88192 0.720907 2.76213C0.249752 3.64234 0 4.51444 0 6.92152V20.0774C0 22.4845 0.249752 23.3566 0.720907 24.2368C1.19206 25.117 1.88192 25.8082 2.76213 26.278C3.64234 26.7492 4.51579 27.0003 6.92287 27.0003H20.0774C22.4845 27.0003 23.3579 26.7492 24.2381 26.278C25.117 25.8082 25.8082 25.117 26.2794 24.2368C26.7492 23.3566 27.0003 22.4845 27.0003 20.0774V6.92152C27.0003 4.51444 26.7492 3.64234 26.2794 2.76213C25.8082 1.88192 25.117 1.19071 24.2381 0.720907C23.3579 0.249752 22.4845 0 20.0774 0ZM14.0947 19.6131C12.802 18.3337 11.5263 18.4213 10.4547 19.9022C9.76821 19.5297 9.08175 19.161 8.39591 18.7926C7.01699 18.052 5.64059 17.3127 4.27177 16.5461C3.4043 16.0554 2.94504 14.3904 3.32775 13.4528C3.54037 12.9446 3.87205 12.8307 4.34832 13.0935C5.18881 13.5503 6.0293 14.0048 6.86939 14.4591C8.34996 15.2597 9.82928 16.0597 11.3051 16.8703C11.7899 17.1332 12.2237 17.1419 12.7084 16.8791C13.7451 16.3238 14.7818 15.7693 15.8183 15.2149C18.4296 13.8181 21.0397 12.4219 23.6454 11.0168C23.841 10.9204 24.0962 10.6575 24.0792 10.5085C24.0537 10.3157 23.8155 10.0791 23.6114 9.98274C21.6303 8.99613 19.644 8.02537 17.6566 7.05405C17.0845 6.77446 16.5124 6.49482 15.9402 6.21474C15.3449 5.92556 14.7751 5.92556 14.1882 6.23226C13.3957 6.64331 12.5998 7.0475 11.8047 7.45127C11.3286 7.69308 10.8528 7.93472 10.3781 8.1776C8.04785 9.36934 5.70906 10.5698 3.37878 11.7704C2.91102 12.0069 2.53682 12.3399 2.29869 12.8394C1.52476 14.4781 2.3242 16.9579 3.89757 17.7816C4.65212 18.1802 5.40548 18.5801 6.15854 18.9798C7.40859 19.6433 8.65783 20.3063 9.91038 20.9625C10.1655 21.094 10.3186 21.2605 10.4122 21.5496C10.7098 22.4873 11.5773 23.0568 12.5128 22.9955C13.4568 22.9342 14.2393 22.2507 14.4008 21.278C14.4519 20.9538 14.605 20.8136 14.8516 20.6734C15.293 20.4279 15.7348 20.1824 16.1767 19.9369C17.8804 18.9903 19.5861 18.0426 21.2811 17.0894C21.5193 16.9579 21.6809 16.9492 21.9275 17.0981C22.7524 17.5976 23.79 17.4048 24.4449 16.6688C25.0997 15.9414 25.1848 14.811 24.649 13.9961C24.1217 13.1987 23.0926 12.8657 22.1996 13.2162C21.2981 13.5667 20.7368 14.4868 20.8814 15.4683C20.9324 15.81 20.8134 15.9502 20.5412 16.0992C19.1578 16.8528 17.7744 17.6141 16.391 18.3755C15.6993 18.7562 15.0075 19.1369 14.3158 19.5167C14.2512 19.5537 14.1865 19.5782 14.127 19.6007C14.116 19.6049 14.1053 19.609 14.0947 19.6131ZM22.2592 15.2141C22.2592 14.811 22.5398 14.5131 22.9225 14.5219C23.2882 14.5219 23.6029 14.8373 23.6029 15.2229C23.6029 15.6085 23.2967 15.9152 22.9225 15.9152C22.5483 15.9064 22.2592 15.6085 22.2592 15.2141ZM12.3767 20.1826C12.7424 20.1914 13.0486 20.5244 13.0401 20.8924C13.0316 21.2692 12.7254 21.5847 12.3597 21.5759C11.9855 21.5672 11.7049 21.2605 11.7049 20.8661C11.7049 20.4718 12.0025 20.1739 12.3767 20.1826Z" fill="#787484"/>
</g>
</svg>
