<svg width="27" height="27" viewBox="0 0 27 27" fill="none" xmlns="http://www.w3.org/2000/svg">
<mask id="mask0" mask-type="alpha" maskUnits="userSpaceOnUse" x="0" y="0" width="28" height="27">
<path fill-rule="evenodd" clip-rule="evenodd" d="M0 0H27.0001V26.9995H0V0Z" fill="white"/>
</mask>
<g mask="url(#mask0)">
<path fill-rule="evenodd" clip-rule="evenodd" d="M20.0774 0H6.92287C4.51579 0 3.64234 0.249752 2.76213 0.720907C1.88192 1.19071 1.19206 1.88192 0.720907 2.76213C0.249752 3.64234 0 4.51444 0 6.92152V20.0774C0 22.4845 0.249752 23.3566 0.720907 24.2368C1.19206 25.117 1.88192 25.8082 2.76213 26.278C3.64234 26.7492 4.51579 27.0003 6.92287 27.0003H20.0774C22.4845 27.0003 23.3579 26.7492 24.2381 26.278C25.117 25.8082 25.8082 25.117 26.2794 24.2368C26.7492 23.3566 27.0003 22.4845 27.0003 20.0774V6.92152C27.0003 4.51444 26.7492 3.64234 26.2794 2.76213C25.8082 1.88192 25.117 1.19071 24.2381 0.720907C23.3579 0.249752 22.4845 0 20.0774 0ZM14.1113 3.01472C14.0677 3.00977 14.024 3.00482 13.9802 3C13.656 3 13.3298 3 13.0036 3.00203C12.9917 3.00461 12.9796 3.0076 12.9674 3.01061C12.9413 3.01707 12.9148 3.02361 12.8893 3.02638C12.8067 3.03399 12.7241 3.04074 12.6415 3.04749C12.5038 3.05875 12.3662 3.07 12.2285 3.08522C11.1834 3.20088 10.1818 3.47277 9.22396 3.89278C7.49311 4.65367 6.06771 5.78587 4.9623 7.29142C3.80078 8.87204 3.1608 10.6414 3.02367 12.5811C2.96964 13.3461 3.00912 14.107 3.13172 14.8658C3.31457 15.998 3.68027 17.0673 4.2309 18.0758C4.8023 19.1207 5.53786 20.0419 6.43549 20.8373C7.50974 21.7909 8.73567 22.4991 10.1133 22.9556C10.2255 22.9942 10.3564 22.9982 10.4769 22.9881C10.693 22.9698 10.8468 22.8237 10.8904 22.6147C10.9049 22.5397 10.907 22.4626 10.907 22.3855C10.9029 21.8376 10.8987 21.2898 10.8925 20.7419C10.8925 20.7119 10.8908 20.6819 10.889 20.6509C10.888 20.6336 10.887 20.616 10.8862 20.5979C10.8426 20.5999 10.8135 20.6019 10.7844 20.604C10.6863 20.6137 10.588 20.6248 10.4895 20.6358C10.2607 20.6616 10.0311 20.6874 9.8016 20.6973C9.36525 20.7156 8.93514 20.6669 8.52373 20.5147C7.98556 20.3158 7.59701 19.9648 7.38507 19.4352C7.22923 19.0477 7.00482 18.6967 6.74925 18.3659C6.59548 18.1671 6.41679 18.0027 6.19446 17.8749C6.07395 17.8059 5.96174 17.7105 5.87032 17.6071C5.73318 17.4549 5.78305 17.3331 5.98668 17.2844C6.00122 17.2804 6.01577 17.2784 6.03031 17.2763C6.33575 17.2195 6.62665 17.2642 6.90508 17.3981C7.32481 17.5989 7.62817 17.9216 7.88167 18.2969C7.89753 18.3204 7.91328 18.344 7.92907 18.3677C7.98569 18.4527 8.04271 18.5382 8.10608 18.6175C8.54035 19.1552 9.10137 19.4332 9.80784 19.417C10.1507 19.4088 10.4769 19.3257 10.799 19.212C10.9029 19.1735 10.9507 19.1187 10.9694 19.0091C11.0462 18.5587 11.2208 18.1508 11.5595 17.8221C11.5642 17.8175 11.567 17.8101 11.5704 17.8008C11.5729 17.794 11.5758 17.7861 11.5802 17.7775C11.5674 17.7757 11.5558 17.7735 11.5449 17.7715C11.531 17.7689 11.5182 17.7665 11.5054 17.7653C10.9195 17.6903 10.3398 17.5868 9.77875 17.394C9.19279 17.1931 8.65671 16.907 8.19958 16.4891C7.6261 15.9635 7.27078 15.3142 7.06716 14.5797C6.88223 13.9162 6.82197 13.2385 6.83859 12.5527C6.8469 12.2159 6.90093 11.8831 6.99651 11.5585C7.16066 11.0005 7.43701 10.5014 7.82349 10.0611C7.82746 10.0566 7.83147 10.0523 7.83548 10.0479C7.87552 10.0043 7.91416 9.96219 7.88583 9.88656C7.71544 9.42597 7.67596 8.95118 7.71544 8.46624C7.74661 8.07463 7.84427 7.69926 7.98141 7.332C8.00842 7.26098 8.0479 7.23055 8.12062 7.23055C8.14536 7.23055 8.17043 7.22991 8.19569 7.22927C8.23408 7.22829 8.27293 7.2273 8.31179 7.22852C8.60061 7.23664 8.87696 7.30765 9.14708 7.39896C9.72264 7.59375 10.2504 7.87984 10.7574 8.20652C10.8551 8.26942 10.9403 8.28768 11.0587 8.25724C11.6779 8.09289 12.3096 7.99753 12.9495 7.96506C13.9885 7.91231 15.0149 7.99753 16.0227 8.26333C16.1162 8.28971 16.1868 8.27551 16.2679 8.22275C16.4528 8.10304 16.6398 7.98941 16.833 7.88187C17.2964 7.62418 17.7743 7.39896 18.2979 7.2833C18.5389 7.23055 18.7821 7.19403 19.048 7.25084C19.0677 7.31414 19.0889 7.37818 19.1103 7.44279C19.1499 7.56253 19.1902 7.68424 19.2226 7.8068C19.4054 8.50276 19.4137 9.19669 19.1706 9.88048C19.1398 9.96284 19.1781 10.0054 19.2233 10.0555L19.2246 10.057C19.821 10.7306 20.1514 11.5159 20.2054 12.4026C20.2511 13.1594 20.1825 13.9122 19.9685 14.6447C19.6298 15.8032 18.9233 16.6656 17.7992 17.185C17.1426 17.4894 16.4445 17.6456 15.7297 17.741C15.7124 17.7434 15.695 17.7458 15.6774 17.7482C15.6067 17.7581 15.5341 17.7681 15.4575 17.7795C15.4908 17.8214 15.5235 17.8606 15.5551 17.8985C15.6199 17.9764 15.6801 18.0487 15.7318 18.1265C16.0164 18.5506 16.1266 19.0274 16.1328 19.5245C16.1402 20.0636 16.137 20.6028 16.1339 21.1419C16.1326 21.3576 16.1313 21.5732 16.1307 21.7889C16.1302 21.848 16.1294 21.907 16.1286 21.966C16.1259 22.1626 16.1232 22.3588 16.1328 22.5539C16.1453 22.8136 16.3385 22.982 16.6045 22.9982C16.7499 23.0084 16.8871 22.9739 17.0221 22.9252C18.6802 22.3388 20.1056 21.4156 21.2838 20.1352C22.8567 18.4268 23.746 16.4241 23.96 14.1374C24.039 13.2751 23.9995 12.4188 23.8541 11.5646C23.6172 10.1808 23.1144 8.89639 22.3352 7.71955C21.2069 6.01718 19.6942 4.74295 17.8013 3.90495C16.7437 3.43624 15.6341 3.15218 14.4768 3.05276C14.3544 3.0423 14.2331 3.02854 14.1113 3.01472Z" fill="#787484"/>
</g>
</svg>
