<svg width="28" height="27" viewBox="0 0 28 27" fill="none" xmlns="http://www.w3.org/2000/svg">
<mask id="mask0" mask-type="alpha" maskUnits="userSpaceOnUse" x="0" y="0" width="28" height="27">
<path fill-rule="evenodd" clip-rule="evenodd" d="M0.150421 0H27.1502V27H0.150421V0Z" fill="white"/>
</mask>
<g mask="url(#mask0)">
<path fill-rule="evenodd" clip-rule="evenodd" d="M16.8779 13.4932C16.8779 15.2212 15.4549 16.6293 13.7283 16.6293C11.9841 16.6293 10.5773 15.2212 10.5773 13.4932C10.5773 11.7652 11.9841 10.3706 13.7283 10.3706C15.4549 10.3706 16.8779 11.7652 16.8779 13.4932ZM18.6613 9.6605C19.289 9.6605 19.7899 9.14345 19.7899 8.51569C19.7899 7.90278 19.289 7.38708 18.6613 7.38708C18.0348 7.38708 17.5191 7.90278 17.5191 8.51569C17.5191 9.14345 18.0348 9.6605 18.6613 9.6605ZM13.7283 18.2048C16.3351 18.2048 18.452 16.0866 18.452 13.4932C18.452 10.8999 16.3351 8.7952 13.7283 8.7952C11.12 8.7952 9.00322 10.8999 9.00322 13.4932C9.00322 16.0866 11.12 18.2048 13.7283 18.2048ZM17.7 5.88182C19.7344 5.88182 21.3815 7.52749 21.3815 9.53361V17.4514C21.3815 19.4738 19.7344 21.1046 17.7 21.1046H9.74029C7.71932 21.1046 6.07501 19.4738 6.07501 17.4514V9.53361C6.07501 7.52749 7.71932 5.88182 9.74029 5.88182H17.7ZM22.9691 17.4528V9.53499C22.9691 6.65001 20.5998 4.30774 17.6986 4.30774H9.7403C6.84182 4.30774 4.48604 6.65001 4.48604 9.53499V17.4528C4.48604 20.3392 6.84182 22.6801 9.7403 22.6801H17.6986C20.5998 22.6801 22.9691 20.3392 22.9691 17.4528ZM7.07292 -0.00012207H20.2275C22.6359 -0.00012207 23.508 0.25098 24.3882 0.722135C25.2684 1.19194 25.9596 1.88315 26.4294 2.76336C26.9006 3.64356 27.1503 4.51567 27.1503 6.92275V20.0773C27.1503 22.4857 26.9006 23.3578 26.4294 24.2367C25.9596 25.1182 25.2684 25.8094 24.3882 26.2792C23.508 26.7504 22.6359 27.0001 20.2275 27.0001H7.07292C4.66585 27.0001 3.79374 26.7504 2.91353 26.2792C2.03332 25.8094 1.34212 25.1182 0.872312 24.2367C0.401157 23.3578 0.150055 22.4857 0.150055 20.0773V6.92275C0.150055 4.51567 0.401157 3.64356 0.872312 2.76336C1.34212 1.88315 2.03332 1.19194 2.91353 0.722135C3.79374 0.25098 4.66585 -0.00012207 7.07292 -0.00012207Z" fill="#787484"/>
</g>
</svg>
