<svg width="28" height="27" viewBox="0 0 28 27" fill="none" xmlns="http://www.w3.org/2000/svg">
<mask id="mask0" mask-type="alpha" maskUnits="userSpaceOnUse" x="0" y="0" width="28" height="27">
<path fill-rule="evenodd" clip-rule="evenodd" d="M0.300758 0H27.3009V26.9995H0.300758V0Z" fill="white"/>
</mask>
<g mask="url(#mask0)">
<path fill-rule="evenodd" clip-rule="evenodd" d="M23.1335 22.1362V16.7645C23.1335 14.4303 23.1605 10.1804 18.611 10.1804C16.5576 10.1804 15.5923 10.9324 14.943 11.9071V10.9392C14.943 10.6233 14.6865 10.3668 14.3706 10.3668H11.6233C11.3074 10.3668 11.0523 10.6233 11.0523 10.9392V22.1362C11.0523 22.4521 11.3074 22.7086 11.6233 22.7086H14.3706C14.6865 22.7086 14.943 22.4521 14.943 22.1362V16.1327C15.0145 15.3253 15.3696 13.5285 17.1206 13.5285C19.3778 13.5285 19.1496 16.1543 19.1496 16.9319V22.1362C19.1496 22.4521 19.4048 22.7086 19.722 22.7086H22.5625C22.8784 22.7086 23.1335 22.4521 23.1335 22.1362ZM7.3533 9.32044C8.74246 9.32044 9.86837 8.19453 9.86837 6.80537C9.86837 5.4162 8.74246 4.29029 7.3533 4.29029C5.96413 4.29029 4.83822 5.4162 4.83822 6.80537C4.83822 8.19453 5.96413 9.32044 7.3533 9.32044ZM9.29867 22.0862V10.9891C9.29867 10.6449 9.02057 10.3668 8.67766 10.3668H6.03029C5.68603 10.3668 5.40793 10.6449 5.40793 10.9891V22.0862C5.40793 22.4305 5.68603 22.7086 6.03029 22.7086H8.67766C9.02057 22.7086 9.29867 22.4305 9.29867 22.0862ZM7.22363 0H20.3782C22.7852 0 23.6587 0.249752 24.5389 0.720907C25.4178 1.19071 26.109 1.88192 26.5801 2.76213C27.0499 3.64234 27.301 4.51444 27.301 6.92152V20.0774C27.301 22.4845 27.0499 23.3566 26.5801 24.2368C26.109 25.117 25.4178 25.8082 24.5389 26.278C23.6587 26.7492 22.7852 27.0003 20.3782 27.0003H7.22363C4.81655 27.0003 3.94309 26.7492 3.06289 26.278C2.18268 25.8082 1.49282 25.117 1.02167 24.2368C0.550511 23.3566 0.300758 22.4845 0.300758 20.0774V6.92152C0.300758 4.51444 0.550511 3.64234 1.02167 2.76213C1.49282 1.88192 2.18268 1.19071 3.06289 0.720907C3.94309 0.249752 4.81655 0 7.22363 0Z" fill="#787484"/>
</g>
</svg>
