<svg width="28" height="27" viewBox="0 0 28 27" fill="none" xmlns="http://www.w3.org/2000/svg">
<mask id="mask0" mask-type="alpha" maskUnits="userSpaceOnUse" x="0" y="0" width="28" height="27">
<path fill-rule="evenodd" clip-rule="evenodd" d="M0.45118 0H27.4508V26.9996H0.45118V0Z" fill="white"/>
</mask>
<g mask="url(#mask0)">
<path fill-rule="evenodd" clip-rule="evenodd" d="M5.71219 8.89792V18.4452C5.77024 18.7895 5.66224 19.1405 5.41924 19.3929L3.15122 22.1443V22.5074H9.58403V22.1443L7.31466 19.3929C7.07031 19.1405 6.95555 18.7922 7.00281 18.4452V10.1885L12.6499 22.5074H13.306L18.1566 10.1885V20.0072C18.1566 20.2691 18.1566 20.319 17.9852 20.4905L16.2396 22.1848V22.5479H24.7096V22.1848L23.0261 20.5323C22.8776 20.4189 22.8034 20.2313 22.8358 20.0477V7.89891C22.8034 7.71531 22.8776 7.52901 23.0261 7.41561L24.7514 5.76184V5.40004H18.7817L14.5251 16.0152L9.68528 5.40004H3.42257V5.76184L5.43949 8.19187C5.63794 8.37007 5.73919 8.63197 5.71219 8.89792ZM7.3727 0H20.5286C22.9357 0 23.8078 0.249752 24.6893 0.720907C25.5682 1.19206 26.2594 1.88192 26.7292 2.76213C27.2003 3.64234 27.4515 4.51444 27.4515 6.92152V20.0774C27.4515 22.4845 27.2003 23.3566 26.7292 24.2368C26.2594 25.117 25.5682 25.8082 24.6893 26.2794C23.8078 26.7492 22.9357 27.0003 20.5286 27.0003H7.3727C4.96562 27.0003 4.09352 26.7492 3.21331 26.2794C2.3331 25.8082 1.64189 25.117 1.17209 24.2368C0.700932 23.3566 0.45118 22.4845 0.45118 20.0774V6.92152C0.45118 4.51444 0.700932 3.64234 1.17209 2.76213C1.64189 1.88192 2.3331 1.19206 3.21331 0.720907C4.09352 0.249752 4.96562 0 7.3727 0Z" fill="#787484"/>
</g>
</svg>
