<svg width="579" height="490" viewBox="0 0 579 490" fill="none" xmlns="http://www.w3.org/2000/svg">
<path d="M11.7 142C18.2 142 23.4 147.2 23.4 153.7V263.4C23.4 269.9 18.2 275.1 11.7 275.1C5.2 275.1 0 269.9 0 263.4V153.7C0 147.2 5.2 142 11.7 142Z" fill="#DADADA" fill-opacity="0.38"/>
<path d="M39.2 168C45.7 168 50.9 173.2 50.9 179.7V263.4C50.9 269.9 45.7 275.1 39.2 275.1C32.7 275.1 27.5 269.9 27.5 263.4V179.7C27.5 173.2 32.7 168 39.2 168Z" fill="#DADADA" fill-opacity="0.38"/>
<path d="M67.1 192.1C73.6 192.1 78.8 197.3 78.8 203.8V263.4C78.8 269.9 73.6 275.1 67.1 275.1C60.6 275.1 55.4 269.9 55.4 263.4V203.8C55.4 197.3 60.6 192.1 67.1 192.1Z" fill="#DADADA" fill-opacity="0.38"/>
<path d="M95 142C101.5 142 106.7 147.2 106.7 153.7V263.4C106.7 269.9 101.5 275.1 95 275.1C88.5 275.1 83.3 269.9 83.3 263.4V153.7C83.2 147.2 88.5 142 95 142Z" fill="#DADADA" fill-opacity="0.38"/>
<path d="M122.4 98.9C128.9 98.9 134.1 104.1 134.1 110.6V263.4C134.1 269.9 128.9 275.1 122.4 275.1C115.9 275.1 110.7 269.9 110.7 263.4V110.6C110.7 104.1 116 98.9 122.4 98.9Z" fill="#DADADA" fill-opacity="0.38"/>
<path d="M149.6 275.1C156.1 275.1 161.3 280.3 161.3 286.8V478.2C161.3 484.7 156.1 489.9 149.6 489.9C143.1 489.9 137.9 484.7 137.9 478.2V286.8C137.9 280.3 143.2 275.1 149.6 275.1Z" fill="#DADADA" fill-opacity="0.38"/>
<path d="M177.5 275.1C184 275.1 189.2 280.3 189.2 286.8V429.4C189.2 435.9 184 441.1 177.5 441.1C171 441.1 165.8 435.9 165.8 429.4V286.8C165.8 280.3 171.1 275.1 177.5 275.1Z" fill="#DADADA" fill-opacity="0.38"/>
<path d="M205.1 275.1C211.6 275.1 216.8 280.3 216.8 286.8V396.5C216.8 403 211.6 408.2 205.1 408.2C198.6 408.2 193.4 403 193.4 396.5V286.8C193.3 280.3 198.6 275.1 205.1 275.1Z" fill="#DADADA" fill-opacity="0.38"/>
<path d="M232.9 275.1C239.4 275.1 244.6 280.3 244.6 286.8V363.5C244.6 370 239.4 375.2 232.9 375.2C226.4 375.2 221.2 370 221.2 363.5V286.8C221.2 280.3 226.5 275.1 232.9 275.1Z" fill="#DADADA" fill-opacity="0.38"/>
<path d="M259.6 140.1C266.1 140.1 271.3 145.3 271.3 151.8V263.4C271.3 269.9 266.1 275.1 259.6 275.1C253.1 275.1 247.9 269.9 247.9 263.4V151.8C247.9 145.3 253.2 140.1 259.6 140.1Z" fill="#DADADA" fill-opacity="0.38"/>
<path d="M287.5 120.4C294 120.4 299.2 125.6 299.2 132.1V263.3C299.2 269.8 294 275 287.5 275C281 275 275.8 269.8 275.8 263.3V132.2C275.8 125.7 281 120.4 287.5 120.4Z" fill="#DADADA" fill-opacity="0.38"/>
<path d="M315.4 92.5C321.9 92.5 327.1 97.7 327.1 104.2V263.3C327.1 269.8 321.9 275 315.4 275C308.9 275 303.7 269.8 303.7 263.3V104.3C303.7 97.8 308.9 92.5 315.4 92.5Z" fill="#DADADA" fill-opacity="0.38"/>
<path d="M343.3 75.4C349.8 75.4 355 80.6 355 87.1V263.3C355 269.8 349.8 275 343.3 275C336.8 275 331.6 269.8 331.6 263.3V87.2C331.6 80.7 336.8 75.4 343.3 75.4Z" fill="#DADADA" fill-opacity="0.38"/>
<path d="M371.2 38.7C377.7 38.7 382.9 43.9 382.9 50.4V263.4C382.9 269.9 377.7 275.1 371.2 275.1C364.7 275.1 359.5 269.9 359.5 263.4V50.4C359.5 43.9 364.7 38.7 371.2 38.7Z" fill="#DADADA" fill-opacity="0.38"/>
<path d="M399.1 211.7C405.6 211.7 410.8 216.9 410.8 223.4V263.3C410.8 269.8 405.6 275 399.1 275C392.6 275 387.4 269.8 387.4 263.3V223.4C387.4 217 392.6 211.7 399.1 211.7Z" fill="#DADADA" fill-opacity="0.38"/>
<path d="M427 190.8C433.5 190.8 438.7 196 438.7 202.5V263.3C438.7 269.8 433.5 275 427 275C420.5 275 415.3 269.8 415.3 263.3V202.5C415.2 196 420.5 190.8 427 190.8Z" fill="#DADADA" fill-opacity="0.38"/>
<path d="M454.9 115.4C461.4 115.4 466.6 120.6 466.6 127.1V263.4C466.6 269.9 461.4 275.1 454.9 275.1C448.4 275.1 443.2 269.9 443.2 263.4V127.1C443.1 120.6 448.4 115.4 454.9 115.4Z" fill="#DADADA" fill-opacity="0.38"/>
<path d="M483.1 66.6C489.6 66.6 494.8 71.8 494.8 78.3V263.4C494.8 269.9 489.6 275.1 483.1 275.1C476.6 275.1 471.4 269.9 471.4 263.4V78.3C471.4 71.8 476.7 66.6 483.1 66.6Z" fill="#DADADA" fill-opacity="0.38"/>
<path d="M511 75.4C517.5 75.4 522.7 80.6 522.7 87.1V263.3C522.7 269.8 517.5 275 511 275C504.5 275 499.3 269.8 499.3 263.3V87.2C499.3 80.7 504.5 75.4 511 75.4Z" fill="#DADADA" fill-opacity="0.38"/>
<path d="M538.9 38.7C545.4 38.7 550.6 43.9 550.6 50.4V263.4C550.6 269.9 545.4 275.1 538.9 275.1C532.4 275.1 527.2 269.9 527.2 263.4V50.4C527.2 43.9 532.4 38.7 538.9 38.7Z" fill="#DADADA" fill-opacity="0.38"/>
<path d="M566.8 0C573.3 0 578.5 5.2 578.5 11.7V263.3C578.5 269.8 573.3 275 566.8 275C560.3 275 555.1 269.8 555.1 263.3V11.7C555.1 5.2 560.3 0 566.8 0Z" fill="#DADADA" fill-opacity="0.38"/>
<path d="M11.7 198.4C18.2 198.4 23.4 203.6 23.4 210.1V263.3C23.4 269.8 18.2 275 11.7 275C5.2 275 0 269.8 0 263.3V210.1C0 203.6 5.2 198.4 11.7 198.4Z" fill="url(#paint0_linear)"/>
<path d="M39.2 213C45.7 213 50.9 218.2 50.9 224.7V263.4C50.9 269.9 45.7 275.1 39.2 275.1C32.7 275.1 27.5 269.9 27.5 263.4V224.7C27.5 218.2 32.7 213 39.2 213Z" fill="url(#paint1_linear)"/>
<path d="M67.1 226.9C73.6 226.9 78.8 232.1 78.8 238.6V263.3C78.8 269.8 73.6 275 67.1 275C60.6 275 55.4 269.8 55.4 263.3V238.6C55.4 232.2 60.6 226.9 67.1 226.9Z" fill="url(#paint2_linear)"/>
<path d="M95 198.4C101.5 198.4 106.7 203.6 106.7 210.1V263.3C106.7 269.8 101.5 275 95 275C88.5 275 83.3 269.8 83.3 263.3V210.1C83.2 203.6 88.5 198.4 95 198.4Z" fill="url(#paint3_linear)"/>
<path d="M122.4 173C128.9 173 134.1 178.2 134.1 184.7V263.3C134.1 269.8 128.9 275 122.4 275C115.9 275 110.7 269.8 110.7 263.3V184.7C110.7 178.3 116 173 122.4 173Z" fill="url(#paint4_linear)"/>
<path d="M149.6 275.1C156.1 275.1 161.3 280.3 161.3 286.8V396.5C161.3 403 156.1 408.2 149.6 408.2C143.1 408.2 137.9 403 137.9 396.5V286.8C137.9 280.3 143.2 275.1 149.6 275.1Z" fill="url(#paint5_linear)"/>
<path d="M177.5 275.1C184 275.1 189.2 280.3 189.2 286.8V366C189.2 372.5 184 377.7 177.5 377.7C171 377.7 165.8 372.5 165.8 366V286.8C165.8 280.3 171.1 275.1 177.5 275.1Z" fill="url(#paint6_linear)"/>
<path d="M205.1 275.1C211.6 275.1 216.8 280.3 216.8 286.8V345.7C216.8 352.2 211.6 357.4 205.1 357.4C198.6 357.4 193.4 352.2 193.4 345.7V286.8C193.3 280.3 198.6 275.1 205.1 275.1Z" fill="url(#paint7_linear)"/>
<path d="M232.9 275.1C239.4 275.1 244.6 280.3 244.6 286.8V325.5C244.6 332 239.4 337.2 232.9 337.2C226.4 337.2 221.2 332 221.2 325.5V286.8C221.2 280.3 226.5 275.1 232.9 275.1Z" fill="url(#paint8_linear)"/>
<path d="M259.6 192.7C266.1 192.7 271.3 197.9 271.3 204.4V263.3C271.3 269.8 266.1 275 259.6 275C253.1 275 247.9 269.8 247.9 263.3V204.4C247.9 197.9 253.2 192.7 259.6 192.7Z" fill="url(#paint9_linear)"/>
<path d="M287.5 181.3C294 181.3 299.2 186.5 299.2 193V263.4C299.2 269.9 294 275.1 287.5 275.1C281 275.1 275.8 269.9 275.8 263.4V193C275.8 186.5 281 181.3 287.5 181.3Z" fill="url(#paint10_linear)"/>
<path d="M315.4 163.5C321.9 163.5 327.1 168.7 327.1 175.2V263.3C327.1 269.8 321.9 275 315.4 275C308.9 275 303.7 269.8 303.7 263.3V175.2C303.7 168.8 308.9 163.5 315.4 163.5Z" fill="url(#paint11_linear)"/>
<path d="M343.3 153.4C349.8 153.4 355 158.6 355 165.1V263.3C355 269.8 349.8 275 343.3 275C336.8 275 331.6 269.8 331.6 263.3V165.1C331.6 158.6 336.8 153.4 343.3 153.4Z" fill="url(#paint12_linear)"/>
<path d="M371.2 131.2C377.7 131.2 382.9 136.4 382.9 142.9V263.3C382.9 269.8 377.7 275 371.2 275C364.7 275 359.5 269.8 359.5 263.3V142.9C359.5 136.5 364.7 131.2 371.2 131.2Z" fill="url(#paint13_linear)"/>
<path d="M399.1 236.4C405.6 236.4 410.8 241.6 410.8 248.1V263.3C410.8 269.8 405.6 275 399.1 275C392.6 275 387.4 269.8 387.4 263.3V248.1C387.4 241.7 392.6 236.4 399.1 236.4Z" fill="url(#paint14_linear)"/>
<path d="M427 223.7C433.5 223.7 438.7 228.9 438.7 235.4V263.3C438.7 269.8 433.5 275 427 275C420.5 275 415.3 269.8 415.3 263.3V235.4C415.2 229 420.5 223.7 427 223.7Z" fill="url(#paint15_linear)"/>
<path d="M454.9 178.1C461.4 178.1 466.6 183.3 466.6 189.8V263.3C466.6 269.8 461.4 275 454.9 275C448.4 275 443.2 269.8 443.2 263.3V189.8C443.1 183.4 448.4 178.1 454.9 178.1Z" fill="url(#paint16_linear)"/>
<path d="M483.1 131.2C489.6 131.2 494.8 136.4 494.8 142.9V263.3C494.8 269.8 489.6 275 483.1 275C476.6 275 471.4 269.8 471.4 263.3V142.9C471.4 136.5 476.7 131.2 483.1 131.2Z" fill="url(#paint17_linear)"/>
<path d="M511 110.3C517.5 110.3 522.7 115.5 522.7 122V263.3C522.7 269.8 517.5 275 511 275C504.5 275 499.3 269.8 499.3 263.3V122C499.3 115.5 504.5 110.3 511 110.3Z" fill="url(#paint18_linear)"/>
<path d="M538.9 79.9C545.4 79.9 550.6 85.1 550.6 91.6V263.4C550.6 269.9 545.4 275.1 538.9 275.1C532.4 275.1 527.2 269.9 527.2 263.4V91.6C527.2 85.1 532.4 79.9 538.9 79.9Z" fill="url(#paint19_linear)"/>
<path d="M566.8 47.5C573.3 47.5 578.5 52.7 578.5 59.2V263.3C578.5 269.8 573.3 275 566.8 275C560.3 275 555.1 269.8 555.1 263.3V59.3C555.1 52.8 560.3 47.5 566.8 47.5Z" fill="url(#paint20_linear)"/>
<path d="M11.9 208.2L67.4 269.1L122.1 184.2L205.7 288.6L342.6 162L454.5 264.4L566.9 57" stroke="white" stroke-width="2"/>
<path d="M205.9 292.9C208.33 292.9 210.3 290.93 210.3 288.5C210.3 286.07 208.33 284.1 205.9 284.1C203.47 284.1 201.5 286.07 201.5 288.5C201.5 290.93 203.47 292.9 205.9 292.9Z" fill="white"/>
<path d="M122.4 187.9C124.83 187.9 126.8 185.93 126.8 183.5C126.8 181.07 124.83 179.1 122.4 179.1C119.97 179.1 118 181.07 118 183.5C118 185.93 119.97 187.9 122.4 187.9Z" fill="white"/>
<path d="M66.9 271.8C69.3301 271.8 71.3 269.83 71.3 267.4C71.3 264.97 69.3301 263 66.9 263C64.4699 263 62.5 264.97 62.5 267.4C62.5 269.83 64.4699 271.8 66.9 271.8Z" fill="white"/>
<path d="M11.5 212C13.93 212 15.9 210.03 15.9 207.6C15.9 205.17 13.93 203.2 11.5 203.2C9.06992 203.2 7.09998 205.17 7.09998 207.6C7.09998 210.03 9.06992 212 11.5 212Z" fill="white"/>
<path d="M342.8 165.6C345.23 165.6 347.2 163.63 347.2 161.2C347.2 158.77 345.23 156.8 342.8 156.8C340.37 156.8 338.4 158.77 338.4 161.2C338.4 163.63 340.37 165.6 342.8 165.6Z" fill="white"/>
<path d="M454.4 268.5C456.83 268.5 458.8 266.53 458.8 264.1C458.8 261.67 456.83 259.7 454.4 259.7C451.97 259.7 450 261.67 450 264.1C450 266.53 451.97 268.5 454.4 268.5Z" fill="white"/>
<path d="M566.3 62C568.73 62 570.7 60.03 570.7 57.6C570.7 55.1699 568.73 53.2 566.3 53.2C563.87 53.2 561.9 55.1699 561.9 57.6C561.9 60.03 563.87 62 566.3 62Z" fill="white"/>
<defs>
<linearGradient id="paint0_linear" x1="11.726" y1="198.39" x2="11.726" y2="275.084" gradientUnits="userSpaceOnUse">
<stop stop-color="#0EF184"/>
<stop offset="1" stop-color="#00ACEE"/>
</linearGradient>
<linearGradient id="paint1_linear" x1="39.1943" y1="212.968" x2="39.1943" y2="275.084" gradientUnits="userSpaceOnUse">
<stop stop-color="#0EF184"/>
<stop offset="1" stop-color="#00ACEE"/>
</linearGradient>
<linearGradient id="paint2_linear" x1="67.0831" y1="226.913" x2="67.0831" y2="275.084" gradientUnits="userSpaceOnUse">
<stop stop-color="#0EF184"/>
<stop offset="1" stop-color="#00ACEE"/>
</linearGradient>
<linearGradient id="paint3_linear" x1="94.972" y1="198.39" x2="94.972" y2="275.084" gradientUnits="userSpaceOnUse">
<stop stop-color="#0EF184"/>
<stop offset="1" stop-color="#00ACEE"/>
</linearGradient>
<linearGradient id="paint4_linear" x1="122.449" y1="173.037" x2="122.449" y2="275.084" gradientUnits="userSpaceOnUse">
<stop stop-color="#0EF184"/>
<stop offset="1" stop-color="#00ACEE"/>
</linearGradient>
<linearGradient id="paint5_linear" x1="149.65" y1="275.084" x2="149.65" y2="408.189" gradientUnits="userSpaceOnUse">
<stop stop-color="#EEC800"/>
<stop offset="1" stop-color="#FF6109"/>
</linearGradient>
<linearGradient id="paint6_linear" x1="177.539" y1="275.084" x2="177.539" y2="377.765" gradientUnits="userSpaceOnUse">
<stop stop-color="#EEC800"/>
<stop offset="1" stop-color="#FF6109"/>
</linearGradient>
<linearGradient id="paint7_linear" x1="205.059" y1="275.084" x2="205.059" y2="357.482" gradientUnits="userSpaceOnUse">
<stop stop-color="#EEC800"/>
<stop offset="1" stop-color="#FF6109"/>
</linearGradient>
<linearGradient id="paint8_linear" x1="232.947" y1="275.084" x2="232.947" y2="337.2" gradientUnits="userSpaceOnUse">
<stop stop-color="#EEC800"/>
<stop offset="1" stop-color="#FF6109"/>
</linearGradient>
<linearGradient id="paint9_linear" x1="259.634" y1="192.686" x2="259.634" y2="275.084" gradientUnits="userSpaceOnUse">
<stop stop-color="#0EF184"/>
<stop offset="1" stop-color="#00ACEE"/>
</linearGradient>
<linearGradient id="paint10_linear" x1="287.522" y1="181.277" x2="287.522" y2="275.085" gradientUnits="userSpaceOnUse">
<stop stop-color="#0EF184"/>
<stop offset="1" stop-color="#00ACEE"/>
</linearGradient>
<linearGradient id="paint11_linear" x1="315.411" y1="163.529" x2="315.411" y2="275.084" gradientUnits="userSpaceOnUse">
<stop stop-color="#0EF184"/>
<stop offset="1" stop-color="#00ACEE"/>
</linearGradient>
<linearGradient id="paint12_linear" x1="343.3" y1="153.388" x2="343.3" y2="275.084" gradientUnits="userSpaceOnUse">
<stop stop-color="#0EF184"/>
<stop offset="1" stop-color="#00ACEE"/>
</linearGradient>
<linearGradient id="paint13_linear" x1="371.188" y1="131.204" x2="371.188" y2="275.084" gradientUnits="userSpaceOnUse">
<stop stop-color="#0EF184"/>
<stop offset="1" stop-color="#00ACEE"/>
</linearGradient>
<linearGradient id="paint14_linear" x1="399.077" y1="236.42" x2="399.077" y2="275.084" gradientUnits="userSpaceOnUse">
<stop stop-color="#0EF184"/>
<stop offset="1" stop-color="#00ACEE"/>
</linearGradient>
<linearGradient id="paint15_linear" x1="426.966" y1="223.743" x2="426.966" y2="275.084" gradientUnits="userSpaceOnUse">
<stop stop-color="#0EF184"/>
<stop offset="1" stop-color="#00ACEE"/>
</linearGradient>
<linearGradient id="paint16_linear" x1="454.854" y1="178.107" x2="454.854" y2="275.084" gradientUnits="userSpaceOnUse">
<stop stop-color="#0EF184"/>
<stop offset="1" stop-color="#00ACEE"/>
</linearGradient>
<linearGradient id="paint17_linear" x1="483.134" y1="131.204" x2="483.134" y2="275.084" gradientUnits="userSpaceOnUse">
<stop stop-color="#0EF184"/>
<stop offset="1" stop-color="#00ACEE"/>
</linearGradient>
<linearGradient id="paint18_linear" x1="511.024" y1="110.287" x2="511.024" y2="275.084" gradientUnits="userSpaceOnUse">
<stop stop-color="#0EF184"/>
<stop offset="1" stop-color="#00ACEE"/>
</linearGradient>
<linearGradient id="paint19_linear" x1="538.914" y1="79.8631" x2="538.914" y2="275.084" gradientUnits="userSpaceOnUse">
<stop stop-color="#0EF184"/>
<stop offset="1" stop-color="#00ACEE"/>
</linearGradient>
<linearGradient id="paint20_linear" x1="566.804" y1="47.5375" x2="566.804" y2="275.084" gradientUnits="userSpaceOnUse">
<stop stop-color="#0EF184"/>
<stop offset="1" stop-color="#00ACEE"/>
</linearGradient>
</defs>
</svg>
