<svg width="1139" height="490" viewBox="0 0 1139 490" fill="none" xmlns="http://www.w3.org/2000/svg">
<rect y="141.979" width="23.4519" height="133.105" rx="11.7259" fill="#DADADA" fill-opacity="0.38"/>
<rect x="27.8887" y="166.698" width="23.4519" height="108.386" rx="11.7259" fill="#DADADA" fill-opacity="0.38"/>
<rect x="55.7773" y="167.966" width="23.4519" height="107.118" rx="11.7259" fill="#DADADA" fill-opacity="0.38"/>
<rect x="83.6661" y="192.052" width="23.4519" height="83.0323" rx="11.7259" fill="#DADADA" fill-opacity="0.38"/>
<rect x="111.555" y="141.979" width="23.4519" height="133.105" rx="11.7259" fill="#DADADA" fill-opacity="0.38"/>
<rect x="139.444" y="166.698" width="23.4519" height="108.386" rx="11.7259" fill="#DADADA" fill-opacity="0.38"/>
<rect x="167.332" y="117.893" width="23.4519" height="157.191" rx="11.7259" fill="#DADADA" fill-opacity="0.38"/>
<rect x="195.221" y="98.8781" width="23.4519" height="176.206" rx="11.7259" fill="#DADADA" fill-opacity="0.38"/>
<rect x="223.11" y="124.232" width="23.4519" height="150.853" rx="11.7259" fill="#DADADA" fill-opacity="0.38"/>
<rect x="250.998" y="275.084" width="23.4519" height="118.527" rx="11.7259" fill="#DADADA" fill-opacity="0.38"/>
<rect x="278.887" y="275.084" width="23.4519" height="133.105" rx="11.7259" fill="#DADADA" fill-opacity="0.38"/>
<rect x="306.776" y="275.084" width="23.4519" height="113.456" rx="11.7259" fill="#DADADA" fill-opacity="0.38"/>
<rect x="334.664" y="275.084" width="23.4519" height="214.87" rx="11.7259" fill="#DADADA" fill-opacity="0.38"/>
<rect x="362.553" y="275.084" width="23.4519" height="166.065" rx="11.7259" fill="#DADADA" fill-opacity="0.38"/>
<rect x="390.442" y="275.084" width="23.4519" height="150.853" rx="11.7259" fill="#DADADA" fill-opacity="0.38"/>
<rect x="418.331" y="275.084" width="23.4519" height="133.105" rx="11.7259" fill="#DADADA" fill-opacity="0.38"/>
<rect x="446.219" y="275.084" width="23.4519" height="100.146" rx="11.7259" fill="#DADADA" fill-opacity="0.38"/>
<rect x="474.108" y="275.084" width="23.4519" height="100.146" rx="11.7259" fill="#DADADA" fill-opacity="0.38"/>
<rect x="501.997" y="120.428" width="23.4519" height="154.656" rx="11.7259" fill="#DADADA" fill-opacity="0.38"/>
<rect x="529.885" y="75.4263" width="23.4519" height="199.658" rx="11.7259" fill="#DADADA" fill-opacity="0.38"/>
<rect x="557.774" y="85.5676" width="23.4519" height="189.516" rx="11.7259" fill="#DADADA" fill-opacity="0.38"/>
<rect x="585.663" y="102.047" width="23.4519" height="173.037" rx="11.7259" fill="#DADADA" fill-opacity="0.38"/>
<rect x="613.551" y="107.118" width="23.4519" height="167.966" rx="11.7259" fill="#DADADA" fill-opacity="0.38"/>
<rect x="641.44" y="134.373" width="23.4519" height="140.711" rx="11.7259" fill="#DADADA" fill-opacity="0.38"/>
<rect x="669.329" y="107.118" width="23.4519" height="167.966" rx="11.7259" fill="#DADADA" fill-opacity="0.38"/>
<rect x="697.218" y="140.077" width="23.4519" height="135.007" rx="11.7259" fill="#DADADA" fill-opacity="0.38"/>
<rect x="725.106" y="120.428" width="23.4519" height="154.656" rx="11.7259" fill="#DADADA" fill-opacity="0.38"/>
<rect x="752.995" y="92.5398" width="23.4519" height="182.544" rx="11.7259" fill="#DADADA" fill-opacity="0.38"/>
<rect x="780.884" y="75.4263" width="23.4519" height="199.658" rx="11.7259" fill="#DADADA" fill-opacity="0.38"/>
<rect x="808.772" y="38.6639" width="23.4519" height="236.42" rx="11.7259" fill="#DADADA" fill-opacity="0.38"/>
<rect x="836.661" y="211.701" width="23.4519" height="63.3834" rx="11.7259" fill="#DADADA" fill-opacity="0.38"/>
<rect x="864.55" y="190.784" width="23.4519" height="84.2999" rx="11.7259" fill="#DADADA" fill-opacity="0.38"/>
<rect x="892.438" y="115.358" width="23.4519" height="159.726" rx="11.7259" fill="#DADADA" fill-opacity="0.38"/>
<rect x="920.327" y="92.5398" width="23.4519" height="182.544" rx="11.7259" fill="#DADADA" fill-opacity="0.38"/>
<rect x="948.216" y="134.373" width="23.4519" height="140.711" rx="11.7259" fill="#DADADA" fill-opacity="0.38"/>
<rect x="976.105" y="55.1436" width="23.4519" height="219.94" rx="11.7259" fill="#DADADA" fill-opacity="0.38"/>
<rect x="1003.99" y="107.118" width="23.4519" height="167.966" rx="11.7259" fill="#DADADA" fill-opacity="0.38"/>
<rect x="1031.88" y="66.5526" width="23.4519" height="208.531" rx="11.7259" fill="#DADADA" fill-opacity="0.38"/>
<rect x="1059.77" y="75.4263" width="23.4519" height="199.658" rx="11.7259" fill="#DADADA" fill-opacity="0.38"/>
<rect x="1087.66" y="38.6639" width="23.4519" height="236.42" rx="11.7259" fill="#DADADA" fill-opacity="0.38"/>
<rect x="1115.55" width="23.4519" height="275.084" rx="11.7259" fill="#DADADA" fill-opacity="0.38"/>
<rect y="198.39" width="23.4519" height="76.6939" rx="11.7259" fill="url(#paint0_linear)"/>
<rect x="27.8887" y="212.334" width="23.4519" height="62.7496" rx="11.7259" fill="url(#paint1_linear)"/>
<rect x="55.7773" y="212.968" width="23.4519" height="62.1157" rx="11.7259" fill="url(#paint2_linear)"/>
<rect x="83.6661" y="226.913" width="23.4519" height="48.1714" rx="11.7259" fill="url(#paint3_linear)"/>
<rect x="111.555" y="198.39" width="23.4519" height="76.6939" rx="11.7259" fill="url(#paint4_linear)"/>
<rect x="139.444" y="212.334" width="23.4519" height="62.7496" rx="11.7259" fill="url(#paint5_linear)"/>
<rect x="167.332" y="183.812" width="23.4519" height="91.2721" rx="11.7259" fill="url(#paint6_linear)"/>
<rect x="195.221" y="173.037" width="23.4519" height="102.047" rx="11.7259" fill="url(#paint7_linear)"/>
<rect x="223.11" y="187.615" width="23.4519" height="87.4691" rx="11.7259" fill="url(#paint8_linear)"/>
<rect x="250.998" y="275.084" width="23.4519" height="73.5248" rx="11.7259" fill="url(#paint9_linear)"/>
<rect x="278.887" y="275.084" width="23.4519" height="82.3984" rx="11.7259" fill="url(#paint10_linear)"/>
<rect x="306.776" y="275.084" width="23.4519" height="70.3556" rx="11.7259" fill="url(#paint11_linear)"/>
<rect x="334.664" y="275.084" width="23.4519" height="133.105" rx="11.7259" fill="url(#paint12_linear)"/>
<rect x="362.553" y="275.084" width="23.4519" height="102.681" rx="11.7259" fill="url(#paint13_linear)"/>
<rect x="390.442" y="275.084" width="23.4519" height="93.1736" rx="11.7259" fill="url(#paint14_linear)"/>
<rect x="418.331" y="275.084" width="23.4519" height="82.3984" rx="11.7259" fill="url(#paint15_linear)"/>
<rect x="446.219" y="275.084" width="23.4519" height="62.1157" rx="11.7259" fill="url(#paint16_linear)"/>
<rect x="474.108" y="275.084" width="23.4519" height="62.1157" rx="11.7259" fill="url(#paint17_linear)"/>
<rect x="501.997" y="181.277" width="23.4519" height="93.8075" rx="11.7259" fill="url(#paint18_linear)"/>
<rect x="529.885" y="153.388" width="23.4519" height="121.696" rx="11.7259" fill="url(#paint19_linear)"/>
<rect x="557.774" y="159.726" width="23.4519" height="115.358" rx="11.7259" fill="url(#paint20_linear)"/>
<rect x="585.663" y="169.868" width="23.4519" height="105.216" rx="11.7259" fill="url(#paint21_linear)"/>
<rect x="613.551" y="173.037" width="23.4519" height="102.047" rx="11.7259" fill="url(#paint22_linear)"/>
<rect x="641.44" y="188.883" width="23.4519" height="86.2014" rx="11.7259" fill="url(#paint23_linear)"/>
<rect x="669.329" y="173.037" width="23.4519" height="102.047" rx="11.7259" fill="url(#paint24_linear)"/>
<rect x="697.218" y="192.686" width="23.4519" height="82.3984" rx="11.7259" fill="url(#paint25_linear)"/>
<rect x="725.106" y="181.277" width="23.4519" height="93.8075" rx="11.7259" fill="url(#paint26_linear)"/>
<rect x="752.995" y="163.529" width="23.4519" height="111.555" rx="11.7259" fill="url(#paint27_linear)"/>
<rect x="780.884" y="153.388" width="23.4519" height="121.696" rx="11.7259" fill="url(#paint28_linear)"/>
<rect x="808.772" y="131.204" width="23.4519" height="143.88" rx="11.7259" fill="url(#paint29_linear)"/>
<rect x="836.661" y="236.42" width="23.4519" height="38.6639" rx="11.7259" fill="url(#paint30_linear)"/>
<rect x="864.55" y="223.743" width="23.4519" height="51.3406" rx="11.7259" fill="url(#paint31_linear)"/>
<rect x="892.438" y="178.107" width="23.4519" height="96.9766" rx="11.7259" fill="url(#paint32_linear)"/>
<rect x="920.327" y="163.529" width="23.4519" height="111.555" rx="11.7259" fill="url(#paint33_linear)"/>
<rect x="948.216" y="188.883" width="23.4519" height="86.2014" rx="11.7259" fill="url(#paint34_linear)"/>
<rect x="976.105" y="141.345" width="23.4519" height="133.739" rx="11.7259" fill="url(#paint35_linear)"/>
<rect x="1003.99" y="173.037" width="23.4519" height="102.047" rx="11.7259" fill="url(#paint36_linear)"/>
<rect x="1031.88" y="131.204" width="23.4519" height="143.88" rx="11.7259" fill="url(#paint37_linear)"/>
<rect x="1059.77" y="110.287" width="23.4519" height="164.797" rx="11.7259" fill="url(#paint38_linear)"/>
<rect x="1087.66" y="79.8631" width="23.4519" height="195.221" rx="11.7259" fill="url(#paint39_linear)"/>
<rect x="1115.55" y="47.5375" width="23.4519" height="227.546" rx="11.7259" fill="url(#paint40_linear)"/>
<path d="M9.50751 207.264L199.658 174.304L346.39 403.119L542.245 155.923L677.886 270.964L817.963 136.591L985.295 270.964L1128.86 113.773" stroke="white" stroke-width="2"/>
<circle cx="11.409" cy="207.264" r="4.43684" fill="white"/>
<circle cx="199.658" cy="174.938" r="4.43684" fill="white"/>
<circle cx="346.073" cy="403.119" r="4.43684" fill="white"/>
<circle cx="541.294" cy="157.825" r="4.43684" fill="white"/>
<circle cx="678.203" cy="271.915" r="4.43684" fill="white"/>
<circle cx="817.646" cy="136.274" r="4.43684" fill="white"/>
<circle cx="986.246" cy="271.281" r="4.43684" fill="white"/>
<circle cx="1128.86" cy="114.09" r="4.43684" fill="white"/>
<defs>
<linearGradient id="paint0_linear" x1="11.7259" y1="198.39" x2="11.7259" y2="275.084" gradientUnits="userSpaceOnUse">
<stop stop-color="#0EF184"/>
<stop offset="1" stop-color="#00ACEE"/>
</linearGradient>
<linearGradient id="paint1_linear" x1="39.6147" y1="212.334" x2="39.6147" y2="275.084" gradientUnits="userSpaceOnUse">
<stop stop-color="#0EF184"/>
<stop offset="1" stop-color="#00ACEE"/>
</linearGradient>
<linearGradient id="paint2_linear" x1="67.5033" y1="212.968" x2="67.5033" y2="275.084" gradientUnits="userSpaceOnUse">
<stop stop-color="#0EF184"/>
<stop offset="1" stop-color="#00ACEE"/>
</linearGradient>
<linearGradient id="paint3_linear" x1="95.3921" y1="226.913" x2="95.3921" y2="275.084" gradientUnits="userSpaceOnUse">
<stop stop-color="#0EF184"/>
<stop offset="1" stop-color="#00ACEE"/>
</linearGradient>
<linearGradient id="paint4_linear" x1="123.281" y1="198.39" x2="123.281" y2="275.084" gradientUnits="userSpaceOnUse">
<stop stop-color="#0EF184"/>
<stop offset="1" stop-color="#00ACEE"/>
</linearGradient>
<linearGradient id="paint5_linear" x1="151.169" y1="212.334" x2="151.169" y2="275.084" gradientUnits="userSpaceOnUse">
<stop stop-color="#0EF184"/>
<stop offset="1" stop-color="#00ACEE"/>
</linearGradient>
<linearGradient id="paint6_linear" x1="179.058" y1="183.812" x2="179.058" y2="275.084" gradientUnits="userSpaceOnUse">
<stop stop-color="#0EF184"/>
<stop offset="1" stop-color="#00ACEE"/>
</linearGradient>
<linearGradient id="paint7_linear" x1="206.947" y1="173.037" x2="206.947" y2="275.084" gradientUnits="userSpaceOnUse">
<stop stop-color="#0EF184"/>
<stop offset="1" stop-color="#00ACEE"/>
</linearGradient>
<linearGradient id="paint8_linear" x1="234.835" y1="187.615" x2="234.835" y2="275.084" gradientUnits="userSpaceOnUse">
<stop stop-color="#0EF184"/>
<stop offset="1" stop-color="#00ACEE"/>
</linearGradient>
<linearGradient id="paint9_linear" x1="262.724" y1="275.084" x2="262.724" y2="348.609" gradientUnits="userSpaceOnUse">
<stop stop-color="#EEC800"/>
<stop offset="1" stop-color="#FF6109"/>
</linearGradient>
<linearGradient id="paint10_linear" x1="290.613" y1="275.084" x2="290.613" y2="357.482" gradientUnits="userSpaceOnUse">
<stop stop-color="#EEC800"/>
<stop offset="1" stop-color="#FF6109"/>
</linearGradient>
<linearGradient id="paint11_linear" x1="318.502" y1="275.084" x2="318.502" y2="345.44" gradientUnits="userSpaceOnUse">
<stop stop-color="#EEC800"/>
<stop offset="1" stop-color="#FF6109"/>
</linearGradient>
<linearGradient id="paint12_linear" x1="346.39" y1="275.084" x2="346.39" y2="408.189" gradientUnits="userSpaceOnUse">
<stop stop-color="#EEC800"/>
<stop offset="1" stop-color="#FF6109"/>
</linearGradient>
<linearGradient id="paint13_linear" x1="374.279" y1="275.084" x2="374.279" y2="377.765" gradientUnits="userSpaceOnUse">
<stop stop-color="#EEC800"/>
<stop offset="1" stop-color="#FF6109"/>
</linearGradient>
<linearGradient id="paint14_linear" x1="402.168" y1="275.084" x2="402.168" y2="368.258" gradientUnits="userSpaceOnUse">
<stop stop-color="#EEC800"/>
<stop offset="1" stop-color="#FF6109"/>
</linearGradient>
<linearGradient id="paint15_linear" x1="430.056" y1="275.084" x2="430.056" y2="357.482" gradientUnits="userSpaceOnUse">
<stop stop-color="#EEC800"/>
<stop offset="1" stop-color="#FF6109"/>
</linearGradient>
<linearGradient id="paint16_linear" x1="457.945" y1="275.084" x2="457.945" y2="337.2" gradientUnits="userSpaceOnUse">
<stop stop-color="#EEC800"/>
<stop offset="1" stop-color="#FF6109"/>
</linearGradient>
<linearGradient id="paint17_linear" x1="485.834" y1="275.084" x2="485.834" y2="337.2" gradientUnits="userSpaceOnUse">
<stop stop-color="#EEC800"/>
<stop offset="1" stop-color="#FF6109"/>
</linearGradient>
<linearGradient id="paint18_linear" x1="513.723" y1="181.277" x2="513.723" y2="275.084" gradientUnits="userSpaceOnUse">
<stop stop-color="#0EF184"/>
<stop offset="1" stop-color="#00ACEE"/>
</linearGradient>
<linearGradient id="paint19_linear" x1="541.611" y1="153.388" x2="541.611" y2="275.084" gradientUnits="userSpaceOnUse">
<stop stop-color="#0EF184"/>
<stop offset="1" stop-color="#00ACEE"/>
</linearGradient>
<linearGradient id="paint20_linear" x1="569.5" y1="159.726" x2="569.5" y2="275.084" gradientUnits="userSpaceOnUse">
<stop stop-color="#0EF184"/>
<stop offset="1" stop-color="#00ACEE"/>
</linearGradient>
<linearGradient id="paint21_linear" x1="597.389" y1="169.868" x2="597.389" y2="275.084" gradientUnits="userSpaceOnUse">
<stop stop-color="#0EF184"/>
<stop offset="1" stop-color="#00ACEE"/>
</linearGradient>
<linearGradient id="paint22_linear" x1="625.277" y1="173.037" x2="625.277" y2="275.084" gradientUnits="userSpaceOnUse">
<stop stop-color="#0EF184"/>
<stop offset="1" stop-color="#00ACEE"/>
</linearGradient>
<linearGradient id="paint23_linear" x1="653.166" y1="188.883" x2="653.166" y2="275.084" gradientUnits="userSpaceOnUse">
<stop stop-color="#0EF184"/>
<stop offset="1" stop-color="#00ACEE"/>
</linearGradient>
<linearGradient id="paint24_linear" x1="681.055" y1="173.037" x2="681.055" y2="275.084" gradientUnits="userSpaceOnUse">
<stop stop-color="#0EF184"/>
<stop offset="1" stop-color="#00ACEE"/>
</linearGradient>
<linearGradient id="paint25_linear" x1="708.943" y1="192.686" x2="708.943" y2="275.084" gradientUnits="userSpaceOnUse">
<stop stop-color="#0EF184"/>
<stop offset="1" stop-color="#00ACEE"/>
</linearGradient>
<linearGradient id="paint26_linear" x1="736.832" y1="181.277" x2="736.832" y2="275.084" gradientUnits="userSpaceOnUse">
<stop stop-color="#0EF184"/>
<stop offset="1" stop-color="#00ACEE"/>
</linearGradient>
<linearGradient id="paint27_linear" x1="764.721" y1="163.529" x2="764.721" y2="275.084" gradientUnits="userSpaceOnUse">
<stop stop-color="#0EF184"/>
<stop offset="1" stop-color="#00ACEE"/>
</linearGradient>
<linearGradient id="paint28_linear" x1="792.61" y1="153.388" x2="792.61" y2="275.084" gradientUnits="userSpaceOnUse">
<stop stop-color="#0EF184"/>
<stop offset="1" stop-color="#00ACEE"/>
</linearGradient>
<linearGradient id="paint29_linear" x1="820.498" y1="131.204" x2="820.498" y2="275.084" gradientUnits="userSpaceOnUse">
<stop stop-color="#0EF184"/>
<stop offset="1" stop-color="#00ACEE"/>
</linearGradient>
<linearGradient id="paint30_linear" x1="848.387" y1="236.42" x2="848.387" y2="275.084" gradientUnits="userSpaceOnUse">
<stop stop-color="#0EF184"/>
<stop offset="1" stop-color="#00ACEE"/>
</linearGradient>
<linearGradient id="paint31_linear" x1="876.276" y1="223.743" x2="876.276" y2="275.084" gradientUnits="userSpaceOnUse">
<stop stop-color="#0EF184"/>
<stop offset="1" stop-color="#00ACEE"/>
</linearGradient>
<linearGradient id="paint32_linear" x1="904.164" y1="178.107" x2="904.164" y2="275.084" gradientUnits="userSpaceOnUse">
<stop stop-color="#0EF184"/>
<stop offset="1" stop-color="#00ACEE"/>
</linearGradient>
<linearGradient id="paint33_linear" x1="932.053" y1="163.529" x2="932.053" y2="275.084" gradientUnits="userSpaceOnUse">
<stop stop-color="#0EF184"/>
<stop offset="1" stop-color="#00ACEE"/>
</linearGradient>
<linearGradient id="paint34_linear" x1="959.942" y1="188.883" x2="959.942" y2="275.084" gradientUnits="userSpaceOnUse">
<stop stop-color="#0EF184"/>
<stop offset="1" stop-color="#00ACEE"/>
</linearGradient>
<linearGradient id="paint35_linear" x1="987.83" y1="141.345" x2="987.83" y2="275.084" gradientUnits="userSpaceOnUse">
<stop stop-color="#0EF184"/>
<stop offset="1" stop-color="#00ACEE"/>
</linearGradient>
<linearGradient id="paint36_linear" x1="1015.72" y1="173.037" x2="1015.72" y2="275.084" gradientUnits="userSpaceOnUse">
<stop stop-color="#0EF184"/>
<stop offset="1" stop-color="#00ACEE"/>
</linearGradient>
<linearGradient id="paint37_linear" x1="1043.61" y1="131.204" x2="1043.61" y2="275.084" gradientUnits="userSpaceOnUse">
<stop stop-color="#0EF184"/>
<stop offset="1" stop-color="#00ACEE"/>
</linearGradient>
<linearGradient id="paint38_linear" x1="1071.5" y1="110.287" x2="1071.5" y2="275.084" gradientUnits="userSpaceOnUse">
<stop stop-color="#0EF184"/>
<stop offset="1" stop-color="#00ACEE"/>
</linearGradient>
<linearGradient id="paint39_linear" x1="1099.39" y1="79.8631" x2="1099.39" y2="275.084" gradientUnits="userSpaceOnUse">
<stop stop-color="#0EF184"/>
<stop offset="1" stop-color="#00ACEE"/>
</linearGradient>
<linearGradient id="paint40_linear" x1="1127.27" y1="47.5375" x2="1127.27" y2="275.084" gradientUnits="userSpaceOnUse">
<stop stop-color="#0EF184"/>
<stop offset="1" stop-color="#00ACEE"/>
</linearGradient>
</defs>
</svg>
