<svg width="28" height="27" viewBox="0 0 28 27" fill="none" xmlns="http://www.w3.org/2000/svg">
<mask id="mask0" mask-type="alpha" maskUnits="userSpaceOnUse" x="0" y="0" width="28" height="27">
<path fill-rule="evenodd" clip-rule="evenodd" d="M0.601624 0H27.6012V27H0.601624V0Z" fill="white"/>
</mask>
<g mask="url(#mask0)">
<path fill-rule="evenodd" clip-rule="evenodd" d="M10.4722 13.2705L19.2662 8.12294C19.4242 8.03114 19.5862 8.23364 19.4512 8.3538L12.1935 14.765C11.9384 14.9905 11.7737 15.2929 11.7278 15.6209L11.4807 17.3624C11.4483 17.5946 11.104 17.6176 11.0365 17.3935L10.0861 14.2169C9.97678 13.8551 10.1347 13.4676 10.4722 13.2705ZM4.98577 13.168L9.34091 14.7678L11.0257 20.1044C11.1337 20.446 11.559 20.5729 11.8398 20.3461L14.2685 18.398C14.5223 18.1928 14.8854 18.1833 15.15 18.3723L19.5295 21.503C19.8305 21.719 20.2571 21.5557 20.3341 21.1966L23.5417 6.00892C23.6227 5.61742 23.2326 5.28937 22.8532 5.43382L4.98037 12.2217C4.53892 12.3891 4.54297 13.0047 4.98577 13.168ZM7.52408 0H20.68C23.087 0 23.9591 0.249752 24.8407 0.720907C25.7196 1.19206 26.4108 1.88192 26.8806 2.76213C27.3517 3.64234 27.6015 4.5158 27.6015 6.92152V20.0774C27.6015 22.4845 27.3517 23.3579 26.8806 24.2368C26.4108 25.117 25.7196 25.8082 24.8407 26.2794C23.9591 26.7492 23.087 27.0003 20.68 27.0003H7.52408C5.117 27.0003 4.24489 26.7492 3.36469 26.2794C2.48448 25.8082 1.79327 25.117 1.32346 24.2368C0.85231 23.3579 0.601208 22.4845 0.601208 20.0774V6.92152C0.601208 4.5158 0.85231 3.64234 1.32346 2.76213C1.79327 1.88192 2.48448 1.19206 3.36469 0.720907C4.24489 0.249752 5.117 0 7.52408 0Z" fill="#787484"/>
</g>
</svg>
