<svg width="28" height="27" viewBox="0 0 28 27" fill="none" xmlns="http://www.w3.org/2000/svg">
<mask id="mask0" mask-type="alpha" maskUnits="userSpaceOnUse" x="0" y="0" width="28" height="27">
<path fill-rule="evenodd" clip-rule="evenodd" d="M0.751953 0H27.7518V27H0.751953V0Z" fill="white"/>
</mask>
<g mask="url(#mask0)">
<path fill-rule="evenodd" clip-rule="evenodd" d="M22.6488 9.50415C23.4062 8.95064 24.0663 8.26213 24.5929 7.49263C23.8908 7.78828 23.1348 8.00563 22.3518 8.10013C23.1618 7.61413 23.7693 6.85812 24.0663 5.95226C23.3103 6.39777 22.4733 6.72177 21.5958 6.89727C20.8803 6.14261 19.8678 5.67011 18.7473 5.67011C16.6021 5.67011 14.8458 7.39678 14.8458 9.5433C14.8458 9.85515 14.8863 10.1508 14.9538 10.4343C11.7137 10.2723 8.83819 8.72114 6.92118 6.37212C6.58367 6.95127 6.39467 7.61413 6.39467 8.32964C6.39467 9.67965 7.08318 10.8677 8.12269 11.5562C7.48818 11.5427 6.88067 11.3672 6.36767 11.0702C6.35417 11.0972 6.35417 11.1093 6.35417 11.1228C6.35417 13.0007 7.70418 14.5802 9.4862 14.9312C9.1622 15.0257 8.81119 15.0649 8.46019 15.0649C8.20369 15.0649 7.96069 15.0392 7.73118 14.9974C8.21719 16.5377 9.6617 17.6717 11.3627 17.6974C10.0397 18.7382 8.35219 19.3592 6.52967 19.3592C6.21917 19.3592 5.90866 19.3457 5.59816 19.3052C7.32618 20.4123 9.3647 21.0468 11.5652 21.0468C18.7338 21.0468 22.6623 15.1337 22.6623 10.0023C22.6623 9.82815 22.6488 9.6648 22.6488 9.50415ZM7.67456 0H20.8291C23.2375 0 24.1096 0.251103 24.9898 0.720907C25.87 1.19206 26.5599 1.88192 27.0311 2.76213C27.5022 3.64234 27.752 4.5158 27.752 6.92152V20.0774C27.752 22.4845 27.5022 23.3579 27.0311 24.2368C26.5599 25.117 25.87 25.8082 24.9898 26.2794C24.1096 26.7492 23.2375 27.0003 20.8291 27.0003H7.67456C5.26749 27.0003 4.39538 26.7492 3.51517 26.2794C2.63496 25.8082 1.94376 25.117 1.4726 24.2368C1.0028 23.3579 0.751694 22.4845 0.751694 20.0774V6.92152C0.751694 4.5158 1.0028 3.64234 1.4726 2.76213C1.94376 1.88192 2.63496 1.19206 3.51517 0.720907C4.39538 0.251103 5.26749 0 7.67456 0Z" fill="#787484"/>
</g>
</svg>
